<?xml version="1.0" standalone="no"?>
<!DOCTYPE svg PUBLIC "-//W3C//DTD SVG 1.1//EN" "http://www.w3.org/Graphics/SVG/1.1/DTD/svg11.dtd" >
<svg xmlns="http://www.w3.org/2000/svg">
<metadata>
This is a custom SVG webfont generated by Font Squirrel.
Copyright   : c Luc as  de Groot 1994
</metadata>
<defs>
<font id="webfontXqngKwKz" horiz-adv-x="1177" >
<font-face units-per-em="2048" ascent="1638" descent="-410" />
<missing-glyph horiz-adv-x="446" />
<glyph unicode=" "  horiz-adv-x="446" />
<glyph unicode="&#x09;" horiz-adv-x="446" />
<glyph unicode="&#xa0;" horiz-adv-x="446" />
<glyph unicode="!" horiz-adv-x="616" d="M418 1448l-31 -1104h-156l-32 1104h219zM307 223q51 0 87 -34.5t36 -86t-36 -86t-87 -34.5t-87 34.5t-36 86t36 86t87 34.5z" />
<glyph unicode="&#x22;" horiz-adv-x="749" d="M301 1513l-31 -471h-135l-29 471h195zM643 1513l-29 -471h-137l-28 471h194z" />
<glyph unicode="#" horiz-adv-x="1396" d="M1278 391h-307l-41 -391h-158l41 391h-299l-41 -391h-158l41 391h-297v131h312l41 381h-295v131h309l37 348h155l-36 -348h299l37 348h157l-37 -348h295v-131h-307l-41 -381h293v-131zM827 522l41 381h-299l-41 -381h299z" />
<glyph unicode="$" horiz-adv-x="1001" d="M891 365q0 -141 -91 -243t-253 -132v-266h-137v258q-145 4 -254 30l12 172q121 -47 266 -47q119 0 191.5 50.5t72.5 152.5q0 76 -59 126t-144 82t-171 70.5t-145.5 115.5t-59.5 192q0 133 90 227t237 117v215h138v-207q123 -4 217 -25l-13 -163q-113 37 -231 36 q-131 0 -191.5 -51t-60.5 -127q0 -72 60.5 -122t146.5 -83.5t172 -73.5t146.5 -115.5t60.5 -188.5z" />
<glyph unicode="%" horiz-adv-x="1636" d="M737 1090q0 -162 -99 -259.5t-239 -97.5q-141 0 -226 82t-85 246t97.5 258t234.5 94q143 0 230 -77.5t87 -245.5zM573 1077q0 203 -161 203q-70 0 -115 -56.5t-45 -148.5q0 -209 156 -209q74 0 119.5 57.5t45.5 153.5zM1356 1335l-975 -1382l-131 94l975 1383zM1526 326 q0 -162 -99.5 -259.5t-238.5 -97.5q-141 0 -226 82t-85 246t97 258t234 94q143 0 230.5 -77.5t87.5 -245.5zM1362 313q0 203 -162 203q-70 0 -115 -56.5t-45 -148.5q0 -209 156 -209q74 0 120 57.5t46 153.5z" />
<glyph unicode="&#x26;" horiz-adv-x="1628" d="M1513 102l-118 -143q-180 123 -291 217q-227 -197 -541 -196q-215 0 -331.5 111.5t-116.5 289.5q0 131 71.5 233.5t212.5 214.5q-106 123 -148 206t-42 167q0 133 97 223.5t267 90.5q156 0 242 -77t86 -202q0 -207 -256 -403q217 -233 453 -422v-2q154 221 139 512h184 q10 -356 -188 -613q147 -119 280 -207zM717 1219q0 70 -40 111.5t-120 41.5q-74 0 -120 -44t-46 -116q0 -100 150 -274q90 74 133 139.5t43 141.5zM975 279q-272 223 -469 440q-203 -162 -203 -316q0 -113 81 -190.5t212 -77.5q217 1 379 144z" />
<glyph unicode="'" horiz-adv-x="407" d="M301 1513l-31 -471h-135l-29 471h195z" />
<glyph unicode="(" horiz-adv-x="620" d="M600 -395h-176q-281 449 -281 977t283 987h170q-272 -444 -272 -977q0 -543 276 -987z" />
<glyph unicode=")" horiz-adv-x="620" d="M487 583.5q0 -530.5 -280 -978.5h-174q274 442 274 985q0 532 -274 979h174q280 -455 280 -985.5z" />
<glyph unicode="*" horiz-adv-x="765" d="M676 1096l-70 -119l-184 135l22 -229h-137l23 229l-185 -135l-67 119l211 92l-211 94l69 119l185 -135l-23 229h137l-24 -229l186 135l68 -119l-211 -92z" />
<glyph unicode="+" horiz-adv-x="1153" d="M1098 451h-436v-451h-175v451h-432v153h432v449h175v-449h436v-153z" />
<glyph unicode="," horiz-adv-x="466" d="M131 -315l-78 69q174 186 88 295q-43 53 -14 117.5t102 64.5q80 0 115 -73.5t-15.5 -205.5t-197.5 -267z" />
<glyph unicode="-" horiz-adv-x="675" d="M580 440h-484v148h484v-148z" />
<glyph unicode="." horiz-adv-x="466" d="M233.5 236q53.5 0 90 -38t36.5 -89.5t-36.5 -89t-90 -37.5t-90.5 37.5t-37 89t37 89.5t90.5 38z" />
<glyph unicode="/" horiz-adv-x="858" d="M788 1382l-526 -1382h-180l528 1382h178z" />
<glyph unicode="0" horiz-adv-x="1255" d="M1151 543q0 -256 -157.5 -409.5t-387.5 -153.5q-227 0 -364.5 135t-137.5 401q0 250 158 402.5t381 152.5q250 0 379 -146t129 -382zM965 530q0 172 -85 278.5t-247 106.5q-145 0 -243.5 -104t-98.5 -279q0 -176 83 -285.5t249 -109.5q143 0 242.5 109.5t99.5 283.5z" />
<glyph unicode="1" horiz-adv-x="692" d="M504 0h-191v877l-231 -99l-31 158l303 117h150v-1053z" />
<glyph unicode="2" horiz-adv-x="987" d="M885 0h-776v147l270 228q141 117 199.5 187.5t58.5 154.5q0 88 -57.5 143t-161.5 55q-133 0 -258 -77l-27 159q154 74 324 74q182 0 281.5 -88t99.5 -233q0 -111 -63.5 -206t-199.5 -206l-215 -178l-4 -2q131 8 529 8v-166z" />
<glyph unicode="3" horiz-adv-x="944" d="M831 63q0 -203 -149.5 -334.5t-409.5 -131.5q-94 0 -180 22l19 164q92 -27 178 -27q164 0 254 79t90 204q0 150 -125 215t-344 43v147q211 0 326.5 67t115.5 200q0 94 -61.5 149t-167.5 55q-129 0 -242 -63l-18 158q143 57 293 57q193 0 292 -92t99 -232 q0 -115 -67.5 -204.5t-182.5 -135.5v-2q129 -20 204.5 -113.5t75.5 -224.5z" />
<glyph unicode="4" horiz-adv-x="1114" d="M1085 0h-245v-393h-183v393h-596l-28 152l569 903h238v-889h245v-166zM659 166v708h-2l-446 -710q116 2 448 2z" />
<glyph unicode="5" horiz-adv-x="956" d="M854 88q0 -213 -166 -352t-422 -139q-78 0 -147 12l16 168q72 -14 146 -15q182 0 279 83t97 214t-101 213t-286 82q-70 0 -110 -2v701h651v-181h-477v-362q248 0 384 -117t136 -305z" />
<glyph unicode="6" horiz-adv-x="1191" d="M1092 471q0 -217 -138.5 -354t-357.5 -137q-217 0 -339 155.5t-122 433.5q0 424 200 649.5t529 225.5q41 0 94 -4v-164q-61 10 -112 10q-211 0 -336 -124t-166 -345l-6 -29q-6 -29 -10 -51l2 -2q47 78 135 123t203 45q197 0 310.5 -117.5t113.5 -314.5zM895 444 q0 139 -71.5 218t-196.5 79q-133 0 -207 -83t-74 -197q0 -137 70.5 -230.5t204.5 -93.5q125 0 199.5 86t74.5 221z" />
<glyph unicode="7" horiz-adv-x="940" d="M881 897q-266 -600 -424 -1290h-209q170 684 428 1270q-63 -4 -625 -5v181h830v-156z" />
<glyph unicode="8" horiz-adv-x="1128" d="M1010 367q0 -180 -134.5 -283.5t-332.5 -103.5q-203 0 -315.5 98t-112.5 256q0 88 47 168t100 124t137 99h-2q-262 152 -262 362q0 162 121 263.5t317 101.5q188 0 299 -92t111 -240q0 -109 -64.5 -194.5t-203.5 -173.5q139 -82 217 -168t78 -217zM793 1102 q0 86 -60.5 142t-169 56t-172 -57t-63.5 -145q0 -80 59 -140.5t182 -130.5h2q121 76 171.5 137.5t50.5 137.5zM815 342q0 94 -65.5 161.5t-202.5 143.5h-2q-233 -139 -234 -293q0 -98 69 -158.5t185 -60.5q106 0 178 56.5t72 150.5z" />
<glyph unicode="9" horiz-adv-x="1191" d="M1057 475q0 -426 -197.5 -652t-546.5 -226q-61 0 -123 12v170q70 -18 134 -19q213 0 335.5 110t174.5 325q0 4 7 45t9 59h-2q-49 -72 -136 -114t-192 -42q-195 0 -307.5 118t-112.5 317q0 213 135.5 352t352.5 139q215 0 342 -147.5t127 -446.5zM846 575q0 152 -73 245 t-204 93q-121 0 -197.5 -88t-76.5 -217q0 -143 70.5 -221t199.5 -78q123 0 202 78.5t79 187.5z" />
<glyph unicode=":" horiz-adv-x="526" d="M264 834q53 0 90 -37t37 -90q0 -51 -38 -89t-89 -38q-53 0 -91 36.5t-38 90t38 90.5t91 37zM264 236q51 0 89 -38t38 -89.5t-38 -89t-89 -37.5q-53 0 -91 36.5t-38 90t38 90.5t91 37z" />
<glyph unicode=";" horiz-adv-x="526" d="M391 707q0 -51 -38 -89t-89 -38q-53 0 -91 36.5t-38 90t38 90.5t91 37t90 -37t37 -90zM262 231q78 0 114 -73.5t-14.5 -205.5t-197.5 -267l-80 69q174 186 88 295q-45 53 -14.5 117.5t104.5 64.5z" />
<glyph unicode="&#x3c;" horiz-adv-x="1026" d="M115 512l647 590l119 -119l-529 -469l529 -457l-117 -125z" />
<glyph unicode="=" horiz-adv-x="1200" d="M1053 618h-908v152h908v-152zM1053 268h-908v152h908v-152z" />
<glyph unicode="&#x3e;" horiz-adv-x="1026" d="M909 524l-647 -590l-119 119l529 469l-529 457l117 125z" />
<glyph unicode="?" horiz-adv-x="866" d="M741 1059q0 -74 -30.5 -137.5t-73.5 -105.5l-90 -92q-47 -50 -80 -97t-43 -121t20 -162h-180q-39 127 -25.5 207t62.5 148.5t102.5 114.5t95.5 105.5t42 118.5q0 100 -109.5 171t-284.5 81l25 168q260 -14 414.5 -127.5t154.5 -271.5zM485 102.5q0 -51.5 -35.5 -86 t-87 -34.5t-87 34.5t-35.5 86t35.5 86t87 34.5t87 -34.5t35.5 -86z" />
<glyph unicode="@" horiz-adv-x="1705" d="M1563 813q0 -229 -110 -347t-292 -118q-106 0 -155.5 56.5t-36.5 136.5h-4q-29 -74 -104 -133.5t-165 -59.5q-182 0 -182 240q0 203 108.5 338t303.5 135q109 0 227 -27l-63 -354q-37 -199 100 -199q211 0 211 324q0 197 -125 332t-371 135q-254 0 -428 -177t-174 -450 q0 -244 142.5 -393.5t398.5 -149.5q158 0 299 48v-144q-131 -45 -320 -45q-317 0 -500.5 184.5t-183.5 485.5q0 336 227.5 558t546.5 222q303 0 476.5 -172t173.5 -426zM989 930q-33 10 -100 10q-106 0 -164.5 -103.5t-58.5 -220.5q0 -131 71 -131q76 0 139.5 98.5 t96.5 264.5z" />
<glyph unicode="A" horiz-adv-x="1259" d="M1241 0h-211l-115 324h-587l-115 -324h-193l504 1382h209zM864 473l-180 494q-35 92 -61 207h-5q-29 -117 -63 -209l-178 -492h487z" />
<glyph unicode="B" horiz-adv-x="1167" d="M1061 414q0 -55 -13.5 -108.5t-51.5 -111t-95 -100.5t-153.5 -71.5t-221.5 -28.5q-47 0 -176 3t-176 3v1382q301 6 408 7q223 0 335.5 -87.5t112.5 -244.5q0 -109 -67.5 -198t-180.5 -124v-4q137 -23 208 -111.5t71 -205.5zM836 1026q0 100 -64.5 155.5t-222.5 55.5 q-76 0 -187 -4v-447q39 -2 125 -2q168 0 258.5 63.5t90.5 178.5zM864 408q0 236 -372 235q-96 0 -130 -2v-483q57 -10 177 -11q162 0 243.5 71t81.5 190z" />
<glyph unicode="C" horiz-adv-x="1193" d="M1098 53q-170 -70 -375 -69q-319 0 -474 181t-155 490q0 334 170 537t506 203q150 0 313 -41l-20 -172q-160 49 -313 49q-225 0 -338 -151.5t-113 -393.5q0 -535 469 -534q170 0 309 69z" />
<glyph unicode="D" horiz-adv-x="1388" d="M1294 707q0 -346 -210 -530.5t-560 -184.5q-74 0 -188.5 4t-161.5 4v1380q33 0 114 3t156.5 4.5t143.5 1.5q706 0 706 -682zM1096 694q0 541 -527 541q-53 0 -207 -6v-1065q76 -12 183 -12q254 0 402.5 136t148.5 406z" />
<glyph unicode="E" horiz-adv-x="1026" d="M885 0h-711v1382h711v-155h-523v-439h498v-151h-498v-479h523v-158z" />
<glyph unicode="F" horiz-adv-x="960" d="M879 1227h-517v-449h490v-151h-490v-627h-188v1382h705v-155z" />
<glyph unicode="G" horiz-adv-x="1396" d="M1214 1341l-28 -176q-180 74 -369 74q-225 0 -376.5 -144.5t-151.5 -408.5q0 -256 138 -398.5t374 -142.5q123 0 243 37v523h187v-644q-215 -80 -457 -79q-315 0 -500.5 181t-185.5 501q0 324 203 530.5t545 206.5q190 -1 378 -60z" />
<glyph unicode="H" horiz-adv-x="1429" d="M1255 0h-188v637h-705v-637h-188v1382h188v-585h705v585h188v-1382z" />
<glyph unicode="I" horiz-adv-x="536" d="M362 0h-188v1382h188v-1382z" />
<glyph unicode="J" horiz-adv-x="673" d="M502 360q0 -375 -346 -374q-84 0 -154 16v164q68 -23 141 -23q88 0 129 49.5t41 180.5v1009h189v-1022z" />
<glyph unicode="K" horiz-adv-x="1196" d="M1165 0h-256l-547 684v-684h-188v1382h188v-651l549 651h232l-584 -667z" />
<glyph unicode="L" horiz-adv-x="872" d="M858 0h-684v1382h188v-1220h496v-162z" />
<glyph unicode="M" horiz-adv-x="1820" d="M1722 0h-198l-117 799q-31 211 -43 340h-4q-25 -113 -68 -250l-297 -889h-200l-281 829q-70 211 -88 310h-2q-6 -94 -39 -359l-94 -780h-193l203 1382h231l291 -870q53 -156 78 -274h4q25 113 74 262l301 882h233z" />
<glyph unicode="N" horiz-adv-x="1447" d="M1274 0h-246l-526 856q-78 123 -158 287q14 -258 14 -699v-444h-184v1382h248l514 -829q82 -133 170 -303q-14 297 -14 739v393h182v-1382z" />
<glyph unicode="O" horiz-adv-x="1443" d="M1358 706.5q0 -335.5 -187.5 -531t-468.5 -195.5q-303 0 -459.5 186t-156.5 510q0 336 187.5 531.5t467.5 195.5q285 0 451 -180.5t166 -516zM1157 684q0 264 -113.5 408.5t-322.5 144.5q-182 0 -308 -142.5t-126 -392.5q0 -256 109.5 -405.5t322.5 -149.5 q182 0 310 141.5t128 395.5z" />
<glyph unicode="P" horiz-adv-x="1073" d="M1008 985q0 -203 -149.5 -332t-385.5 -129q-74 0 -111 4v-528h-188v1382q205 8 340 9q236 0 365 -110t129 -296zM811 967q0 268 -317 268q-92 0 -132 -2v-545q47 -8 113 -8q154 2 245 79t91 208z" />
<glyph unicode="Q" horiz-adv-x="1441" d="M1358 706.5q0 -335.5 -187.5 -531t-468.5 -195.5q-303 0 -459.5 186t-156.5 510q0 336 187.5 531.5t467.5 195.5q285 0 451 -180.5t166 -516zM1440 -379q-72 -11 -140 -11q-74 0 -145 13q-135 25 -258 52q-77 17 -153 18q-45 0 -89 -6v166q46 6 97 5q132 0 298 -38 q160 -37 288 -38q54 0 102 7v-168zM1157 684q0 264 -113.5 408.5t-322.5 144.5q-182 0 -308 -142.5t-126 -392.5q0 -256 109.5 -405.5t322.5 -149.5q182 0 310 141.5t128 395.5z" />
<glyph unicode="R" horiz-adv-x="1132" d="M1079 0h-239l-469 621h-9v-621h-188v1382q125 8 346 9q469 0 469 -361q0 -172 -116.5 -274.5t-305.5 -114.5l121 -147zM793 1006q0 123 -76 177t-230 54q-51 0 -125 -4v-471q41 -4 117 -4q147 0 230.5 67.5t83.5 180.5z" />
<glyph unicode="S" horiz-adv-x="1030" d="M924 408q0 -188 -139.5 -307t-376.5 -119q-152 0 -279 32l10 181q143 -51 285 -52q135 0 219 58.5t84 179.5q0 72 -46 124t-116 80l-149 62q-80 35 -149.5 73t-116 112.5t-46.5 177.5q0 174 131.5 282.5t360.5 108.5q127 0 250 -25l-10 -168q-131 37 -250 37 q-139 0 -213 -58.5t-74 -156.5q0 -82 64.5 -136t155.5 -89t183.5 -76t157 -121.5t64.5 -199.5z" />
<glyph unicode="T" horiz-adv-x="1056" d="M1022 1225h-399v-1225h-189v1225h-397v157h985v-157z" />
<glyph unicode="U" horiz-adv-x="1419" d="M1243 528q0 -270 -140 -409t-411 -139q-156 0 -262 39.5t-159.5 112.5t-75 151.5t-21.5 181.5v917h188v-903q0 -162 75 -253t268 -91q184 0 269 87t85 292v868h184v-854z" />
<glyph unicode="V" horiz-adv-x="1265" d="M1239 1382l-508 -1382h-211l-497 1382h208l310 -888q61 -184 90 -287h2q41 154 96 301l318 874h192z" />
<glyph unicode="W" horiz-adv-x="1949" d="M1880 1382l-364 -1382h-232l-264 930q-31 109 -51 239h-2q-14 -117 -49 -237l-259 -932h-225l-364 1382h200l234 -901q33 -121 55 -266h2q23 135 55 256l256 911h213l265 -919q35 -119 55 -244h2q23 131 47 225l240 938h186z" />
<glyph unicode="X" horiz-adv-x="1226" d="M1192 0h-236l-352 571l-350 -571h-219l454 713l-426 669h218l327 -528l322 528h213l-420 -663z" />
<glyph unicode="Y" horiz-adv-x="1099" d="M1079 1382l-440 -884v-498h-188v498l-433 884h207l219 -467q59 -123 105 -239h2q33 84 119 264l213 442h196z" />
<glyph unicode="Z" horiz-adv-x="1103" d="M1014 0h-920v139l580 914q78 119 112 166q-131 -4 -301 -5h-370v168h891v-143l-611 -950l-82 -121q43 4 344 4h357v-172z" />
<glyph unicode="[" horiz-adv-x="659" d="M582 -408h-406v1987h406v-141h-234v-1700h234v-146z" />
<glyph unicode="\" horiz-adv-x="837" d="M770 0h-174l-530 1382h170z" />
<glyph unicode="]" horiz-adv-x="659" d="M483 -408h-405v146h233v1700h-233v141h405v-1987z" />
<glyph unicode="^" horiz-adv-x="1095" d="M967 772l-138 -70l-294 543l-283 -543l-125 68l338 612h147z" />
<glyph unicode="_" horiz-adv-x="1024" d="M1024 -516h-1024v145h1024v-145z" />
<glyph unicode="`" horiz-adv-x="755" d="M580 1282l-76 -106l-309 202l94 129z" />
<glyph unicode="a" horiz-adv-x="1067" d="M895 0h-178q0 145 10 203h-4q-39 -96 -131 -158.5t-215 -62.5q-129 0 -206 66.5t-77 184.5q0 168 163 266.5t450 98.5v76q0 111 -51.5 164t-172.5 53q-168 0 -307 -84l-18 158q176 74 356 73q207 0 292 -88t85 -252v-405q0 -117 4 -293zM707 451v18q-432 0 -433 -201 q0 -63 42 -102t114 -39q119 0 198 98.5t79 225.5z" />
<glyph unicode="b" horiz-adv-x="1142" d="M1055 557q0 -266 -142.5 -418.5t-388.5 -152.5q-195 0 -350 41v1468h184v-494q0 -113 -18 -190l4 -2q41 106 130 166.5t206 60.5q180 0 277.5 -123t97.5 -356zM862 541q0 344 -225 344q-129 0 -204 -122t-75 -269v-338q80 -25 181 -25q323 0 323 410z" />
<glyph unicode="c" horiz-adv-x="890" d="M825 39q-135 -53 -295 -53q-446 0 -446 489q0 254 130 406.5t378 152.5q117 0 231 -33l-20 -161q-111 43 -219 43q-150 0 -227.5 -102.5t-77.5 -280.5q0 -356 290 -357q137 0 242 56z" />
<glyph unicode="d" horiz-adv-x="1140" d="M967 0h-179q0 127 17 207l-4 2q-43 -104 -133 -165.5t-209 -61.5q-184 0 -279.5 125.5t-95.5 353.5q0 266 142.5 418.5t383.5 152.5q70 0 172 -10v473h185v-1495zM782 526v338q-84 23 -180 23q-324 0 -323 -410q0 -344 225 -344q129 0 203.5 121.5t74.5 271.5z" />
<glyph unicode="e" horiz-adv-x="1040" d="M946 608q0 -35 -6 -88h-666v-27q0 -362 322 -362q164 0 297 64l16 -150q-152 -63 -344 -63q-481 0 -481 522q0 236 122 384t333 148q205 0 306 -120t101 -308zM758 651v14q0 103 -59 168q-62 69 -169 68q-98 0 -164.5 -68.5t-82.5 -181.5h475z" />
<glyph unicode="f" horiz-adv-x="716" d="M782 1489l-16 -154q-66 23 -150 23q-109 0 -158.5 -63.5t-49.5 -198.5v-78h282v-144h-282v-874h-185v874h-209v144h209v76q0 414 391 413q86 0 168 -18z" />
<glyph unicode="g" horiz-adv-x="1138" d="M1053 -147q0 -164 -151.5 -273.5t-389.5 -109.5q-199 0 -313.5 77.5t-114.5 221.5q0 86 48 156.5t120 107.5q-100 47 -100 149q0 117 114 170q-150 86 -149 291q0 168 119.5 280.5t326.5 112.5q80 0 160 -18h346v-146h-172q86 -66 86 -198q0 -170 -115.5 -274.5 t-326.5 -104.5q-59 0 -129 12q-66 -27 -66 -84q0 -43 41 -61.5t133 -18.5h189q166 0 255 -75.5t89 -214.5zM801 662q0 113 -64.5 175t-181.5 62q-119 0 -188.5 -66.5t-69.5 -170.5q0 -113 65.5 -173.5t186.5 -60.5q117 0 184.5 61.5t67.5 172.5zM870 -170q0 76 -54 118 t-159 42h-260q-131 -68 -131 -187q0 -88 76 -137t199 -49q154 0 241.5 58.5t87.5 154.5z" />
<glyph unicode="h" d="M1006 0h-185v657q0 115 -39 171.5t-135 56.5q-125 0 -207 -113t-82 -283v-489h-184v1495h184v-481q0 -135 -18 -203l4 -2q45 106 137 167.5t217 61.5q307 0 308 -325v-713z" />
<glyph unicode="i" horiz-adv-x="532" d="M389 1307q0 -49 -36 -85t-87 -36t-87 34.5t-36 86.5q0 49 36 83.5t87 34.5t87 -33.5t36 -84.5zM358 0h-184v1018h184v-1018z" />
<glyph unicode="j" horiz-adv-x="544" d="M401 1306.5q0 -49.5 -35.5 -85t-84.5 -35.5q-51 0 -87 34.5t-36 86.5q0 49 35.5 83.5t87.5 34.5q49 0 84.5 -34.5t35.5 -84zM371 -113q0 -211 -78 -309t-273 -98q-80 0 -141 18l17 162q68 -25 129 -25q94 0 128.5 49.5t34.5 186.5v1147h183v-1131z" />
<glyph unicode="k" horiz-adv-x="1009" d="M971 0h-236l-377 524v-524h-184v1495h184v-924l359 447h223l-391 -465z" />
<glyph unicode="l" horiz-adv-x="532" d="M358 0h-184v1495h184v-1495z" />
<glyph unicode="m" horiz-adv-x="1800" d="M1626 0h-184v653q0 115 -36 173.5t-130 58.5q-115 0 -200 -110.5t-85 -289.5v-485h-182v655q0 109 -35 169.5t-131 60.5q-119 0 -202 -114t-83 -286v-485h-184v1018h178q0 -131 -16 -213l4 -2q45 109 139 172t215 63q76 0 132.5 -23.5t86 -62.5t44 -73.5t18.5 -71.5 q41 90 128 160.5t220 70.5q303 0 303 -333v-705z" />
<glyph unicode="n" d="M1006 0h-185v657q0 115 -39 171.5t-135 56.5q-125 0 -207 -113t-82 -283v-489h-184v1018h178q0 -133 -16 -213l4 -2q45 109 138 172t220 63q307 0 308 -325v-713z" />
<glyph unicode="o" horiz-adv-x="1116" d="M1034 526q0 -233 -137 -388.5t-360 -155.5q-215 0 -336 129t-121 389q0 229 135 382.5t360 153.5q209 0 334 -124t125 -386zM842 516q0 176 -72 271.5t-211 95.5q-121 0 -204 -93.5t-83 -271.5q0 -184 74 -282.5t213 -98.5q121 0 202 96.5t81 282.5z" />
<glyph unicode="p" horiz-adv-x="1142" d="M1055 557q0 -270 -138.5 -419.5t-386.5 -149.5q-100 0 -172 12v-506h-184v1524h178q0 -131 -16 -207l4 -2q43 106 132 166.5t210 60.5q178 0 275.5 -124t97.5 -355zM862 541q0 344 -225 344q-129 0 -204 -122t-75 -271v-336q80 -25 181 -25q323 0 323 410z" />
<glyph unicode="q" horiz-adv-x="1142" d="M969 -506h-183v529q0 111 15 182l-4 2q-41 -104 -130 -164.5t-202 -60.5q-182 0 -279.5 120.5t-97.5 356.5q0 268 142.5 421.5t394.5 153.5q162 0 344 -28v-1512zM786 528v338q-88 20 -182 21q-322 0 -321 -410q0 -344 223 -344q129 0 204.5 122.5t75.5 272.5z" />
<glyph unicode="r" horiz-adv-x="727" d="M684 1036l-8 -180q-31 5 -58 5q-117 0 -181 -91q-79 -113 -79 -360v-410h-184v1018h178q0 -127 -22 -242h4q37 123 124 200q72 63 179 63q23 0 47 -3z" />
<glyph unicode="s" horiz-adv-x="870" d="M768 305q0 -141 -118 -232t-316 -91q-121 0 -215 18l6 164q109 -35 223 -35q102 0 164.5 43t62.5 113q0 61 -49 97t-117.5 56.5t-138 45t-119 87t-49.5 160.5q0 133 107.5 219t300.5 86q92 0 195 -20l-5 -154q-102 33 -204 33q-98 0 -150.5 -39t-52.5 -106 q0 -61 49 -98.5t118.5 -58t139.5 -47t119 -87t49 -154.5z" />
<glyph unicode="t" horiz-adv-x="759" d="M684 4q-96 -20 -197 -20q-154 0 -213 68.5t-59 236.5v585h-209v144h209v330l184 51v-381h285v-144h-285v-520q0 -127 30 -170t116 -43q66 0 139 19v-156z" />
<glyph unicode="u" d="M1004 0h-179q0 119 17 213l-4 2q-45 -109 -138.5 -172t-220.5 -63q-305 0 -305 325v713h182v-658q0 -115 39 -171t135 -56q125 0 208 112.5t83 282.5v490h183v-1018z" />
<glyph unicode="v" horiz-adv-x="995" d="M979 1018l-389 -1018h-191l-383 1018h207l215 -606q39 -113 60 -193h4q33 121 57 187l221 612h199z" />
<glyph unicode="w" horiz-adv-x="1624" d="M1591 1018l-329 -1018h-207l-203 600q-27 80 -57 203h-2q-20 -92 -72 -256l-170 -547h-205l-313 1018h203l155 -543q59 -209 74 -266h2q35 150 70 262l174 547h196l176 -541q51 -162 78 -270h2q35 145 70 262l164 549h194z" />
<glyph unicode="x" horiz-adv-x="1060" d="M1020 0h-238l-258 391l-258 -391h-223l375 510l-357 508h226l252 -383l256 383h206l-350 -502z" />
<glyph unicode="y" horiz-adv-x="983" d="M967 1018l-424 -1120q-90 -240 -182.5 -329t-258.5 -89q-51 0 -133 12l17 166q61 -20 131 -20q86 0 138 51t105 196l43 115l-385 1018h209l193 -529q33 -92 78 -251h4q23 90 100 313l164 467h201z" />
<glyph unicode="z" horiz-adv-x="915" d="M811 0h-713v129l488 729q-115 -4 -269 -4h-208v164h692v-129l-482 -723q111 4 277 4h215v-170z" />
<glyph unicode="{" horiz-adv-x="698" d="M633 -408h-37q-172 0 -246 97.5t-74 302.5v358q0 121 -49 170t-168 55v146q123 6 170 52t47 169v240q0 397 320 397h37v-141q-106 0 -146.5 -53.5t-40.5 -196.5v-238q0 -264 -190 -299v-4q190 -29 190 -303v-356q0 -143 40 -196.5t147 -53.5v-146z" />
<glyph unicode="|" horiz-adv-x="571" d="M356 -512h-145v2048h145v-2048z" />
<glyph unicode="}" horiz-adv-x="692" d="M651 575q-119 -6 -168 -55t-49 -170v-358q0 -205 -73.5 -302.5t-245.5 -97.5h-37v146q106 0 146 53t40 197v356q0 274 191 303v4q-190 25 -191 291v246q0 143 -40 196.5t-146 53.5v141h37q319 0 319 -397v-232q0 -129 47 -176t170 -53v-146z" />
<glyph unicode="~" horiz-adv-x="1185" d="M1083 541q-123 -127 -280 -127q-106 0 -238.5 65.5t-204.5 65.5q-100 0 -200 -88l-60 135q129 113 275 113q104 0 231 -66t209 -66q98 0 207 99z" />
<glyph unicode="&#xa1;" horiz-adv-x="616" d="M428 917.5q0 -51.5 -36 -86t-89 -34.5q-51 0 -87 34.5t-36 86t36 86t87 34.5q53 0 89 -34.5t36 -86zM408 -428h-209l26 1104h154z" />
<glyph unicode="&#xa2;" horiz-adv-x="931" d="M846 133q-104 -47 -217 -55v-217h-146v217q-190 18 -292.5 143t-102.5 338q0 199 106.5 334t288.5 162v188h146v-180q113 -4 211 -41l-15 -160q-100 51 -229 51q-147 0 -232 -91t-85 -253q0 -152 74.5 -244t238.5 -92q135 0 239 62z" />
<glyph unicode="&#xa3;" horiz-adv-x="1011" d="M885 0h-766v139q125 90 181 173t56 200q0 29 -12 168h-223v141h207q-23 219 -23 252q0 197 92 286t275 89q84 0 166 -16l-11 -152q-82 18 -149 18q-94 0 -141.5 -56t-47.5 -157q0 -39 23 -264h293v-141h-279q10 -92 11 -143q0 -121 -46.5 -208t-146.5 -175q86 8 166 8 h375v-162z" />
<glyph unicode="&#xa4;" horiz-adv-x="1138" d="M967 -78q0 -82 -22.5 -152.5t-77 -140t-165 -110.5t-266.5 -41q-154 0 -295 39l15 180q141 -57 297 -57q166 0 248.5 70.5t82.5 238.5v80q0 113 13 178h-4q-41 -104 -130.5 -164.5t-199.5 -60.5q-182 0 -280.5 121.5t-98.5 357.5q0 268 143.5 420.5t395.5 152.5 q158 0 344 -28v-1084zM782 528v338q-84 20 -180 21q-324 0 -323 -410q0 -344 225 -344q129 0 203.5 122.5t74.5 272.5z" />
<glyph unicode="&#xa5;" horiz-adv-x="1210" d="M1141 1382l-398 -786h291v-125h-336v-143h336v-125h-336v-203h-186v203h-338v125h338v143h-338v125h293l-389 786h205l219 -454q63 -131 104 -248h2q43 119 121 270l213 432h199z" />
<glyph unicode="&#xa7;" horiz-adv-x="1011" d="M858 455q0 -168 -133 -277q63 -96 63 -203q0 -131 -98 -227t-291 -96q-78 0 -151 18l14 164q74 -25 148 -24q94 0 139 45t45 120q0 59 -46 128t-112.5 136.5t-132 141.5t-112 165t-46.5 181q0 176 136 283q-59 80 -60 188q0 139 94.5 231.5t276.5 92.5q76 0 141 -15 l-14 -155q-63 18 -135 18q-168 0 -168 -164q0 -55 45 -123.5t110 -137.5l131 -142q66 -74 111 -166t45 -182zM688 432q0 70 -37 134.5t-137 176t-135 156.5q-61 -45 -62 -151q0 -59 44.5 -135t93.5 -134l174 -194q59 49 59 147z" />
<glyph unicode="&#xa8;" horiz-adv-x="1118" d="M848 1339q0 -45 -31 -76.5t-78 -31.5t-78.5 31.5t-31.5 76.5t31.5 78t78.5 33q45 0 77 -32t32 -79zM455 1339q0 -45 -31 -76.5t-78 -31.5t-78.5 31.5t-31.5 76.5t31.5 78t78.5 33q45 0 77 -32t32 -79z" />
<glyph unicode="&#xa9;" horiz-adv-x="1548" d="M770 1370q287 0 487.5 -198.5t200.5 -483.5q0 -287 -200.5 -487.5t-487.5 -200.5q-291 0 -489.5 198.5t-198.5 485.5q0 285 200.5 485.5t487.5 200.5zM770 1231q-225 0 -383 -159t-158 -384t159 -387t382 -162q225 0 384 160t159 385t-159 386t-384 161zM973 358 q-94 -35 -203 -34q-162 0 -243 95t-81 257t87.5 268.5t269.5 106.5q88 0 162 -27l-17 -131q-66 33 -147 33q-197 0 -197 -244q0 -227 189 -227q86 0 159 30z" />
<glyph unicode="&#xaa;" horiz-adv-x="790" d="M655 702h-151q0 66 10 109l-4 2q-20 -51 -79.5 -88t-127.5 -37q-102 0 -153.5 48t-51.5 128q0 117 107.5 183.5t296.5 66.5v37q0 123 -133 123q-113 0 -215 -53l-15 135q113 43 252 43q141 0 201.5 -63.5t60.5 -164.5q0 -68 -1 -168t-1 -122q0 -109 4 -179zM502 991v19 q-252 0 -252 -121q0 -35 23.5 -56.5t64.5 -21.5q76 0 120 62.5t44 117.5z" />
<glyph unicode="&#xab;" horiz-adv-x="1042" d="M485 799l-194 -293l192 -291l-143 -78l-229 367l235 373zM895 795l-209 -289l207 -285l-139 -80l-248 363l254 368z" />
<glyph unicode="&#xac;" horiz-adv-x="1081" d="M979 141h-162v322h-741v151h903v-473z" />
<glyph unicode="&#xad;" horiz-adv-x="675" d="M580 440h-484v148h484v-148z" />
<glyph unicode="&#xae;" horiz-adv-x="1150" d="M764 856h-123l-109 195h-8v-195h-100v467h162q160 0 159 -123q0 -113 -108 -133q10 -12 39 -61zM639 1188q0 57 -72 57h-43v-129h29q45 0 65.5 21.5t20.5 50.5zM575 1419q-137 0 -232 -96t-95 -233.5t96 -236.5t231.5 -99t231.5 97t96 232q0 137 -96.5 236.5t-231.5 99.5 zM575.5 1536q188.5 0 319.5 -130t131 -319q0 -184 -133 -316t-318 -132q-190 0 -321 130t-131 318q0 186 132 317.5t320.5 131.5z" />
<glyph unicode="&#xaf;" horiz-adv-x="788" d="M614 1264h-452v137h452v-137z" />
<glyph unicode="&#xb0;" horiz-adv-x="770" d="M653 1251q0 -119 -84 -190.5t-196 -71.5q-121 0 -192.5 69.5t-71.5 188.5t82.5 190.5t193.5 71.5q131 0 199.5 -72.5t68.5 -185.5zM510 1249q0 55 -32 98.5t-97 43.5q-55 0 -91 -40t-36 -102q0 -66 35 -102.5t90 -36.5q57 0 94 39t37 100z" />
<glyph unicode="&#xb1;" horiz-adv-x="1175" d="M1081 559h-405v-412h-176v412h-406v154h406v407h176v-407h405v-154zM1071 -127h-967v156h967v-156z" />
<glyph unicode="&#xb2;" horiz-adv-x="987" d="M885 0h-776v147l270 228q141 117 199.5 187.5t58.5 154.5q0 88 -57.5 143t-161.5 55q-133 0 -258 -77l-27 159q154 74 324 74q182 0 281.5 -88t99.5 -233q0 -111 -63.5 -206t-199.5 -206l-215 -178l-4 -2q131 8 529 8v-166z" />
<glyph unicode="&#xb3;" horiz-adv-x="944" d="M831 63q0 -203 -149.5 -334.5t-409.5 -131.5q-94 0 -180 22l19 164q92 -27 178 -27q164 0 254 79t90 204q0 150 -125 215t-344 43v147q211 0 326.5 67t115.5 200q0 94 -61.5 149t-167.5 55q-129 0 -242 -63l-18 158q143 57 293 57q193 0 292 -92t99 -232 q0 -115 -67.5 -204.5t-182.5 -135.5v-2q129 -20 204.5 -113.5t75.5 -224.5z" />
<glyph unicode="&#xb4;" horiz-adv-x="796" d="M586 1380l-310 -202l-73 102l291 227z" />
<glyph unicode="&#xb5;" horiz-adv-x="1263" d="M1085 0h-180q0 96 15 211l-2 2q-84 -229 -345 -229q-147 0 -215 79l-2 -2q6 -57 6 -221v-346h-184v1524h184v-643q0 -244 240 -244q137 0 218 112.5t81 284.5v490h184v-1018z" />
<glyph unicode="&#xb6;" horiz-adv-x="1179" d="M745 -53v1435h312v-143h-146v-1436h-315v144h149zM592 1382v-876q-223 0 -340 125t-117 317q0 190 127 312t330 122z" />
<glyph unicode="&#xb7;" horiz-adv-x="479" d="M239.5 721q55.5 0 93.5 -38t38 -93t-38 -93t-93.5 -38t-93 38t-37.5 93t37.5 93t93 38z" />
<glyph unicode="&#xb8;" horiz-adv-x="819" d="M575 -104q109 -233 -180 -392l-84 76q184 135 86 316h178z" />
<glyph unicode="&#xb9;" horiz-adv-x="692" d="M504 0h-191v877l-231 -99l-31 158l303 117h150v-1053z" />
<glyph unicode="&#xba;" horiz-adv-x="858" d="M754 1055q0 -164 -97.5 -264.5t-248.5 -100.5q-311 0 -312 354q0 158 95.5 257.5t242.5 99.5q137 0 228.5 -79t91.5 -267zM590 1053q0 213 -164 213q-70 0 -118 -54.5t-48 -162.5q0 -221 160 -222q78 0 124 56.5t46 169.5z" />
<glyph unicode="&#xbb;" horiz-adv-x="1042" d="M559 213l193 295l-193 289l143 80l230 -367l-236 -373zM147 219l209 289l-206 285l139 79l250 -362l-256 -369z" />
<glyph unicode="&#xbc;" horiz-adv-x="2664" d="M2635 0h-245v-393h-183v393h-596l-28 152l569 903h238v-889h245v-166zM2209 166v708h-2l-446 -710q116 2 448 2zM1698 1477l-883 -1727l-148 72l883 1726zM504 0h-191v877l-231 -99l-31 158l303 117h150v-1053z" />
<glyph unicode="&#xbd;" horiz-adv-x="2537" d="M2435 0h-776v147l270 228q141 117 199.5 187.5t58.5 154.5q0 88 -57.5 143t-161.5 55q-133 0 -258 -77l-27 159q154 74 324 74q182 0 281.5 -88t99.5 -233q0 -111 -63.5 -206t-199.5 -206l-215 -178l-4 -2q131 8 529 8v-166zM1698 1477l-883 -1727l-148 72l883 1726z M504 0h-191v877l-231 -99l-31 158l303 117h150v-1053z" />
<glyph unicode="&#xbe;" horiz-adv-x="2916" d="M2887 0h-245v-393h-183v393h-596l-28 152l569 903h238v-889h245v-166zM2461 166v708h-2l-446 -710q116 2 448 2zM1950 1477l-883 -1727l-148 72l883 1726zM831 63q0 -203 -149.5 -334.5t-409.5 -131.5q-94 0 -180 22l19 164q92 -27 178 -27q164 0 254 79t90 204 q0 150 -125 215t-344 43v147q211 0 326.5 67t115.5 200q0 94 -61.5 149t-167.5 55q-129 0 -242 -63l-18 158q143 57 293 57q193 0 292 -92t99 -232q0 -115 -67.5 -204.5t-182.5 -135.5v-2q129 -20 204.5 -113.5t75.5 -224.5z" />
<glyph unicode="&#xbf;" horiz-adv-x="866" d="M625 917.5q0 -51.5 -36 -86t-87 -34.5q-53 0 -89 34.5t-36 86t36 86t89 34.5q51 0 87 -34.5t36 -86zM715 -270l-23 -168q-260 14 -415.5 127.5t-155.5 271.5q0 74 30.5 137.5t73.5 105.5l90 92q47 50 81 97t43.5 121t-21.5 162h180q39 -127 26.5 -207t-61.5 -148.5 t-102 -114.5t-95 -105.5t-42 -118.5q0 -100 109.5 -171t281.5 -81z" />
<glyph unicode="&#xc0;" horiz-adv-x="1259" d="M1241 0h-211l-115 324h-587l-115 -324h-193l504 1382h209zM864 473l-180 494q-35 92 -61 207h-5q-29 -117 -63 -209l-178 -492h487zM744 1595l-76 -106l-309 202l94 129z" />
<glyph unicode="&#xc1;" horiz-adv-x="1259" d="M1241 0h-211l-115 324h-587l-115 -324h-193l504 1382h209zM864 473l-180 494q-35 92 -61 207h-5q-29 -117 -63 -209l-178 -492h487zM865 1693l-310 -202l-73 102l291 227z" />
<glyph unicode="&#xc2;" horiz-adv-x="1259" d="M1241 0h-211l-115 324h-587l-115 -324h-193l504 1382h209zM864 473l-180 494q-35 92 -61 207h-5q-29 -117 -63 -209l-178 -492h487zM917 1609l-74 -110l-217 139l-209 -139l-67 106l278 191z" />
<glyph unicode="&#xc3;" horiz-adv-x="1259" d="M1241 0h-211l-115 324h-587l-115 -324h-193l504 1382h209zM864 473l-180 494q-35 92 -61 207h-5q-29 -117 -63 -209l-178 -492h487zM973 1612q-82 -82 -195 -82q-78 0 -163 48t-140 48q-72 0 -137 -65l-43 122q84 84 197 84q72 0 158.5 -48t137.5 -48q80 0 142 66z" />
<glyph unicode="&#xc4;" horiz-adv-x="1259" d="M1241 0h-211l-115 324h-587l-115 -324h-193l504 1382h209zM864 473l-180 494q-35 92 -61 207h-5q-29 -117 -63 -209l-178 -492h487zM934 1624q0 -45 -31 -76.5t-78 -31.5t-78.5 31.5t-31.5 76.5t31.5 78t78.5 33q45 0 77 -32t32 -79zM541 1624q0 -45 -31 -76.5t-78 -31.5 t-78.5 31.5t-31.5 76.5t31.5 78t78.5 33q45 0 77 -32t32 -79z" />
<glyph unicode="&#xc5;" horiz-adv-x="1259" d="M1241 0h-211l-115 324h-587l-115 -324h-193l504 1382h209zM864 473l-180 494q-35 92 -61 207h-5q-29 -117 -63 -209l-178 -492h487zM864 1577q0 -92 -68.5 -157.5t-164.5 -65.5q-98 0 -165 63.5t-67 159.5t69 160.5t163 64.5q98 0 165.5 -64.5t67.5 -160.5zM745 1577 q0 47 -33.5 82t-80.5 35t-80 -35t-33 -82t33 -81t80 -34t80.5 34t33.5 81z" />
<glyph unicode="&#xc6;" horiz-adv-x="1599" d="M1456 0h-715v334h-458l-174 -334h-197l735 1382h791v-155h-512v-439h491v-151h-491v-479h530v-158zM741 483v742h-4q-80 -178 -135 -281l-250 -461h389z" />
<glyph unicode="&#xc7;" horiz-adv-x="1193" d="M1098 53q-170 -70 -375 -69q-319 0 -474 181t-155 490q0 334 170 537t506 203q150 0 313 -41l-20 -172q-160 49 -313 49q-225 0 -338 -151.5t-113 -393.5q0 -535 469 -534q170 0 309 69zM778 -104q109 -233 -180 -392l-84 76q184 135 86 316h178z" />
<glyph unicode="&#xc8;" horiz-adv-x="1026" d="M885 0h-711v1382h711v-155h-523v-439h498v-151h-498v-479h523v-158zM664 1595l-76 -106l-309 203l94 129z" />
<glyph unicode="&#xc9;" horiz-adv-x="1026" d="M885 0h-711v1382h711v-155h-523v-439h498v-151h-498v-479h523v-158zM770 1693l-310 -202l-73 102l291 227z" />
<glyph unicode="&#xca;" horiz-adv-x="1026" d="M885 0h-711v1382h711v-155h-523v-439h498v-151h-498v-479h523v-158zM807 1610l-74 -111l-217 139l-209 -139l-67 107l278 190z" />
<glyph unicode="&#xcb;" horiz-adv-x="1026" d="M885 0h-711v1382h711v-155h-523v-439h498v-151h-498v-479h523v-158zM825 1624q0 -45 -31 -76.5t-78 -31.5t-78.5 31.5t-31.5 76.5t31.5 78t78.5 33q45 0 77 -32t32 -79zM432 1624q0 -45 -31 -76.5t-78 -31.5t-78.5 31.5t-31.5 76.5t31.5 78t78.5 33q45 0 77 -32t32 -79z " />
<glyph unicode="&#xcc;" horiz-adv-x="536" d="M362 0h-188v1382h188v-1382zM418 1593l-76 -104l-309 203l94 129z" />
<glyph unicode="&#xcd;" horiz-adv-x="536" d="M362 0h-188v1382h188v-1382zM498 1692l-310 -203l-75 104l293 228z" />
<glyph unicode="&#xce;" horiz-adv-x="536" d="M362 0h-188v1382h188v-1382zM559 1610l-74 -111l-217 139l-209 -139l-69 107l280 190z" />
<glyph unicode="&#xcf;" horiz-adv-x="536" d="M362 0h-188v1382h188v-1382zM573 1624q0 -47 -32.5 -79t-77.5 -32t-78 32t-33 79t33 79t78 32t77.5 -32t32.5 -79zM180 1624q0 -47 -32.5 -79t-77.5 -32t-78 32t-33 79t33 79t78 32t77.5 -32t32.5 -79z" />
<glyph unicode="&#xd1;" horiz-adv-x="1447" d="M1274 0h-246l-526 856q-78 123 -158 287q14 -258 14 -699v-444h-184v1382h248l514 -829q82 -133 170 -303q-14 297 -14 739v393h182v-1382zM1054 1611q-82 -82 -194 -81q-78 0 -163 48t-140 48q-72 0 -138 -66l-43 123q84 84 197 84q72 0 159 -48t138 -48q80 0 141 65z " />
<glyph unicode="&#xd2;" horiz-adv-x="1443" d="M1358 706.5q0 -335.5 -187.5 -531t-468.5 -195.5q-303 0 -459.5 186t-156.5 510q0 336 187.5 531.5t467.5 195.5q285 0 451 -180.5t166 -516zM1157 684q0 264 -113.5 408.5t-322.5 144.5q-182 0 -308 -142.5t-126 -392.5q0 -256 109.5 -405.5t322.5 -149.5 q182 0 310 141.5t128 395.5zM863 1595l-76 -106l-309 202l94 129z" />
<glyph unicode="&#xd3;" horiz-adv-x="1443" d="M1358 706.5q0 -335.5 -187.5 -531t-468.5 -195.5q-303 0 -459.5 186t-156.5 510q0 336 187.5 531.5t467.5 195.5q285 0 451 -180.5t166 -516zM1157 684q0 264 -113.5 408.5t-322.5 144.5q-182 0 -308 -142.5t-126 -392.5q0 -256 109.5 -405.5t322.5 -149.5 q182 0 310 141.5t128 395.5zM996 1693l-310 -202l-73 102l291 227z" />
<glyph unicode="&#xd4;" horiz-adv-x="1443" d="M1358 706.5q0 -335.5 -187.5 -531t-468.5 -195.5q-303 0 -459.5 186t-156.5 510q0 336 187.5 531.5t467.5 195.5q285 0 451 -180.5t166 -516zM1157 684q0 264 -113.5 408.5t-322.5 144.5q-182 0 -308 -142.5t-126 -392.5q0 -256 109.5 -405.5t322.5 -149.5 q182 0 310 141.5t128 395.5zM1020 1610l-74 -111l-217 139l-209 -139l-67 107l278 190z" />
<glyph unicode="&#xd5;" horiz-adv-x="1443" d="M1358 706.5q0 -335.5 -187.5 -531t-468.5 -195.5q-303 0 -459.5 186t-156.5 510q0 336 187.5 531.5t467.5 195.5q285 0 451 -180.5t166 -516zM1157 684q0 264 -113.5 408.5t-322.5 144.5q-182 0 -308 -142.5t-126 -392.5q0 -256 109.5 -405.5t322.5 -149.5 q182 0 310 141.5t128 395.5zM1065 1613q-82 -82 -194 -81q-78 0 -163 48t-140 48q-72 0 -138 -66l-43 123q84 84 197 84q72 0 159 -48t138 -48q80 0 141 65z" />
<glyph unicode="&#xd6;" horiz-adv-x="1443" d="M1358 706.5q0 -335.5 -187.5 -531t-468.5 -195.5q-303 0 -459.5 186t-156.5 510q0 336 187.5 531.5t467.5 195.5q285 0 451 -180.5t166 -516zM1157 684q0 264 -113.5 408.5t-322.5 144.5q-182 0 -308 -142.5t-126 -392.5q0 -256 109.5 -405.5t322.5 -149.5 q182 0 310 141.5t128 395.5zM1030 1624q0 -45 -31 -76.5t-78 -31.5t-78.5 31.5t-31.5 76.5t31.5 78t78.5 33q45 0 77 -32t32 -79zM637 1624q0 -45 -31 -76.5t-78 -31.5t-78.5 31.5t-31.5 76.5t31.5 78t78.5 33q45 0 77 -32t32 -79z" />
<glyph unicode="&#xd8;" horiz-adv-x="1443" d="M1352 698q0 -334 -184.5 -526t-473.5 -192q-86 0 -159 18l-76 -209l-142 45l78 209q-311 156 -311 637q0 336 184.5 529.5t464.5 193.5q76 0 148 -17l73 199l140 -47l-72 -192q158 -72 244 -236t86 -412zM1159 680q0 365 -201 485l-366 -1005q57 -16 135 -17 q190 6 311 146.5t121 390.5zM825 1223q-68 12 -139 10q-176 -10 -293 -151.5t-117 -385.5q0 -348 181 -471z" />
<glyph unicode="&#xd9;" horiz-adv-x="1419" d="M1243 528q0 -270 -140 -409t-411 -139q-156 0 -262 39.5t-159.5 112.5t-75 151.5t-21.5 181.5v917h188v-903q0 -162 75 -253t268 -91q184 0 269 87t85 292v868h184v-854zM844 1595l-76 -106l-309 202l94 129z" />
<glyph unicode="&#xda;" horiz-adv-x="1419" d="M1243 528q0 -270 -140 -409t-411 -139q-156 0 -262 39.5t-159.5 112.5t-75 151.5t-21.5 181.5v917h188v-903q0 -162 75 -253t268 -91q184 0 269 87t85 292v868h184v-854zM955 1693l-310 -202l-73 102l291 227z" />
<glyph unicode="&#xdb;" horiz-adv-x="1419" d="M1243 528q0 -270 -140 -409t-411 -139q-156 0 -262 39.5t-159.5 112.5t-75 151.5t-21.5 181.5v917h188v-903q0 -162 75 -253t268 -91q184 0 269 87t85 292v868h184v-854zM991 1610l-73 -111l-218 139l-208 -139l-68 107l278 190z" />
<glyph unicode="&#xdc;" horiz-adv-x="1419" d="M1243 528q0 -270 -140 -409t-411 -139q-156 0 -262 39.5t-159.5 112.5t-75 151.5t-21.5 181.5v917h188v-903q0 -162 75 -253t268 -91q184 0 269 87t85 292v868h184v-854zM995 1624q0 -47 -30.5 -77.5t-77.5 -30.5t-79 31.5t-32 76.5q0 47 32 79t79 32q45 0 76.5 -32 t31.5 -79zM602 1624q0 -47 -30.5 -77.5t-78 -30.5t-79 31.5t-31.5 76.5q0 47 31.5 79t79.5 32q45 0 76.5 -32t31.5 -79z" />
<glyph unicode="&#xdd;" horiz-adv-x="1099" d="M858 1728l-310 -202l-73 102l291 227zM1079 1382l-440 -884v-498h-188v498l-433 884h207l219 -467q59 -123 105 -239h2q33 84 119 264l213 442h196z" />
<glyph unicode="&#xdf;" horiz-adv-x="1214" d="M1130 305q0 -143 -111.5 -234t-295.5 -91q-109 0 -203 22l8 162q100 -37 193 -37q111 0 166 45t55 111q0 59 -42 103t-100.5 76t-117.5 68.5t-101 101t-42 152.5q0 68 28.5 120t70.5 85l84 64q42 31 70.5 72.5t28.5 93.5q0 74 -53 111.5t-141 37.5q-268 0 -269 -334 v-1034h-184v1024q0 250 128 368.5t335 118.5q174 0 273.5 -75.5t99.5 -200.5q0 -76 -30 -132t-71 -87t-83 -58.5t-71.5 -64.5t-29.5 -88q0 -57 42 -101.5t101.5 -76t119 -69.5t101 -101.5t41.5 -151.5z" />
<glyph unicode="&#xe0;" horiz-adv-x="1067" d="M895 0h-178q0 145 10 203h-4q-39 -96 -131 -158.5t-215 -62.5q-129 0 -206 66.5t-77 184.5q0 168 163 266.5t450 98.5v76q0 111 -51.5 164t-172.5 53q-168 0 -307 -84l-18 158q176 74 356 73q207 0 292 -88t85 -252v-405q0 -117 4 -293zM707 451v18q-432 0 -433 -201 q0 -63 42 -102t114 -39q119 0 198 98.5t79 225.5zM672 1282l-76 -106l-309 202l94 129z" />
<glyph unicode="&#xe1;" horiz-adv-x="1067" d="M895 0h-178q0 145 10 203h-4q-39 -96 -131 -158.5t-215 -62.5q-129 0 -206 66.5t-77 184.5q0 168 163 266.5t450 98.5v76q0 111 -51.5 164t-172.5 53q-168 0 -307 -84l-18 158q176 74 356 73q207 0 292 -88t85 -252v-405q0 -117 4 -293zM707 451v18q-432 0 -433 -201 q0 -63 42 -102t114 -39q119 0 198 98.5t79 225.5zM781 1380l-310 -202l-73 102l291 227z" />
<glyph unicode="&#xe2;" horiz-adv-x="1067" d="M895 0h-178q0 145 10 203h-4q-39 -96 -131 -158.5t-215 -62.5q-129 0 -206 66.5t-77 184.5q0 168 163 266.5t450 98.5v76q0 111 -51.5 164t-172.5 53q-168 0 -307 -84l-18 158q176 74 356 73q207 0 292 -88t85 -252v-405q0 -117 4 -293zM707 451v18q-432 0 -433 -201 q0 -63 42 -102t114 -39q119 0 198 98.5t79 225.5zM811 1296l-74 -110l-217 139l-209 -139l-67 106l278 191z" />
<glyph unicode="&#xe3;" horiz-adv-x="1067" d="M895 0h-178q0 145 10 203h-4q-39 -96 -131 -158.5t-215 -62.5q-129 0 -206 66.5t-77 184.5q0 168 163 266.5t450 98.5v76q0 111 -51.5 164t-172.5 53q-168 0 -307 -84l-18 158q176 74 356 73q207 0 292 -88t85 -252v-405q0 -117 4 -293zM707 451v18q-432 0 -433 -201 q0 -63 42 -102t114 -39q119 0 198 98.5t79 225.5zM852 1298q-82 -82 -194 -81q-78 0 -163 48t-140 48q-72 0 -138 -66l-43 123q84 84 197 84q72 0 159 -48t138 -48q80 0 141 65z" />
<glyph unicode="&#xe4;" horiz-adv-x="1067" d="M895 0h-178q0 145 10 203h-4q-39 -96 -131 -158.5t-215 -62.5q-129 0 -206 66.5t-77 184.5q0 168 163 266.5t450 98.5v76q0 111 -51.5 164t-172.5 53q-168 0 -307 -84l-18 158q176 74 356 73q207 0 292 -88t85 -252v-405q0 -117 4 -293zM707 451v18q-432 0 -433 -201 q0 -63 42 -102t114 -39q119 0 198 98.5t79 225.5zM827 1339q0 -45 -30.5 -76.5t-77.5 -31.5t-79 31.5t-32 76.5t32 78t79 33q45 0 76.5 -32t31.5 -79zM434 1339q0 -45 -30.5 -76.5t-77.5 -31.5t-79 31.5t-32 76.5t32 78t79 33q45 0 76.5 -32t31.5 -79z" />
<glyph unicode="&#xe5;" horiz-adv-x="1067" d="M895 0h-178q0 145 10 203h-4q-39 -96 -131 -158.5t-215 -62.5q-129 0 -206 66.5t-77 184.5q0 168 163 266.5t450 98.5v76q0 111 -51.5 164t-172.5 53q-168 0 -307 -84l-18 158q176 74 356 73q207 0 292 -88t85 -252v-405q0 -117 4 -293zM707 451v18q-432 0 -433 -201 q0 -63 42 -102t114 -39q119 0 198 98.5t79 225.5zM760 1356q0 -92 -68.5 -157.5t-165.5 -65.5q-98 0 -164.5 63.5t-66.5 159.5t68.5 160.5t162.5 64.5q98 0 166 -64.5t68 -160.5zM641 1356q0 47 -34 82t-81 35t-79.5 -35t-32.5 -82t32.5 -81t79.5 -34t81 34t34 81z" />
<glyph unicode="&#xe6;" horiz-adv-x="1652" d="M1559 608q0 -35 -7 -88h-665q-12 -389 319 -389q166 0 299 64l17 -150q-152 -63 -344 -63q-164 0 -268.5 64.5t-147.5 168.5l-2 -2q-51 -98 -149.5 -164.5t-235.5 -66.5q-129 0 -205 66.5t-76 184.5q0 168 163 266.5t450 98.5v76q0 217 -224 217q-168 0 -307 -84l-18 158 q176 74 356 73q233 0 315 -157h2q47 70 131.5 112.5t190.5 42.5q203 0 304.5 -120t101.5 -308zM1370 651q4 113 -57.5 181.5t-167.5 68.5q-98 0 -167 -68.5t-85 -181.5h477zM707 451v18q-432 0 -433 -203q0 -63 43 -101t113 -38q119 0 198 98.5t79 225.5z" />
<glyph unicode="&#xe7;" horiz-adv-x="890" d="M825 39q-135 -53 -295 -53q-446 0 -446 489q0 254 130 406.5t378 152.5q117 0 231 -33l-20 -161q-111 43 -219 43q-150 0 -227.5 -102.5t-77.5 -280.5q0 -356 290 -357q137 0 242 56zM593 -104q109 -233 -180 -392l-84 76q184 135 86 316h178z" />
<glyph unicode="&#xe8;" horiz-adv-x="1040" d="M946 608q0 -35 -6 -88h-666q-12 -389 322 -389q164 0 297 64l16 -150q-152 -63 -344 -63q-481 0 -481 522q0 236 122 384t333 148q205 0 306 -120t101 -308zM758 651q4 113 -58.5 181.5t-169.5 68.5q-98 0 -164.5 -68.5t-82.5 -181.5h475zM674 1282l-76 -106l-309 202 l94 129z" />
<glyph unicode="&#xe9;" horiz-adv-x="1040" d="M946 608q0 -35 -6 -88h-666v-27q0 -362 322 -362q164 0 297 64l16 -150q-152 -63 -344 -63q-481 0 -481 522q0 236 122 384t333 148q205 0 306 -120t101 -308zM758 651v14q0 103 -59 168q-62 69 -169 68q-98 0 -164.5 -68.5t-82.5 -181.5h475zM791 1380l-310 -202 l-73 102l291 227z" />
<glyph unicode="&#xea;" horiz-adv-x="1040" d="M946 608q0 -35 -6 -88h-666v-27q0 -362 322 -362q164 0 297 64l16 -150q-152 -63 -344 -63q-481 0 -481 522q0 236 122 384t333 148q205 0 306 -120t101 -308zM758 651v14q0 103 -59 168q-62 69 -169 68q-98 0 -164.5 -68.5t-82.5 -181.5h475zM825 1296l-74 -110 l-217 139l-209 -139l-67 106l278 191z" />
<glyph unicode="&#xeb;" horiz-adv-x="1040" d="M946 608q0 -35 -6 -88h-666q-12 -389 322 -389q164 0 297 64l16 -150q-152 -63 -344 -63q-481 0 -481 522q0 236 122 384t333 148q205 0 306 -120t101 -308zM758 651q4 113 -58.5 181.5t-169.5 68.5q-98 0 -164.5 -68.5t-82.5 -181.5h475zM844 1339q0 -45 -31 -76.5 t-78 -31.5t-78.5 31.5t-31.5 76.5t31.5 78t78.5 33q45 0 77 -32t32 -79zM451 1339q0 -45 -31 -76.5t-78 -31.5t-79 31.5t-32 76.5t32 78t79 33q45 0 77 -32t32 -79z" />
<glyph unicode="&#xec;" horiz-adv-x="532" d="M358 0h-184v1018h184v-1018zM426 1282l-76 -106l-309 202l94 129z" />
<glyph unicode="&#xed;" horiz-adv-x="532" d="M358 0h-184v1018h184v-1018zM487 1380l-309 -202l-74 102l291 227z" />
<glyph unicode="&#xee;" horiz-adv-x="532" d="M358 0h-184v1018h184v-1018zM553 1296l-74 -110l-217 139l-209 -139l-69 106l280 191z" />
<glyph unicode="&#xef;" horiz-adv-x="532" d="M358 0h-184v1018h184v-1018zM575 1339q0 -45 -31.5 -76.5t-78.5 -31.5t-79 31.5t-32 76.5t32 78t79 33t78.5 -33t31.5 -78zM182 1339q0 -45 -31.5 -76.5t-78.5 -31.5t-79 31.5t-32 76.5t32 78t79 33t78.5 -33t31.5 -78z" />
<glyph unicode="&#xf1;" d="M1006 0h-185v657q0 115 -39 171.5t-135 56.5q-125 0 -207 -113t-82 -283v-489h-184v1018h178q0 -133 -16 -213l4 -2q45 109 138 172t220 63q307 0 308 -325v-713zM919 1298q-82 -82 -194 -81q-78 0 -163 48t-140 48q-72 0 -138 -66l-43 123q84 84 197 84q72 0 159 -48 t138 -48q80 0 141 65z" />
<glyph unicode="&#xf2;" horiz-adv-x="1116" d="M1034 526q0 -233 -137 -388.5t-360 -155.5q-215 0 -336 129t-121 389q0 229 135 382.5t360 153.5q209 0 334 -124t125 -386zM842 516q0 176 -72 271.5t-211 95.5q-121 0 -204 -93.5t-83 -271.5q0 -184 74 -282.5t213 -98.5q121 0 202 96.5t81 282.5zM711 1282l-76 -106 l-309 202l94 129z" />
<glyph unicode="&#xf3;" horiz-adv-x="1116" d="M1034 526q0 -233 -137 -388.5t-360 -155.5q-215 0 -336 129t-121 389q0 229 135 382.5t360 153.5q209 0 334 -124t125 -386zM842 516q0 176 -72 271.5t-211 95.5q-121 0 -204 -93.5t-83 -271.5q0 -184 74 -282.5t213 -98.5q121 0 202 96.5t81 282.5zM819 1380l-310 -202 l-73 102l291 227z" />
<glyph unicode="&#xf4;" horiz-adv-x="1116" d="M1034 526q0 -233 -137 -388.5t-360 -155.5q-215 0 -336 129t-121 389q0 229 135 382.5t360 153.5q209 0 334 -124t125 -386zM842 516q0 176 -72 271.5t-211 95.5q-121 0 -204 -93.5t-83 -271.5q0 -184 74 -282.5t213 -98.5q121 0 202 96.5t81 282.5zM846 1296l-74 -110 l-217 139l-209 -139l-67 106l278 191z" />
<glyph unicode="&#xf5;" horiz-adv-x="1116" d="M1034 526q0 -233 -137 -388.5t-360 -155.5q-215 0 -336 129t-121 389q0 229 135 382.5t360 153.5q209 0 334 -124t125 -386zM842 516q0 176 -72 271.5t-211 95.5q-121 0 -204 -93.5t-83 -271.5q0 -184 74 -282.5t213 -98.5q121 0 202 96.5t81 282.5zM901 1298 q-82 -82 -194 -81q-78 0 -163 48t-140 48q-72 0 -138 -66l-43 123q84 84 197 84q72 0 159 -48t138 -48q80 0 141 65z" />
<glyph unicode="&#xf6;" horiz-adv-x="1116" d="M1034 526q0 -233 -137 -388.5t-360 -155.5q-215 0 -336 129t-121 389q0 229 135 382.5t360 153.5q209 0 334 -124t125 -386zM842 516q0 176 -72 271.5t-211 95.5q-121 0 -204 -93.5t-83 -271.5q0 -184 74 -282.5t213 -98.5q121 0 202 96.5t81 282.5zM864 1339 q0 -45 -30.5 -76.5t-77.5 -31.5t-79 31.5t-32 76.5t32 78t79 33q45 0 76.5 -32t31.5 -79zM471 1339q0 -45 -30.5 -76.5t-78 -31.5t-79 31.5t-31.5 76.5t31.5 78t78.5 33q45 0 77 -32t32 -79z" />
<glyph unicode="&#xf7;" horiz-adv-x="1202" d="M725 940q0 -51 -36 -88t-87 -37q-53 0 -89 37t-36 88t37 87t88 36t87 -36t36 -87zM1108 451h-1014v155h1014v-155zM725 114.5q0 -51.5 -36 -88t-87 -36.5q-53 0 -89 35.5t-36 89.5q0 51 37 87t88 36t87 -36t36 -87.5z" />
<glyph unicode="&#xf8;" horiz-adv-x="1112" d="M1022 526q0 -236 -135 -391t-357 -155q-72 0 -129 18l-79 -211l-121 39l84 213q-211 121 -211 463q0 233 134 384.5t357 151.5q37 0 99 -8l73 191l121 -39l-74 -189q238 -115 238 -467zM846 518q0 229 -125 316l-262 -687q49 -20 108 -16q119 4 199 102.5t80 284.5z M608 883q-37 6 -78 6q-115 -6 -197.5 -98.5t-82.5 -276.5q0 -211 102 -303z" />
<glyph unicode="&#xf9;" d="M1004 0h-179q0 119 17 213l-4 2q-45 -109 -138.5 -172t-220.5 -63q-305 0 -305 325v713h182v-658q0 -115 39 -171t135 -56q125 0 208 112.5t83 282.5v490h183v-1018zM733 1282l-76 -106l-309 202l94 129z" />
<glyph unicode="&#xfa;" d="M1004 0h-179q0 119 17 213l-4 2q-45 -109 -138.5 -172t-220.5 -63q-305 0 -305 325v713h182v-658q0 -115 39 -171t135 -56q125 0 208 112.5t83 282.5v490h183v-1018zM834 1380l-310 -202l-73 102l291 227z" />
<glyph unicode="&#xfb;" d="M1004 0h-179q0 119 17 213l-4 2q-45 -109 -138.5 -172t-220.5 -63q-305 0 -305 325v713h182v-658q0 -115 39 -171t135 -56q125 0 208 112.5t83 282.5v490h183v-1018zM870 1296l-74 -110l-217 139l-209 -139l-67 106l278 191z" />
<glyph unicode="&#xfc;" d="M1004 0h-179q0 119 17 213l-4 2q-45 -109 -138.5 -172t-220.5 -63q-305 0 -305 325v713h182v-658q0 -115 39 -171t135 -56q125 0 208 112.5t83 282.5v490h183v-1018zM885 1339q0 -45 -31 -76.5t-78 -31.5t-78.5 31.5t-31.5 76.5t31.5 78t78.5 33q45 0 77 -32t32 -79z M492 1339q0 -45 -31 -76.5t-78 -31.5t-79 31.5t-32 76.5t32 78t79 33q45 0 77 -32t32 -79z" />
<glyph unicode="&#xfd;" horiz-adv-x="983" d="M803 1362l-310 -202l-73 102l291 227zM967 1018l-424 -1120q-90 -240 -182.5 -329t-258.5 -89q-51 0 -133 12l17 166q61 -20 131 -20q86 0 138 51t105 196l43 115l-385 1018h209l193 -529q33 -92 78 -251h4q23 90 100 313l164 467h201z" />
<glyph unicode="&#xff;" horiz-adv-x="983" d="M967 1018l-424 -1120q-90 -240 -182.5 -329t-258.5 -89q-51 0 -133 12l17 166q61 -20 131 -20q86 0 138 51t105 196l43 115l-385 1018h209l193 -529q33 -92 78 -251h4q23 90 100 313l164 467h201zM791 1339q0 -45 -31 -76.5t-78 -31.5t-78.5 31.5t-31.5 76.5t31.5 78 t78.5 33q45 0 77 -32t32 -79zM398 1339q0 -45 -31 -76.5t-78 -31.5t-78.5 31.5t-31.5 76.5t31.5 78t78.5 33q45 0 77 -32t32 -79z" />
<glyph unicode="&#x152;" horiz-adv-x="1703" d="M1563 0h-564q-57 0 -155.5 -6t-151.5 -6q-305 0 -455.5 187t-150.5 505q0 326 184.5 519.5t458.5 193.5q53 0 140 -5.5t126 -5.5h568v-155h-525v-439h498v-151h-498v-479h525v-158zM856 164v1057q-66 12 -135 12q-186 0 -312 -144.5t-126 -390.5q0 -248 105.5 -397 t334.5 -149q78 0 133 12z" />
<glyph unicode="&#x153;" horiz-adv-x="1785" d="M1692 608q0 -35 -6 -88h-666q-12 -389 319 -389q170 0 301 64l15 -150q-152 -63 -344 -63q-295 0 -400 206q-121 -207 -376 -206q-227 0 -341 141t-114 381q0 231 134 381.5t357 150.5q260 0 365 -192q117 193 350 192q203 0 304.5 -120t101.5 -308zM1503 651 q4 113 -57.5 181.5t-167.5 68.5q-98 0 -167 -68.5t-85 -181.5h477zM842 516q0 371 -289 371q-119 0 -205 -91t-86 -282q0 -174 72 -277.5t221 -103.5q123 0 205 98.5t82 284.5z" />
<glyph unicode="&#x178;" horiz-adv-x="1099" d="M1079 1382l-440 -884v-498h-188v498l-433 884h207l219 -467q59 -123 105 -239h2q33 84 119 264l213 442h196zM846 1624q0 -47 -32 -77.5t-77 -30.5q-47 0 -78.5 31.5t-31.5 76.5q0 47 32.5 79t77.5 32t77 -32t32 -79zM453 1624q0 -47 -32 -77.5t-77 -30.5q-47 0 -79 31.5 t-32 76.5q0 47 33 79t78 32t77 -32t32 -79z" />
<glyph unicode="&#x2c6;" horiz-adv-x="886" d="M727 1296l-74 -110l-217 139l-209 -139l-67 106l278 191z" />
<glyph unicode="&#x2dc;" horiz-adv-x="1015" d="M864 1298q-82 -82 -194 -81q-78 0 -163 48t-140 48q-72 0 -138 -66l-43 123q84 84 197 84q72 0 159 -48t138 -48q80 0 141 65z" />
<glyph unicode="&#x3bc;" horiz-adv-x="1263" d="M1085 0h-180q0 96 15 211l-2 2q-84 -229 -345 -229q-147 0 -215 79l-2 -2q6 -57 6 -221v-346h-184v1524h184v-643q0 -244 240 -244q137 0 218 112.5t81 284.5v490h184v-1018z" />
<glyph unicode="&#x2000;" horiz-adv-x="927" />
<glyph unicode="&#x2001;" horiz-adv-x="1855" />
<glyph unicode="&#x2002;" horiz-adv-x="927" />
<glyph unicode="&#x2003;" horiz-adv-x="1855" />
<glyph unicode="&#x2004;" horiz-adv-x="618" />
<glyph unicode="&#x2005;" horiz-adv-x="462" />
<glyph unicode="&#x2006;" horiz-adv-x="309" />
<glyph unicode="&#x2007;" horiz-adv-x="309" />
<glyph unicode="&#x2008;" horiz-adv-x="231" />
<glyph unicode="&#x2009;" horiz-adv-x="370" />
<glyph unicode="&#x200a;" horiz-adv-x="102" />
<glyph unicode="&#x2010;" horiz-adv-x="675" d="M580 440h-484v148h484v-148z" />
<glyph unicode="&#x2011;" horiz-adv-x="675" d="M580 440h-484v148h484v-148z" />
<glyph unicode="&#x2012;" horiz-adv-x="675" d="M580 440h-484v148h484v-148z" />
<glyph unicode="&#x2013;" horiz-adv-x="1024" d="M1024 512h-1024v160h1024v-160z" />
<glyph unicode="&#x2014;" horiz-adv-x="2048" d="M2048 512h-2048v160h2048v-160z" />
<glyph unicode="&#x2018;" horiz-adv-x="497" d="M336 1536l80 -72q-172 -186 -88 -293q45 -55 14 -119.5t-104 -64.5q-78 0 -114 74t14.5 207t197.5 268z" />
<glyph unicode="&#x2019;" horiz-adv-x="497" d="M160 973l-80 71q172 186 88 293q-45 55 -14.5 120t104.5 65q78 0 114 -74t-14.5 -207t-197.5 -268z" />
<glyph unicode="&#x201a;" horiz-adv-x="497" d="M160 -315l-80 69q174 186 88 295q-45 53 -14.5 117.5t104.5 64.5q78 0 114 -73.5t-14.5 -205.5t-197.5 -267z" />
<glyph unicode="&#x201c;" horiz-adv-x="886" d="M805 1464q-172 -186 -88 -293q45 -55 14 -119.5t-104 -64.5q-78 0 -114 74t14.5 207t197.5 268zM416 1464q-172 -186 -88 -293q45 -55 14 -119.5t-104 -64.5q-78 0 -114 74t14 207t198 268z" />
<glyph unicode="&#x201d;" horiz-adv-x="886" d="M160 973l-80 71q172 186 88 293q-45 55 -14.5 120t104.5 65q78 0 114 -74t-14.5 -207t-197.5 -268zM549 973l-80 71q172 186 88 293q-45 55 -14.5 120t104.5 65q78 0 114 -74t-14.5 -207t-197.5 -268z" />
<glyph unicode="&#x201e;" horiz-adv-x="886" d="M160 -315l-80 69q174 186 88 295q-45 53 -14.5 117.5t104.5 64.5q78 0 114 -73.5t-14.5 -205.5t-197.5 -267zM549 -315l-80 69q174 186 88 295q-45 53 -14.5 117.5t104.5 64.5q78 0 114 -73.5t-14.5 -205.5t-197.5 -267z" />
<glyph unicode="&#x2022;" horiz-adv-x="880" d="M428 846q102 0 175 -73t73 -175t-73 -175t-175 -73t-174 73t-72 175t73 175t173 73z" />
<glyph unicode="&#x2026;" horiz-adv-x="1361" d="M231.5 229q51.5 0 87 -36.5t35.5 -88t-35.5 -87t-87 -35.5t-88.5 35.5t-37 87t37 88t88.5 36.5zM669.5 229q51.5 0 88.5 -36.5t37 -88t-37 -87t-88.5 -35.5t-87 35.5t-35.5 87t35.5 88t87 36.5zM1110 229q53 0 89 -36.5t36 -88t-37 -87t-88 -35.5t-87 35.5t-36 87t36 88 t87 36.5z" />
<glyph unicode="&#x202f;" horiz-adv-x="370" />
<glyph unicode="&#x2039;" horiz-adv-x="641" d="M494 797l-203 -291l201 -287l-142 -80l-241 365l247 370z" />
<glyph unicode="&#x203a;" horiz-adv-x="641" d="M532 510l-247 -371l-138 78l203 291l-200 287l141 79z" />
<glyph unicode="&#x2044;" horiz-adv-x="858" d="M1006 1477l-883 -1727l-148 72l883 1726z" />
<glyph unicode="&#x205f;" horiz-adv-x="462" />
<glyph unicode="&#x2122;" horiz-adv-x="1431" d="M1325 807h-141l-45 301l-15 111l-24 -95l-92 -317h-142l-90 321l-22 91l-6 -76l-50 -336h-131l90 575h177l92 -315l20 -94l19 86l96 323h176zM532 1270h-149v-463h-141v463h-152v112h442v-112z" />
<glyph unicode="&#xe000;" horiz-adv-x="1020" d="M0 1020h1020v-1020h-1020v1020z" />
<glyph unicode="&#xfb01;" horiz-adv-x="1208" d="M1034 0h-184v874h-442v-874h-185v874h-209v144h209v45q0 446 475 446q135 0 287 -39l-35 -153q-127 41 -248 41q-295 0 -294 -275v-65h626v-1018z" />
<glyph unicode="&#xfb02;" horiz-adv-x="1208" d="M1034 0h-184v1343q-94 16 -176 17q-135 0 -200.5 -58.5t-65.5 -183.5v-100h276v-144h-276v-874h-185v874h-209v144h209v117q0 178 117 276t352 98q152 0 342 -30v-1479z" />
<glyph unicode="&#xfb03;" horiz-adv-x="1966" d="M1823 1307q0 -49 -36 -85t-87 -36t-87 34.5t-36 86.5q0 49 36 83.5t87 34.5t87 -33.5t36 -84.5zM1792 0h-184v1018h184v-1018zM1499 1489l-16 -154q-66 23 -150 23q-109 0 -158.5 -63.5t-49.5 -198.5v-78h282v-144h-282v-874h-185v874h-209v144h209v76q0 414 391 413 q86 0 168 -18zM782 1489l-16 -154q-66 23 -150 23q-109 0 -158.5 -63.5t-49.5 -198.5v-78h282v-144h-282v-874h-185v874h-209v144h209v76q0 414 391 413q86 0 168 -18z" />
<glyph unicode="&#xfb04;" horiz-adv-x="1966" d="M1792 0h-184v1495h184v-1495zM1499 1489l-16 -154q-66 23 -150 23q-109 0 -158.5 -63.5t-49.5 -198.5v-78h282v-144h-282v-874h-185v874h-209v144h209v76q0 414 391 413q86 0 168 -18zM782 1489l-16 -154q-66 23 -150 23q-109 0 -158.5 -63.5t-49.5 -198.5v-78h282v-144 h-282v-874h-185v874h-209v144h209v76q0 414 391 413q86 0 168 -18z" />
</font>
</defs>
</svg>
