<?xml version="1.0" standalone="no"?>
<!DOCTYPE svg PUBLIC "-//W3C//DTD SVG 1.1//EN" "http://www.w3.org/Graphics/SVG/1.1/DTD/svg11.dtd" >
<svg xmlns="http://www.w3.org/2000/svg">
<metadata>
This is a custom SVG webfont generated by Font Squirrel.
Copyright   : c Luc as  de Groot 1994
</metadata>
<defs>
<font id="webfontHH4aAgAq" horiz-adv-x="1062" >
<font-face units-per-em="2048" ascent="1638" descent="-410" />
<missing-glyph horiz-adv-x="446" />
<glyph unicode=" "  horiz-adv-x="446" />
<glyph unicode="&#x09;" horiz-adv-x="446" />
<glyph unicode="&#xa0;" horiz-adv-x="446" />
<glyph unicode="!" horiz-adv-x="626" d="M498 1481l-45 -1069h-273l-49 1069h367zM311 330q78 0 131.5 -51.5t53.5 -126.5q0 -74 -53.5 -125.5t-131.5 -51.5t-131 51.5t-53 125.5q0 76 53 127t131 51z" />
<glyph unicode="&#x22;" horiz-adv-x="880" d="M387 1546l-37 -553h-233l-39 553h309zM803 1546l-37 -553h-234l-38 553h309z" />
<glyph unicode="#" horiz-adv-x="1439" d="M1327 342h-264l-37 -342h-272l37 342h-220l-36 -342h-271l35 342h-248v229h273l28 260h-241v232h266l31 319h272l-33 -319h219l33 319h272l-32 -319h250v-232h-275l-29 -260h242v-229zM813 571l29 260h-219l-27 -260h217z" />
<glyph unicode="$" horiz-adv-x="1017" d="M936 389q0 -141 -91 -249.5t-245 -147.5v-240h-221v223q-123 2 -242 25l21 279q121 -41 254 -41q193 0 192 122q0 53 -54 87t-131 62t-154 64.5t-131 117.5t-54 202q0 137 87 239.5t230 135.5v198h219v-182q117 -4 207 -24l-22 -263q-119 33 -226 33q-170 0 -169 -108 q0 -35 29.5 -63t75.5 -47t103.5 -39.5t113.5 -51.5t102.5 -71t76 -107.5t29.5 -153.5z" />
<glyph unicode="%" horiz-adv-x="1685" d="M768 1090q0 -170 -106.5 -274.5t-255.5 -104.5q-158 0 -249 92t-91 260t104 270.5t252 102.5q154 0 250 -86t96 -260zM512 1075q0 82 -22.5 115t-71.5 33q-41 0 -67.5 -39t-26.5 -111q0 -150 90 -149q43 0 70.5 39.5t27.5 111.5zM1454 1278l-1005 -1335l-228 161 l1008 1336zM1616 326q0 -170 -106.5 -274.5t-256.5 -104.5q-158 0 -249 92t-91 260t104.5 270.5t252.5 102.5q156 0 251 -86t95 -260zM1360 311q0 82 -22.5 115t-69.5 33q-41 0 -69 -39t-28 -111q0 -150 93 -149q41 0 68.5 39.5t27.5 111.5z" />
<glyph unicode="&#x26;" horiz-adv-x="1634" d="M1567 184l-207 -237l-275 196q-229 -170 -524 -170q-238 0 -356.5 118t-118.5 296q0 219 242 414q-164 195 -164 358q0 152 116.5 256.5t319.5 104.5q186 0 287.5 -86t101.5 -234q0 -205 -237 -393q160 -150 319 -268v-2q117 190 111 417h311q4 -332 -184 -587zM682 1180 q0 45 -26.5 74.5t-75.5 29.5q-47 0 -77 -30.5t-30 -77.5q0 -82 94 -193q115 101 115 197zM854 315q-193 154 -340 297q-104 -96 -104 -188q0 -74 55 -128t147 -54q133 -1 242 73z" />
<glyph unicode="'" horiz-adv-x="464" d="M387 1546l-37 -553h-233l-39 553h309z" />
<glyph unicode="(" horiz-adv-x="630" d="M657 -395h-301q-274 446 -274 978.5t276 985.5h293q-260 -436 -260 -975q0 -545 266 -989z" />
<glyph unicode=")" horiz-adv-x="630" d="M549 590q0 -539 -275 -985h-297q264 436 265 983q0 539 -262 981h299q270 -449 270 -979z" />
<glyph unicode="*" horiz-adv-x="800" d="M745 1083l-110 -188l-166 141l39 -215h-219l39 215l-168 -139l-107 186l207 74l-207 76l109 186l168 -141l-41 217h219l-39 -217l168 141l108 -186l-206 -76z" />
<glyph unicode="+" horiz-adv-x="1163" d="M1116 397h-387v-397h-297v397h-387v262h387v394h297v-394h387v-262z" />
<glyph unicode="," horiz-adv-x="567" d="M186 -379l-127 113q104 115 122 190.5t-42 136.5q-39 55 -40 121t50.5 118t133.5 52q117 0 168 -110q70 -147 -35 -346q-74 -144 -230 -275z" />
<glyph unicode="-" horiz-adv-x="690" d="M602 399h-516v250h516v-250z" />
<glyph unicode="." horiz-adv-x="567" d="M283 360q80 0 137 -57t57 -137q0 -78 -57.5 -135.5t-136.5 -57.5q-78 0 -135.5 57.5t-57.5 135.5q0 80 57.5 137t135.5 57z" />
<glyph unicode="/" horiz-adv-x="876" d="M864 1382l-526 -1382h-313l528 1382h311z" />
<glyph unicode="0" horiz-adv-x="1239" d="M1167 535q0 -256 -164.5 -409t-402.5 -153q-233 0 -380.5 128t-147.5 409q0 258 164.5 411.5t396.5 153.5q147 0 255.5 -47t167 -128t85 -172t26.5 -193zM856 532q0 127 -60.5 202t-172.5 75q-102 0 -171 -75t-69 -204q0 -131 59.5 -206.5t178.5 -75.5q100 0 167.5 75.5 t67.5 208.5z" />
<glyph unicode="1" horiz-adv-x="706" d="M578 0h-318v756l-194 -80l-48 258l322 119h238v-1053z" />
<glyph unicode="2" horiz-adv-x="985" d="M907 0h-827v254l158 123q176 135 231 191.5t55 115.5q0 121 -153 121q-123 0 -234 -70l-45 264q174 74 354 74q205 0 315.5 -88t110.5 -242q0 -201 -256 -393l-108 -80v-4q119 8 399 8v-274z" />
<glyph unicode="3" horiz-adv-x="933" d="M864 100q0 -203 -157.5 -340t-436.5 -137q-115 0 -213 29l27 268q92 -31 192 -31q119 0 184.5 49.5t65.5 133.5q0 104 -107.5 143t-291.5 16v250q379 -2 379 189q0 63 -46 99t-130 36q-121 0 -224 -57l-30 258q150 59 319 59q213 0 326 -94t113 -240q0 -102 -57.5 -184 t-153.5 -127v-2q117 -29 179 -115t62 -203z" />
<glyph unicode="4" horiz-adv-x="1148" d="M1118 0h-196v-365h-308v365h-530l-49 252l495 807h392v-778h196v-281zM621 281v477h-3l-284 -482q68 5 287 5z" />
<glyph unicode="5" horiz-adv-x="944" d="M872 137q0 -225 -178 -369.5t-450 -144.5q-82 0 -172 15l28 276q76 -14 158 -14q139 0 211 54t72 142t-77 138.5t-224 50.5q-76 0 -127 -9v777h721v-308l-428 5v-213q215 0 340.5 -108t125.5 -292z" />
<glyph unicode="6" horiz-adv-x="1189" d="M1124 477q0 -221 -150.5 -362.5t-389.5 -141.5q-227 0 -362.5 154t-135.5 438q0 403 208 636t564 233q55 0 133 -4v-277q-98 12 -151 12q-309 0 -404 -284q-2 -4 -16 -56l2 -2q94 94 272 95q199 0 314.5 -119t115.5 -322zM795 446q0 98 -46.5 150.5t-130.5 52.5 q-86 0 -135 -54t-49 -132q0 -98 46 -158.5t132 -60.5q88 0 135.5 56t47.5 146z" />
<glyph unicode="7" horiz-adv-x="937" d="M897 791q-231 -547 -348 -1156h-348q135 625 342 1117q-252 -6 -502 -7v308h856v-262z" />
<glyph unicode="8" horiz-adv-x="1146" d="M1075 395q0 -199 -149.5 -310.5t-376.5 -111.5q-221 0 -349 103.5t-128 277.5q0 121 64.5 204t166.5 151l-2 2q-215 127 -215 336q0 182 139.5 292.5t354.5 110.5q217 0 344 -95t127 -259q0 -106 -54.5 -186.5t-165.5 -155.5q244 -142 244 -359zM729 1067q0 53 -41 90 t-117 37q-74 0 -115.5 -37t-41.5 -96q0 -53 42 -95t128 -89h2q74 49 108.5 93t34.5 97zM743 378.5q0 63.5 -49 111t-141 94.5h-2q-150 -94 -150 -197q0 -68 47.5 -108.5t124.5 -40.5q76 0 123 38.5t47 102z" />
<glyph unicode="9" horiz-adv-x="1189" d="M1102 469q0 -391 -196.5 -618.5t-592.5 -227.5q-72 0 -143 15v282q70 -25 154 -24q322 0 403 258q10 43 16 65h-2q-94 -94 -262 -94q-190 0 -303 118.5t-113 313.5q0 225 148.5 368.5t380.5 143.5q233 0 371.5 -149.5t138.5 -450.5zM750 596q0 90 -45.5 146.5 t-131.5 56.5q-82 0 -132 -56.5t-50 -140.5q0 -205 178 -205q84 0 132.5 56.5t48.5 142.5z" />
<glyph unicode=":" horiz-adv-x="585" d="M293 928q80 0 137 -57.5t57 -137.5t-57 -137t-137 -57t-136.5 57t-56.5 137t56.5 137.5t136.5 57.5zM293 360q80 0 137 -57t57 -137q0 -78 -57 -135.5t-137 -57.5t-136.5 57.5t-56.5 135.5q0 80 56.5 137t136.5 57z" />
<glyph unicode=";" horiz-adv-x="585" d="M487 733q0 -80 -57 -137t-137 -57t-136.5 57t-56.5 137t56.5 137.5t136.5 57.5t137 -57.5t57 -137.5zM293 352q117 0 168 -110q70 -147 -35 -346q-74 -143 -229 -275l-127 113q104 115 121.5 190.5t-41.5 136.5q-39 55 -40 121t50 118t133 52z" />
<glyph unicode="&#x3c;" horiz-adv-x="1038" d="M82 510l655 620l205 -206l-457 -412l459 -410l-205 -211z" />
<glyph unicode="=" horiz-adv-x="1150" d="M1034 600h-917v250h917v-250zM1034 182h-917v250h917v-250z" />
<glyph unicode="&#x3e;" horiz-adv-x="1038" d="M958 514l-655 -620l-205 206l457 412l-459 410l205 211z" />
<glyph unicode="?" horiz-adv-x="894" d="M817 1049q0 -78 -28.5 -144.5t-70.5 -106.5l-88 -85l-80 -81q-34 -36 -47.5 -94.5t9.5 -125.5h-305q-37 117 -23.5 190.5t60.5 134t98 99t92 86t41 94.5q0 86 -103.5 137t-285.5 53l39 285q344 -10 518 -137t174 -305zM551 152q0 -74 -53.5 -125.5t-131 -51.5t-131 51.5 t-53.5 125.5q0 76 53.5 127t131 51t131 -51t53.5 -127z" />
<glyph unicode="@" horiz-adv-x="1632" d="M1548 836q0 -246 -125 -374t-336 -128q-90 0 -140 43t-50 112h-8q-37 -66 -102.5 -110.5t-145.5 -44.5q-92 0 -143.5 66.5t-51.5 199.5q0 207 113 338t332 131q129 0 229 -41l-59 -326q-16 -88 -3 -122.5t60 -34.5q170 0 170 276q0 158 -102.5 260.5t-313.5 102.5 q-227 0 -381.5 -153.5t-154.5 -395.5q0 -444 483 -445q174 0 334 56v-223q-131 -59 -371 -60q-346 0 -529 173t-183 472q0 354 234.5 578.5t582.5 224.5q303 0 482 -163.5t179 -411.5zM883 881q-23 10 -62 10q-70 0 -113.5 -82t-43.5 -170q0 -96 45 -96q47 0 92 70.5 t69 203.5z" />
<glyph unicode="A" horiz-adv-x="1296" d="M1307 0h-351l-86 256h-477l-84 -256h-317l467 1382h362zM791 508l-97 276q-47 139 -63 230h-4q-23 -121 -66 -246l-90 -260h320z" />
<glyph unicode="B" horiz-adv-x="1200" d="M1128 432q0 -184 -141 -310t-428 -126q-27 0 -174 2t-262 2v1380q211 10 504 11q229 0 354 -88.5t125 -260.5q0 -96 -55.5 -177t-145.5 -122v-6q102 -27 162.5 -113t60.5 -192zM768 993q0 141 -193 142q-55 0 -133 -5v-303q27 -2 95 -2q231 0 231 168zM786 428 q0 80 -62 121t-175 41q-82 0 -107 -2v-326q41 -6 123 -6q104 0 162.5 46t58.5 126z" />
<glyph unicode="C" horiz-adv-x="1136" d="M1057 37q-160 -55 -342.5 -55t-314.5 57t-201.5 156.5t-100 209t-30.5 236.5q0 344 182 548t518 204q150 0 283 -35l-37 -289q-127 37 -252 37q-164 0 -254 -110.5t-90 -301.5q0 -422 360 -422q137 0 242 50z" />
<glyph unicode="D" horiz-adv-x="1351" d="M1286 719q0 -348 -204.5 -538.5t-549.5 -190.5q-156 0 -409 12v1376q217 12 471 13q692 0 692 -672zM944 694q0 209 -83 318.5t-288 109.5q-96 0 -131 -4v-846q53 -8 119 -8q172 0 277.5 108.5t105.5 321.5z" />
<glyph unicode="E" horiz-adv-x="997" d="M901 0h-778v1382h778v-268h-459v-274h435v-260h-435v-306h459v-274z" />
<glyph unicode="F" horiz-adv-x="948" d="M885 1110h-443v-295h418v-262h-418v-553h-319v1382h762v-272z" />
<glyph unicode="G" horiz-adv-x="1372" d="M1255 1343l-49 -294q-176 70 -366 69q-197 0 -313.5 -116.5t-116.5 -319.5q0 -195 101 -305.5t292 -110.5q76 0 131 19v452h319v-669q-221 -90 -485 -91q-334 0 -518 181.5t-184 498.5q0 334 214 540t578 206q198 -1 397 -60z" />
<glyph unicode="H" horiz-adv-x="1390" d="M1268 0h-320v575h-506v-575h-319v1382h319v-530h506v530h320v-1382z" />
<glyph unicode="I" horiz-adv-x="565" d="M442 0h-319v1382h319v-1382z" />
<glyph unicode="J" horiz-adv-x="694" d="M573 403q0 -188 -91 -305.5t-300 -117.5q-100 0 -182 16v270q51 -18 117 -18q70 0 104.5 37t34.5 129v968h317v-979z" />
<glyph unicode="K" horiz-adv-x="1239" d="M1231 0h-414l-375 649v-649h-319v1382h319v-610l379 610h387l-456 -665z" />
<glyph unicode="L" horiz-adv-x="880" d="M860 0h-737v1382h319v-1099h418v-283z" />
<glyph unicode="M" horiz-adv-x="1794" d="M1755 0h-336l-88 569q-25 150 -41 322h-4q-33 -168 -80 -326l-170 -565h-307l-164 516q-66 211 -90 375h-2q-8 -94 -41 -350l-70 -541h-321l221 1382h367l192 -606q41 -129 74 -301h4q23 127 78 303l197 604h360z" />
<glyph unicode="N" horiz-adv-x="1419" d="M1296 0h-407l-326 596q-72 131 -143 303q10 -170 10 -373v-526h-307v1382h409l304 -546q80 -150 168 -340q-14 166 -15 432v454h307v-1382z" />
<glyph unicode="O" horiz-adv-x="1437" d="M1380 713q0 -334 -195.5 -537t-490.5 -203q-315 0 -476 184.5t-161 516.5q0 330 198 532.5t488 202.5q289 0 463 -174t174 -522zM1042 692q0 209 -82.5 317.5t-240.5 108.5q-135 0 -229.5 -106.5t-94.5 -311.5q0 -207 79 -320.5t239 -113.5q131 0 230 105.5t99 320.5z " />
<glyph unicode="P" horiz-adv-x="1097" d="M1061 948q0 -211 -145.5 -351t-399.5 -140q-45 0 -74 2v-459h-319v1382q199 10 393 11q264 0 404.5 -116t140.5 -329zM731 934q0 199 -221 199q-45 0 -68 -3v-405q41 -4 56 -4q102 2 167.5 58.5t65.5 154.5z" />
<glyph unicode="Q" horiz-adv-x="1437" d="M1380 713q0 -334 -195.5 -537t-490.5 -203q-315 0 -476 184.5t-161 516.5q0 330 198 532.5t488 202.5q289 0 463 -174t174 -522zM1434 -440q-125 -16 -212 -17q-65 0 -109 10q-101 22 -244 46q-85 15 -167 14q-55 0 -108 -6v278q74 8 144 9q50 0 97 -5 q114 -10 186.5 -30.5t182.5 -29.5q37 -3 75 -3q76 0 155 12v-278zM1042 692q0 209 -82.5 317.5t-240.5 108.5q-135 0 -229.5 -106.5t-94.5 -311.5q0 -207 79 -320.5t239 -113.5q131 0 230 105.5t99 320.5z" />
<glyph unicode="R" horiz-adv-x="1177" d="M1171 0h-389l-327 541h-13v-541h-319v1382q145 10 432 11q522 0 522 -410q0 -139 -83 -243.5t-222 -139.5l107 -156zM743 956q0 174 -213 174q-51 0 -88 -4v-354q33 -4 80 -4q102 0 161.5 50t59.5 138z" />
<glyph unicode="S" horiz-adv-x="1028" d="M961 442q0 -205 -154 -336t-414 -131q-152 0 -282 31l16 295q139 -51 291 -51q90 0 145 38t55 109q0 55 -40.5 93t-102 58.5t-132.5 52.5t-132 71t-102 116.5t-41 186.5q0 197 146 314.5t402 117.5q123 0 252 -25l-18 -276q-127 37 -246 37q-96 0 -145 -37t-49 -98 q0 -57 56 -98.5t137 -71t163 -70.5t138.5 -123t56.5 -203z" />
<glyph unicode="T" horiz-adv-x="1038" d="M1010 1110h-332v-1110h-318v1110h-331v272h981v-272z" />
<glyph unicode="U" horiz-adv-x="1378" d="M1255 543q0 -287 -152.5 -428.5t-432.5 -141.5q-160 0 -270.5 40t-169 115t-83 161t-24.5 198v895h319v-876q0 -131 54.5 -197.5t193.5 -66.5q135 0 192.5 64.5t57.5 217.5v858h315v-839z" />
<glyph unicode="V" horiz-adv-x="1300" d="M1305 1382l-467 -1382h-373l-469 1382h344l244 -755q47 -143 75 -258h3q35 147 75 276l242 737h326z" />
<glyph unicode="W" horiz-adv-x="1947" d="M1911 1382l-346 -1382h-387l-164 651q-31 127 -51 316h-2q-16 -164 -52 -305l-166 -662h-364l-342 1382h338l162 -673q33 -141 45 -289h2q27 182 53 280l180 682h330l180 -669q35 -129 55 -285h2q23 168 52 291l155 663h320z" />
<glyph unicode="X" horiz-adv-x="1327" d="M1315 0h-402l-262 467l-262 -467h-377l432 705l-407 677h369l251 -448l248 448h363l-400 -680z" />
<glyph unicode="Y" horiz-adv-x="1183" d="M1186 1382l-438 -899v-483h-320v481l-432 901h348l158 -352q55 -123 88 -221h4q27 80 106 250l150 323h336z" />
<glyph unicode="Z" horiz-adv-x="1097" d="M1008 0h-918v250l445 743q31 51 73 107q-74 -4 -217 -4h-287v286h895v-260l-469 -753q-14 -25 -53 -78q27 4 268 4h263v-295z" />
<glyph unicode="[" horiz-adv-x="677" d="M608 -426h-481v2025h481v-249h-188v-1524h188v-252z" />
<glyph unicode="\" horiz-adv-x="854" d="M850 0h-301l-541 1382h299z" />
<glyph unicode="]" horiz-adv-x="677" d="M553 -426h-481v252h186v1524h-186v249h481v-2025z" />
<glyph unicode="^" horiz-adv-x="1095" d="M1004 793l-222 -111l-250 481l-239 -481l-207 106l334 594h235z" />
<glyph unicode="_" horiz-adv-x="1024" d="M1024 -516h-1024v252h1024v-252z" />
<glyph unicode="`" horiz-adv-x="772" d="M678 1317l-103 -182l-421 190l125 217z" />
<glyph unicode="a" horiz-adv-x="1077" d="M961 0h-293q0 102 8 154h-2q-37 -80 -121 -128.5t-191 -48.5q-143 0 -219.5 76t-76.5 203q0 186 159.5 283.5t413.5 97.5v39q0 66 -42 95.5t-140 29.5q-160 0 -297 -74l-25 258q188 59 369 59q252 0 350 -89t98 -275v-438q1 -136 9 -242zM639 410v28q-279 0 -279 -135 q0 -39 28 -63.5t75 -24.5q76 0 126 58.5t50 136.5z" />
<glyph unicode="b" horiz-adv-x="1144" d="M1081 563q0 -260 -148.5 -423t-414.5 -163q-209 0 -397 52v1466h311v-401q0 -111 -14 -203l2 -2q37 70 112.5 110.5t176.5 40.5q180 0 276 -126t96 -351zM752 532q0 248 -140 248q-80 0 -130 -81t-50 -203v-256q43 -12 109 -13q211 0 211 305z" />
<glyph unicode="c" horiz-adv-x="856" d="M795 23q-113 -43 -267 -43q-467 0 -467 497q0 246 135.5 404.5t401.5 158.5q94 0 197 -26l-33 -271q-90 29 -160 29q-106 0 -160.5 -70.5t-54.5 -199.5q0 -119 53.5 -185.5t157.5 -66.5q98 0 172 37z" />
<glyph unicode="d" horiz-adv-x="1142" d="M1022 0h-287q0 82 10 145h-4q-96 -170 -309 -170q-180 0 -275.5 127t-95.5 351q0 258 146.5 421.5t400.5 163.5q53 0 103 -6v463h311v-1495zM711 528v250q-51 12 -107 13q-213 0 -213 -306q0 -250 141 -249q78 0 128.5 82.5t50.5 209.5z" />
<glyph unicode="e" d="M993 569q0 -55 -10 -137h-606q4 -213 252 -213q160 0 299 64l28 -236q-170 -70 -376 -70q-518 0 -519 521q0 242 129 393t361 151q221 0 331.5 -131t110.5 -342zM686 639q2 84 -36 130t-107 46q-68 0 -113 -49t-51 -127h307z" />
<glyph unicode="f" horiz-adv-x="731" d="M756 1497l-21 -254q-55 18 -112 19q-72 0 -105 -37t-33 -117v-90h209v-240h-209v-778h-311v778h-156v240h156v88q0 207 99.5 307t318.5 100q92 0 164 -16z" />
<glyph unicode="g" horiz-adv-x="1136" d="M1075 -92q0 -174 -156.5 -296t-412.5 -122q-211 0 -327 76t-116 225q0 70 43.5 137.5t102.5 98.5q-98 51 -98 157q0 59 34.5 111.5t87.5 71.5q-150 76 -149 278q0 170 123 283.5t346 113.5q92 0 190 -24h342v-246h-110q27 -39 26 -96q0 -170 -116.5 -267.5t-323.5 -97.5 q-37 0 -82 4q-37 -14 -37 -51q0 -31 30 -42t116 -11h139q168 0 258 -75.5t90 -227.5zM705 668q0 70 -43.5 109.5t-118.5 39.5q-74 0 -118 -41t-44 -106q0 -70 43 -110t123 -40q72 0 115 40t43 108zM770 -135q0 104 -131 104h-162q-29 0 -39 2q-68 -45 -67 -118q0 -59 47 -93 t133 -34q104 0 161.5 39t57.5 100z" />
<glyph unicode="h" horiz-adv-x="1163" d="M1040 0h-311v647q0 131 -94 131q-82 0 -142.5 -86t-60.5 -200v-492h-311v1495h311v-408q0 -125 -16 -208h2q100 162 321 161q301 0 301 -321v-719z" />
<glyph unicode="i" horiz-adv-x="555" d="M469 1308.5q0 -75.5 -56.5 -130t-136.5 -54.5q-78 0 -134 54.5t-56 130t56.5 130t133.5 54.5q80 0 136.5 -54.5t56.5 -130zM432 0h-311v1018h311v-1018z" />
<glyph unicode="j" horiz-adv-x="559" d="M473 1308.5q0 -75.5 -56.5 -130t-133.5 -54.5q-80 0 -136.5 54.5t-56.5 130t56.5 130t136.5 54.5q78 0 134 -54.5t56 -130zM438 -51q0 -219 -98 -334t-326 -115q-76 0 -147 21l18 264q57 -23 117 -23q68 0 96.5 35t28.5 117v1104h311v-1069z" />
<glyph unicode="k" horiz-adv-x="1110" d="M1098 0h-389l-277 489v-489h-311v1495h311v-887l258 410h383l-336 -467z" />
<glyph unicode="l" horiz-adv-x="555" d="M432 0h-311v1495h311v-1495z" />
<glyph unicode="m" horiz-adv-x="1757" d="M1636 0h-313v639q0 139 -92 139q-74 0 -136.5 -84t-62.5 -205v-489h-307v639q0 139 -92 139q-78 0 -139.5 -85t-61.5 -204v-489h-311v1018h293q0 -80 -13 -162h2q49 86 134.5 135t191.5 49q223 0 279 -184q43 80 127 132t194 52q307 0 307 -342v-698z" />
<glyph unicode="n" horiz-adv-x="1163" d="M1040 0h-311v647q0 131 -94 131q-82 0 -142.5 -86t-60.5 -198v-494h-311v1018h291q0 -100 -13 -160h2q111 182 338 182q301 0 301 -321v-719z" />
<glyph unicode="o" horiz-adv-x="1142" d="M1083 530q0 -246 -151.5 -399.5t-384.5 -153.5q-231 0 -360.5 123t-129.5 385q0 248 151.5 401.5t387 153.5t361.5 -130t126 -380zM760 512q0 262 -185 262q-82 0 -138 -64.5t-56 -189.5q0 -272 188 -272q86 0 138.5 69.5t52.5 194.5z" />
<glyph unicode="p" horiz-adv-x="1144" d="M1081 565q0 -270 -138 -425.5t-406 -155.5q-61 0 -105 8v-477h-311v1503h287q0 -78 -9 -146h4q90 168 308 168q178 0 274 -126t96 -349zM752 532q0 250 -140 250q-80 0 -130 -82t-50 -211v-249q49 -12 109 -13q211 0 211 305z" />
<glyph unicode="q" horiz-adv-x="1144" d="M1024 -485h-313v415q0 113 14 207l-4 2q-39 -78 -111.5 -121t-167.5 -43q-184 0 -281.5 121t-97.5 355q0 260 147.5 424.5t420.5 164.5q188 0 393 -32v-1493zM711 535v245q-51 10 -107 11q-213 0 -213 -306q0 -250 139 -249q80 0 130.5 83t50.5 216z" />
<glyph unicode="r" horiz-adv-x="729" d="M707 1042l-15 -309q-35 8 -65 8q-81 0 -129 -56q-66 -77 -66 -265v-420h-311v1018h291q0 -92 -15 -180h4q90 206 280 205q13 0 26 -1z" />
<glyph unicode="s" horiz-adv-x="841" d="M776 322q0 -158 -127 -251.5t-342 -93.5q-80 0 -211 17l6 254q109 -33 213 -33q59 0 94 22.5t35 57.5q0 41 -38.5 66.5t-93 45t-110 48t-94 91t-38.5 156.5q0 145 117.5 242.5t332.5 97.5q63 0 178 -16l-6 -244q-80 25 -180 25q-117 0 -117 -78q0 -35 39 -59.5t95.5 -48 t112.5 -54t95 -94t39 -151.5z" />
<glyph unicode="t" horiz-adv-x="772" d="M702 6q-119 -29 -221 -29q-176 0 -243.5 71t-67.5 257v473h-154v240h154v301l311 84v-385h221v-240h-219v-401q0 -78 22.5 -108.5t82.5 -30.5q49 0 114 16v-248z" />
<glyph unicode="u" horiz-adv-x="1159" d="M1040 0h-290q0 100 12 160h-4q-106 -182 -336 -183q-160 0 -231.5 88.5t-71.5 233.5v719h313v-647q0 -131 94 -131q82 0 141.5 86t59.5 198v494h313v-1018z" />
<glyph unicode="v" d="M1065 1018l-375 -1018h-317l-375 1018h342l125 -361q35 -96 74 -247h4q29 133 65 237l125 371h332z" />
<glyph unicode="w" horiz-adv-x="1634" d="M1624 1018l-317 -1018h-332l-113 354q-23 74 -59 244h-2q-18 -92 -66 -256l-102 -342h-314l-309 1018h340l78 -283q51 -182 84 -332h4q25 147 76 318l88 297h289l90 -281q57 -186 86 -334h4q39 205 72 318l84 297h319z" />
<glyph unicode="x" horiz-adv-x="1093" d="M1085 0h-389l-157 311l-158 -311h-371l336 516l-315 502h370l160 -305l162 305h344l-297 -502z" />
<glyph unicode="y" horiz-adv-x="1056" d="M1059 1018l-416 -1106q-88 -238 -190.5 -325t-282.5 -87q-70 0 -152 19l19 266q74 -25 145 -25q57 0 96 33t68 119l29 88l-369 1018h344l103 -297q39 -109 82 -297h2q37 154 96 328l92 266h334z" />
<glyph unicode="z" horiz-adv-x="925" d="M834 0h-744v223l356 518q-57 -4 -184 -4h-160v281h725v-223l-346 -510q33 2 199 2h154v-287z" />
<glyph unicode="{" horiz-adv-x="770" d="M705 -426h-48q-217 0 -312 114.5t-95 379.5v221q0 127 -48 177t-149 54v234q100 4 148.5 49t48.5 172v135q0 256 95 372.5t312 116.5h48v-249q-98 0 -131 -45t-33 -193v-135q0 -309 -189 -338v-4q188 -29 189 -348v-219q0 -150 32.5 -196t131.5 -46v-252z" />
<glyph unicode="|" horiz-adv-x="561" d="M399 -512h-247v2048h247v-2048z" />
<glyph unicode="}" horiz-adv-x="765" d="M721 520q-100 -4 -149.5 -54t-49.5 -177v-221q0 -264 -95 -379t-310 -115h-49v252q98 0 130.5 46t32.5 196v219q0 319 189 348v4q-188 25 -189 336v137q0 147 -32.5 192.5t-130.5 45.5v249h49q215 0 310 -116.5t95 -372.5v-133q0 -129 48 -174t151 -49v-234z" />
<glyph unicode="~" horiz-adv-x="1163" d="M1094 516q-115 -143 -316 -143q-90 0 -225 52t-199 52q-115 0 -196 -82l-92 234q133 125 313 125q98 0 221 -52.5t182 -52.5q106 0 217 94z" />
<glyph unicode="&#xa1;" horiz-adv-x="626" d="M485 864q0 -74 -53 -126t-131 -52q-76 0 -129 52.5t-53 125.5q0 76 52 127t130 51t131 -51t53 -127zM469 -463h-340l33 1069h272z" />
<glyph unicode="&#xa2;" horiz-adv-x="925" d="M834 100q-74 -27 -162 -37v-202h-234v205q-178 25 -269 152.5t-91 326.5q0 193 95 331t265 177v190h234v-174q90 -8 159 -31l-28 -260q-82 39 -174 39q-104 0 -166 -66.5t-62 -187.5q0 -238 220 -237q98 0 190 43z" />
<glyph unicode="&#xa3;" horiz-adv-x="993" d="M887 0h-785v242q98 47 145.5 101t47.5 146q0 29 -12 132h-170v239h145q-20 190 -20 193q0 203 102 300t309 97q92 0 185 -16l-19 -256q-63 14 -125 14q-135 0 -135 -145q0 -47 16 -187h236v-239h-211q6 -47 6 -91q0 -154 -117 -264q129 6 142 6h260v-272z" />
<glyph unicode="&#xa4;" horiz-adv-x="1136" d="M1022 -4q0 -498 -584 -498q-178 0 -319 41l24 285q145 -61 308 -62q135 0 199.5 50.5t64.5 164.5v37q0 76 10 127h-4q-39 -76 -112.5 -118.5t-168.5 -42.5q-184 0 -281.5 121.5t-97.5 351.5q0 260 148.5 423.5t419.5 163.5q188 0 393 -32v-1012zM711 535v243 q-61 12 -107 13q-213 0 -213 -306q0 -246 139 -245q80 0 130.5 82t50.5 213z" />
<glyph unicode="&#xa5;" horiz-adv-x="1243" d="M1221 1382l-369 -725h229v-192h-303v-105h303v-196h-303v-164h-315v164h-305v196h305v105h-305v192h229l-362 725h346l157 -323q43 -88 93 -223h4q29 94 110 249l150 297h336z" />
<glyph unicode="&#xa7;" horiz-adv-x="1067" d="M961 520q0 -88 -42 -170t-106 -129q72 -86 72 -213q0 -143 -126 -250.5t-386 -107.5q-88 0 -172 18l18 266q72 -23 158 -22.5t128 30t42 76.5q0 45 -45 94.5t-110.5 99.5t-131 109.5t-111 149.5t-45.5 195q0 190 146 301q-68 82 -68 204q0 152 120 256.5t368 104.5 q96 0 155 -14l-14 -263q-63 20 -145 21q-147 0 -148 -98q0 -41 45 -90.5t110.5 -102.5t131 -115.5t111 -154t45.5 -195.5zM682 477q0 43 -22.5 85t-45 67.5t-89 87t-99.5 94.5q-41 -37 -41 -106q0 -68 51 -131.5t205 -196.5q41 34 41 100z" />
<glyph unicode="&#xa8;" horiz-adv-x="1118" d="M915 1321q0 -68 -47 -115t-114 -47q-66 0 -114 47t-48 115q0 66 48 114t114 48q68 0 114.5 -48t46.5 -114zM487 1321q0 -68 -47 -115t-114 -47q-66 0 -114 47t-48 115q0 66 48 114t114 48q68 0 114.5 -48t46.5 -114z" />
<glyph unicode="&#xa9;" horiz-adv-x="1566" d="M782 1391q295 0 502 -207t207 -502q0 -293 -208 -501t-501 -208q-297 0 -502.5 207t-205.5 502q0 293 207.5 501t500.5 208zM782 1159q-197 0 -337 -139t-140 -338q0 -197 140.5 -338t336.5 -141q199 0 338.5 140t139.5 339q0 197 -139.5 337t-338.5 140zM989 365 q-90 -45 -213 -46q-150 0 -241 96.5t-91 260.5q0 162 92.5 267.5t268.5 105.5q98 0 174 -35l-37 -201q-39 33 -117 33q-127 0 -127 -166q0 -147 117 -148q74 0 131 29z" />
<glyph unicode="&#xaa;" horiz-adv-x="831" d="M727 641h-229q0 53 8 96h-2q-25 -51 -83.5 -83.5t-123.5 -32.5q-113 0 -170 58t-57 152q0 141 115.5 209t295.5 68v27q0 78 -110 77q-113 0 -230 -55l-24 201q131 47 295 47q168 0 240.5 -67.5t72.5 -176.5q0 -72 -1 -188.5t-1 -159.5q0 -53 4 -172zM481 934v20 q-182 0 -182 -88q0 -25 17.5 -41t48.5 -16q53 0 84.5 39t31.5 86z" />
<glyph unicode="&#xab;" horiz-adv-x="1126" d="M532 825l-165 -313l170 -309l-254 -109l-213 416l219 422zM1026 809l-180 -297l184 -293l-246 -113l-235 404l242 410z" />
<glyph unicode="&#xac;" horiz-adv-x="1181" d="M1075 113h-278v295h-731v254h1009v-549z" />
<glyph unicode="&#xad;" horiz-adv-x="690" d="M602 399h-516v250h516v-250z" />
<glyph unicode="&#xae;" horiz-adv-x="1157" d="M778 866h-164l-57 162h-18v-162h-138v451h207q164 0 164 -131q0 -90 -78 -125q14 -14 27 -49zM616 1169q0 43 -51 43h-26v-90h20q57 0 57 47zM577.5 1407q-131.5 0 -223.5 -92t-92 -223t92 -224.5t223.5 -93.5t223.5 92t92 223.5t-92 224.5t-223.5 93zM578 1579 q209 0 353 -141.5t144 -347.5q0 -203 -145.5 -345.5t-351.5 -142.5q-209 0 -353.5 141.5t-144.5 346t145.5 347t352.5 142.5z" />
<glyph unicode="&#xaf;" horiz-adv-x="649" d="M528 1206h-438v226h438v-226z" />
<glyph unicode="&#xb0;" horiz-adv-x="811" d="M725 1227q0 -145 -100.5 -227t-237.5 -82q-147 0 -231 80.5t-84 222.5q0 139 100 222t231 83q162 0 242 -84t80 -215zM498 1227q0 43 -26 74.5t-71 31.5t-73.5 -30.5t-28.5 -79.5q0 -51 26.5 -81t73.5 -30q45 0 72 32t27 83z" />
<glyph unicode="&#xb1;" horiz-adv-x="1224" d="M1126 535h-364v-365h-297v365h-365v258h365v360h297v-360h364v-258zM1114 -184h-1003v260h1003v-260z" />
<glyph unicode="&#xb2;" horiz-adv-x="985" d="M907 0h-827v254l158 123q176 135 231 191.5t55 115.5q0 121 -153 121q-123 0 -234 -70l-45 264q174 74 354 74q205 0 315.5 -88t110.5 -242q0 -201 -256 -393l-108 -80v-4q119 8 399 8v-274z" />
<glyph unicode="&#xb3;" horiz-adv-x="933" d="M864 100q0 -203 -157.5 -340t-436.5 -137q-115 0 -213 29l27 268q92 -31 192 -31q119 0 184.5 49.5t65.5 133.5q0 104 -107.5 143t-291.5 16v250q379 -2 379 189q0 63 -46 99t-130 36q-121 0 -224 -57l-30 258q150 59 319 59q213 0 326 -94t113 -240q0 -102 -57.5 -184 t-153.5 -127v-2q117 -29 179 -115t62 -203z" />
<glyph unicode="&#xb4;" horiz-adv-x="811" d="M694 1325l-420 -188l-100 180l399 223z" />
<glyph unicode="&#xb5;" horiz-adv-x="1245" d="M1110 0h-293q0 88 6 141h-2q-29 -66 -91 -110.5t-155 -44.5q-80 0 -131 37l-2 -3q4 -82 4 -188v-317h-313v1503h313v-606q0 -98 37 -138.5t111 -40.5q88 0 146.5 81t58.5 210v494h311v-1018z" />
<glyph unicode="&#xb6;" horiz-adv-x="1243" d="M766 55v1327h387v-252h-127v-1327h-397v252h137zM604 1382v-933q-254 0 -381 132t-127 334q0 215 141.5 341t366.5 126z" />
<glyph unicode="&#xb7;" horiz-adv-x="598" d="M299 780q80 0 137.5 -57t57.5 -137t-57.5 -137.5t-137.5 -57.5t-137.5 57.5t-57.5 137.5t57.5 137t137.5 57z" />
<glyph unicode="&#xb8;" horiz-adv-x="819" d="M578 -104q147 -283 -216 -414l-147 117q186 117 80 297h283z" />
<glyph unicode="&#xb9;" horiz-adv-x="706" d="M578 0h-318v756l-194 -80l-48 258l322 119h238v-1053z" />
<glyph unicode="&#xba;" horiz-adv-x="880" d="M811 1022q0 -180 -111.5 -289.5t-281.5 -109.5q-158 0 -255 93t-97 292q0 182 111.5 290.5t277.5 108.5q356 0 356 -385zM565 1018q0 176 -127 176q-53 0 -90 -44t-37 -134q0 -180 123 -180q131 0 131 182z" />
<glyph unicode="&#xbb;" horiz-adv-x="1126" d="M594 201l168 313l-170 309l254 109l213 -416l-219 -422zM100 217l183 297l-187 293l248 113l236 -404l-242 -410z" />
<glyph unicode="&#xbc;" horiz-adv-x="2770" d="M2740 0h-196v-365h-308v365h-530l-49 252l495 807h392v-778h196v-281zM2243 281v477h-3l-284 -482q68 5 287 5zM1762 1456l-852 -1728l-262 114l854 1729zM578 0h-318v756l-194 -80l-48 258l322 119h238v-1053z" />
<glyph unicode="&#xbd;" horiz-adv-x="2607" d="M2529 0h-827v254l158 123q176 135 231 191.5t55 115.5q0 121 -153 121q-123 0 -234 -70l-45 264q174 74 354 74q205 0 315.5 -88t110.5 -242q0 -201 -256 -393l-108 -80v-4q119 8 399 8v-274zM1762 1456l-852 -1728l-262 114l854 1729zM578 0h-318v756l-194 -80l-48 258 l322 119h238v-1053z" />
<glyph unicode="&#xbe;" horiz-adv-x="2998" d="M2967 0h-196v-365h-308v365h-530l-49 252l495 807h392v-778h196v-281zM2470 281v477h-3l-284 -482q68 5 287 5zM1989 1456l-852 -1728l-262 114l854 1729zM864 100q0 -203 -157.5 -340t-436.5 -137q-115 0 -213 29l27 268q92 -31 192 -31q119 0 184.5 49.5t65.5 133.5 q0 104 -107.5 143t-291.5 16v250q379 -2 379 189q0 63 -46 99t-130 36q-121 0 -224 -57l-30 258q150 59 319 59q213 0 326 -94t113 -240q0 -102 -57.5 -184t-153.5 -127v-2q117 -29 179 -115t62 -203z" />
<glyph unicode="&#xbf;" horiz-adv-x="894" d="M713 864q0 -74 -53.5 -126t-131 -52t-131 52.5t-53.5 125.5q0 76 53.5 127t131 51t131 -51t53.5 -127zM809 -190l-39 -283q-344 10 -518 137t-174 303q0 80 28.5 145.5t70.5 106.5l88 86l80 81q34 36 47.5 94.5t-9.5 125.5h303q37 -117 24.5 -190.5t-59.5 -134t-98 -99.5 t-92 -87t-41 -95q0 -84 103.5 -135t285.5 -55z" />
<glyph unicode="&#xc0;" horiz-adv-x="1296" d="M1307 0h-351l-86 256h-477l-84 -256h-317l467 1382h362zM791 508l-97 276q-47 139 -63 230h-4q-23 -121 -66 -246l-90 -260h320zM801 1641l-103 -182l-421 190l125 217z" />
<glyph unicode="&#xc1;" horiz-adv-x="1296" d="M1307 0h-351l-86 256h-477l-84 -256h-317l467 1382h362zM791 508l-97 276q-47 139 -63 230h-4q-23 -121 -66 -246l-90 -260h320zM948 1649l-420 -188l-100 180l399 223z" />
<glyph unicode="&#xc2;" horiz-adv-x="1296" d="M1307 0h-351l-86 256h-477l-84 -256h-317l467 1382h362zM791 508l-97 276q-47 139 -63 230h-4q-23 -121 -66 -246l-90 -260h320zM971 1659l-88 -184l-242 123l-240 -123l-86 182l326 172z" />
<glyph unicode="&#xc3;" horiz-adv-x="1296" d="M1307 0h-351l-86 256h-477l-84 -256h-317l467 1382h362zM791 508l-97 276q-47 139 -63 230h-4q-23 -121 -66 -246l-90 -260h320zM1008 1567q-37 -33 -100.5 -60.5t-119.5 -27.5q-88 0 -175 50t-148 50q-76 0 -141 -66l-56 207q102 92 219 92q78 0 168 -51t150 -51 q84 0 147 64z" />
<glyph unicode="&#xc4;" horiz-adv-x="1296" d="M1307 0h-351l-86 256h-477l-84 -256h-317l467 1382h362zM791 508l-97 276q-47 139 -63 230h-4q-23 -121 -66 -246l-90 -260h320zM1015 1634q0 -68 -47 -115t-114 -47q-66 0 -114 47t-48 115q0 66 48 114t114 48q68 0 114.5 -48t46.5 -114zM587 1634q0 -68 -47 -115 t-114 -47q-66 0 -114 47t-48 115q0 66 48 114t114 48q68 0 114.5 -48t46.5 -114z" />
<glyph unicode="&#xc5;" horiz-adv-x="1296" d="M1307 0h-351l-86 256h-477l-84 -256h-317l467 1382h362zM791 508l-97 276q-47 139 -63 230h-4q-23 -121 -66 -246l-90 -260h320zM922 1587q0 -113 -81 -188.5t-198 -75.5t-197.5 75t-80.5 189.5t80.5 190t197.5 75.5t198 -75.5t81 -190.5zM745 1587q0 43 -29.5 74 t-72.5 31t-72.5 -31t-29.5 -74q0 -41 29.5 -71.5t72.5 -30.5t72.5 30.5t29.5 71.5z" />
<glyph unicode="&#xc6;" horiz-adv-x="1613" d="M1518 0h-770v287h-369l-127 -287h-324l652 1382h925v-268h-452v-274h436v-260h-436v-306h465v-274zM748 535v579h-5q-72 -186 -122 -293l-138 -286h265z" />
<glyph unicode="&#xc7;" horiz-adv-x="1136" d="M1057 37q-160 -55 -342.5 -55t-314.5 57t-201.5 156.5t-100 209t-30.5 236.5q0 344 182 548t518 204q150 0 283 -35l-37 -289q-127 37 -252 37q-164 0 -254 -110.5t-90 -301.5q0 -422 360 -422q137 0 242 50zM805 -104q147 -283 -216 -414l-147 117q186 117 80 297h283z " />
<glyph unicode="&#xc8;" horiz-adv-x="997" d="M901 0h-778v1382h778v-268h-459v-274h435v-260h-435v-306h459v-274zM711 1640l-103 -182l-422 191l125 217z" />
<glyph unicode="&#xc9;" horiz-adv-x="997" d="M901 0h-778v1382h778v-268h-459v-274h435v-260h-435v-306h459v-274zM819 1649l-420 -188l-100 180l399 223z" />
<glyph unicode="&#xca;" horiz-adv-x="997" d="M901 0h-778v1382h778v-268h-459v-274h435v-260h-435v-306h459v-274zM838 1659l-88 -184l-242 122l-240 -122l-86 182l326 172z" />
<glyph unicode="&#xcb;" horiz-adv-x="997" d="M901 0h-778v1382h778v-268h-459v-274h435v-260h-435v-306h459v-274zM886 1634q0 -68 -47 -115t-114 -47q-66 0 -114 47t-48 115q0 66 48 114t114 48q68 0 114.5 -48t46.5 -114zM458 1634q0 -68 -47 -115t-114 -47q-66 0 -114 47t-48 115q0 66 48 114t114 48 q68 0 114.5 -48t46.5 -114z" />
<glyph unicode="&#xcc;" horiz-adv-x="565" d="M442 0h-319v1382h319v-1382zM516 1640l-102 -182l-422 189l125 219z" />
<glyph unicode="&#xcd;" horiz-adv-x="565" d="M442 0h-319v1382h319v-1382zM569 1649l-419 -189l-101 178l400 226z" />
<glyph unicode="&#xce;" horiz-adv-x="565" d="M442 0h-319v1382h319v-1382zM614 1659l-88 -186l-243 124l-240 -124l-84 182l326 174z" />
<glyph unicode="&#xcf;" horiz-adv-x="565" d="M442 0h-319v1382h319v-1382zM655 1634q0 -68 -48 -114.5t-113 -46.5q-68 0 -115 47t-47 114q0 66 47 114t115 48q66 0 113.5 -48t47.5 -114zM227 1634q0 -68 -48 -114.5t-113 -46.5q-68 0 -115 47t-47 114q0 66 47 114t115 48q66 0 113.5 -48t47.5 -114z" />
<glyph unicode="&#xd1;" horiz-adv-x="1419" d="M1296 0h-407l-326 596q-72 131 -143 303q10 -170 10 -373v-526h-307v1382h409l304 -546q80 -150 168 -340q-14 166 -15 432v454h307v-1382zM1067 1567q-37 -33 -100.5 -60.5t-118.5 -27.5q-88 0 -175.5 50t-148.5 50q-76 0 -141 -65l-56 207q102 92 220 92 q80 0 168 -51.5t149 -51.5q84 0 147 64z" />
<glyph unicode="&#xd2;" horiz-adv-x="1437" d="M1380 713q0 -334 -195.5 -537t-490.5 -203q-315 0 -476 184.5t-161 516.5q0 330 198 532.5t488 202.5q289 0 463 -174t174 -522zM1042 692q0 209 -82.5 317.5t-240.5 108.5q-135 0 -229.5 -106.5t-94.5 -311.5q0 -207 79 -320.5t239 -113.5q131 0 230 105.5t99 320.5z M946 1641l-103 -182l-421 190l125 217z" />
<glyph unicode="&#xd3;" horiz-adv-x="1437" d="M1380 713q0 -334 -195.5 -537t-490.5 -203q-315 0 -476 184.5t-161 516.5q0 330 198 532.5t488 202.5q289 0 463 -174t174 -522zM1042 692q0 209 -82.5 317.5t-240.5 108.5q-135 0 -229.5 -106.5t-94.5 -311.5q0 -207 79 -320.5t239 -113.5q131 0 230 105.5t99 320.5z M1073 1649l-420 -188l-100 180l399 223z" />
<glyph unicode="&#xd4;" horiz-adv-x="1437" d="M1380 713q0 -334 -195.5 -537t-490.5 -203q-315 0 -476 184.5t-161 516.5q0 330 198 532.5t488 202.5q289 0 463 -174t174 -522zM1042 692q0 209 -82.5 317.5t-240.5 108.5q-135 0 -229.5 -106.5t-94.5 -311.5q0 -207 79 -320.5t239 -113.5q131 0 230 105.5t99 320.5z M1069 1659l-88 -184l-242 122l-239 -122l-86 182l325 172z" />
<glyph unicode="&#xd5;" horiz-adv-x="1437" d="M1380 713q0 -334 -195.5 -537t-490.5 -203q-315 0 -476 184.5t-161 516.5q0 330 198 532.5t488 202.5q289 0 463 -174t174 -522zM1042 692q0 209 -82.5 317.5t-240.5 108.5q-135 0 -229.5 -106.5t-94.5 -311.5q0 -207 79 -320.5t239 -113.5q131 0 230 105.5t99 320.5z M1100 1575q-37 -33 -100.5 -60.5t-118.5 -27.5q-88 0 -175.5 50t-148.5 50q-76 0 -141 -65l-56 207q102 92 220 92q80 0 168 -51.5t149 -51.5q84 0 147 64z" />
<glyph unicode="&#xd6;" horiz-adv-x="1437" d="M1380 713q0 -334 -195.5 -537t-490.5 -203q-315 0 -476 184.5t-161 516.5q0 330 198 532.5t488 202.5q289 0 463 -174t174 -522zM1042 692q0 209 -82.5 317.5t-240.5 108.5q-135 0 -229.5 -106.5t-94.5 -311.5q0 -207 79 -320.5t239 -113.5q131 0 230 105.5t99 320.5z M1120 1634q0 -68 -47 -115t-114 -47q-66 0 -114 47t-48 115q0 66 48 114t114 48q68 0 114.5 -48t46.5 -114zM692 1634q0 -68 -47 -115t-114 -47q-66 0 -114 47t-48 115q0 66 48 114t114 48q68 0 114.5 -48t46.5 -114z" />
<glyph unicode="&#xd8;" horiz-adv-x="1437" d="M1372 700q0 -324 -193.5 -525.5t-482.5 -201.5q-61 0 -104 9l-68 -199l-229 72l67 194q-305 160 -305 625q0 338 190.5 536.5t487.5 198.5q45 0 88 -6l66 188l227 -69l-61 -183q317 -154 317 -639zM1053 686q0 246 -103 340l-266 -768q37 -6 76 0q125 14 209 121.5 t84 306.5zM729 1116q-45 2 -100 -10q-111 -27 -181.5 -132.5t-70.5 -279.5q0 -236 92 -325z" />
<glyph unicode="&#xd9;" horiz-adv-x="1378" d="M1255 543q0 -287 -152.5 -428.5t-432.5 -141.5q-160 0 -270.5 40t-169 115t-83 161t-24.5 198v895h319v-876q0 -131 54.5 -197.5t193.5 -66.5q135 0 192.5 64.5t57.5 217.5v858h315v-839zM875 1641l-103 -182l-421 190l125 217z" />
<glyph unicode="&#xda;" horiz-adv-x="1378" d="M1255 543q0 -287 -152.5 -428.5t-432.5 -141.5q-160 0 -270.5 40t-169 115t-83 161t-24.5 198v895h319v-876q0 -131 54.5 -197.5t193.5 -66.5q135 0 192.5 64.5t57.5 217.5v858h315v-839zM1020 1649l-420 -188l-100 180l399 223z" />
<glyph unicode="&#xdb;" horiz-adv-x="1378" d="M1255 543q0 -287 -152.5 -428.5t-432.5 -141.5q-160 0 -270.5 40t-169 115t-83 161t-24.5 198v895h319v-876q0 -131 54.5 -197.5t193.5 -66.5q135 0 192.5 64.5t57.5 217.5v858h315v-839zM1018 1659l-88 -184l-242 122l-239 -122l-87 182l326 172z" />
<glyph unicode="&#xdc;" horiz-adv-x="1378" d="M1255 543q0 -287 -152.5 -428.5t-432.5 -141.5q-160 0 -270.5 40t-169 115t-83 161t-24.5 198v895h319v-876q0 -131 54.5 -197.5t193.5 -66.5q135 0 192.5 64.5t57.5 217.5v858h315v-839zM1047 1634q0 -68 -47.5 -114.5t-114.5 -46.5q-66 0 -114 47t-48 114q0 66 48 114 t114 48q68 0 115 -48t47 -114zM618 1634q0 -68 -47 -114.5t-114 -46.5q-66 0 -114 47t-48 114q0 66 48 114t114 48q68 0 114.5 -48t46.5 -114z" />
<glyph unicode="&#xdd;" horiz-adv-x="1183" d="M1009 1720l-420 -188l-100 180l399 223zM1186 1382l-438 -899v-483h-320v481l-432 901h348l158 -352q55 -123 88 -221h4q27 80 106 250l150 323h336z" />
<glyph unicode="&#xdf;" horiz-adv-x="1263" d="M1212 332q0 -162 -121.5 -260.5t-312.5 -98.5q-139 0 -227 35l12 252q90 -47 191 -47q133 0 133 90q0 41 -35 74t-85 61.5t-99.5 63.5t-84 99.5t-34.5 150.5q0 80 31.5 143t70.5 96t71 81t32 102q0 98 -129 98q-90 0 -141.5 -64.5t-51.5 -189.5v-1018h-311v1004 q0 260 144.5 384.5t369.5 124.5q201 0 323.5 -85t122.5 -236q0 -86 -33.5 -148.5t-73.5 -91t-74 -69.5t-34 -90q0 -41 36 -75t86 -64.5t101.5 -67.5t87 -102.5t35.5 -151.5z" />
<glyph unicode="&#xe0;" horiz-adv-x="1077" d="M961 0h-293q0 102 8 154h-2q-37 -80 -121 -128.5t-191 -48.5q-143 0 -219.5 76t-76.5 203q0 186 159.5 283.5t413.5 97.5v39q0 66 -42 95.5t-140 29.5q-160 0 -297 -74l-25 258q188 59 369 59q252 0 350 -89t98 -275v-438q1 -136 9 -242zM639 410v28q-279 0 -279 -135 q0 -39 28 -63.5t75 -24.5q76 0 126 58.5t50 136.5zM772 1317l-102 -182l-422 190l125 217z" />
<glyph unicode="&#xe1;" horiz-adv-x="1077" d="M961 0h-293q0 102 8 154h-2q-37 -80 -121 -128.5t-191 -48.5q-143 0 -219.5 76t-76.5 203q0 186 159.5 283.5t413.5 97.5v39q0 66 -42 95.5t-140 29.5q-160 0 -297 -74l-25 258q188 59 369 59q252 0 350 -89t98 -275v-438q1 -136 9 -242zM639 410v28q-279 0 -279 -135 q0 -39 28 -63.5t75 -24.5q76 0 126 58.5t50 136.5zM860 1325l-420 -188l-100 180l399 223z" />
<glyph unicode="&#xe2;" horiz-adv-x="1077" d="M961 0h-293q0 102 8 154h-2q-37 -80 -121 -128.5t-191 -48.5q-143 0 -219.5 76t-76.5 203q0 186 159.5 283.5t413.5 97.5v39q0 66 -42 95.5t-140 29.5q-160 0 -297 -74l-25 258q188 59 369 59q252 0 350 -89t98 -275v-438q1 -136 9 -242zM639 410v28q-279 0 -279 -135 q0 -39 28 -63.5t75 -24.5q76 0 126 58.5t50 136.5zM873 1335l-88 -184l-242 123l-240 -123l-86 182l326 172z" />
<glyph unicode="&#xe3;" horiz-adv-x="1077" d="M961 0h-293q0 102 8 154h-2q-37 -80 -121 -128.5t-191 -48.5q-143 0 -219.5 76t-76.5 203q0 186 159.5 283.5t413.5 97.5v39q0 66 -42 95.5t-140 29.5q-160 0 -297 -74l-25 258q188 59 369 59q252 0 350 -89t98 -275v-438q1 -136 9 -242zM639 410v28q-279 0 -279 -135 q0 -39 28 -63.5t75 -24.5q76 0 126 58.5t50 136.5zM905 1243q-37 -33 -100.5 -60.5t-118.5 -27.5q-88 0 -175.5 50t-148.5 50q-76 0 -141 -65l-56 207q102 92 220 92q80 0 168 -51.5t149 -51.5q84 0 147 64z" />
<glyph unicode="&#xe4;" horiz-adv-x="1077" d="M961 0h-293q0 102 8 154h-2q-37 -80 -121 -128.5t-191 -48.5q-143 0 -219.5 76t-76.5 203q0 186 159.5 283.5t413.5 97.5v39q0 66 -42 95.5t-140 29.5q-160 0 -297 -74l-25 258q188 59 369 59q252 0 350 -89t98 -275v-438q1 -136 9 -242zM639 410v28q-279 0 -279 -135 q0 -39 28 -63.5t75 -24.5q76 0 126 58.5t50 136.5zM915 1321q0 -68 -47 -115t-114 -47q-66 0 -114 47t-48 115q0 66 48 114t114 48q68 0 114.5 -48t46.5 -114zM487 1321q0 -68 -47 -115t-114 -47q-66 0 -114 47t-48 115q0 66 48 114t114 48q68 0 114.5 -48t46.5 -114z" />
<glyph unicode="&#xe5;" horiz-adv-x="1077" d="M961 0h-293q0 102 8 154h-2q-37 -80 -121 -128.5t-191 -48.5q-143 0 -219.5 76t-76.5 203q0 186 159.5 283.5t413.5 97.5v39q0 66 -42 95.5t-140 29.5q-160 0 -297 -74l-25 258q188 59 369 59q252 0 350 -89t98 -275v-438q1 -136 9 -242zM639 410v28q-279 0 -279 -135 q0 -39 28 -63.5t75 -24.5q76 0 126 58.5t50 136.5zM813 1372q0 -113 -81 -188.5t-197.5 -75.5t-197.5 74.5t-81 189.5t81 190.5t197.5 75.5t197.5 -75.5t81 -190.5zM637 1372q0 43 -29.5 74t-72.5 31t-73 -31t-30 -74q0 -41 30 -71.5t73 -30.5t72.5 30.5t29.5 71.5z" />
<glyph unicode="&#xe6;" horiz-adv-x="1630" d="M1561 569q0 -76 -11 -137h-606q4 -213 252 -213q160 0 301 64l27 -236q-170 -70 -377 -70q-309 0 -428 193l-2 -4q-125 -188 -361 -189q-141 0 -215.5 76t-74.5 203q0 186 159.5 283.5t413.5 97.5v39q0 63 -42 94t-140 31q-160 0 -297 -74l-25 258q188 59 367 59 q225 0 334 -102h2q104 100 282 100q219 0 330 -131t111 -342zM1255 639q2 84 -35.5 130t-107.5 46q-68 0 -113 -48t-53 -128h309zM639 410v28q-279 0 -279 -135q0 -41 27 -64.5t76 -23.5q76 0 126 58.5t50 136.5z" />
<glyph unicode="&#xe7;" horiz-adv-x="856" d="M795 23q-113 -43 -267 -43q-467 0 -467 497q0 246 135.5 404.5t401.5 158.5q94 0 197 -26l-33 -271q-90 29 -160 29q-106 0 -160.5 -70.5t-54.5 -199.5q0 -119 53.5 -185.5t157.5 -66.5q98 0 172 37zM627 -104q147 -283 -216 -414l-147 117q186 117 80 297h283z" />
<glyph unicode="&#xe8;" d="M993 569q0 -55 -10 -137h-606q4 -213 252 -213q160 0 299 64l28 -236q-170 -70 -376 -70q-518 0 -519 521q0 242 129 393t361 151q221 0 331.5 -131t110.5 -342zM686 639q2 84 -36 130t-107 46q-68 0 -113 -49t-51 -127h307zM776 1317l-102 -182l-422 190l125 217z" />
<glyph unicode="&#xe9;" d="M993 569q0 -55 -10 -137h-606q4 -213 252 -213q160 0 299 64l28 -236q-170 -70 -376 -70q-518 0 -519 521q0 242 129 393t361 151q221 0 331.5 -131t110.5 -342zM686 639q2 84 -36 130t-107 46q-68 0 -113 -49t-51 -127h307zM876 1325l-420 -188l-100 180l399 223z" />
<glyph unicode="&#xea;" d="M993 569q0 -55 -10 -137h-606q4 -213 252 -213q160 0 299 64l28 -236q-170 -70 -376 -70q-518 0 -519 521q0 242 129 393t361 151q221 0 331.5 -131t110.5 -342zM686 639q2 84 -36 130t-107 46q-68 0 -113 -49t-51 -127h307zM875 1335l-88 -184l-242 123l-240 -123 l-86 182l326 172z" />
<glyph unicode="&#xeb;" d="M993 569q0 -55 -10 -137h-606q4 -213 252 -213q160 0 299 64l28 -236q-170 -70 -376 -70q-518 0 -519 521q0 242 129 393t361 151q221 0 331.5 -131t110.5 -342zM686 639q2 84 -36 130t-107 46q-68 0 -113 -49t-51 -127h307zM928 1321q0 -68 -47 -115t-115 -47 q-66 0 -114 47t-48 115q0 66 48 114t114 48q68 0 115 -48t47 -114zM500 1321q0 -68 -47 -115t-115 -47q-66 0 -114 47t-48 115q0 66 48 114t114 48q68 0 115 -48t47 -114z" />
<glyph unicode="&#xec;" horiz-adv-x="555" d="M434 0h-311v1018h311v-1018zM524 1317l-102 -182l-422 190l125 217z" />
<glyph unicode="&#xed;" horiz-adv-x="555" d="M434 0h-311v1018h311v-1018zM553 1325l-420 -188l-100 180l399 223z" />
<glyph unicode="&#xee;" horiz-adv-x="555" d="M434 0h-311v1018h311v-1018zM606 1335l-90 -184l-242 123l-239 -123l-84 182l323 172z" />
<glyph unicode="&#xef;" horiz-adv-x="555" d="M434 0h-311v1018h311v-1018zM657 1321q0 -68 -48 -115t-113 -47q-68 0 -115 47t-47 115q0 66 47 114t115 48q66 0 113.5 -48t47.5 -114zM229 1321q0 -68 -48 -115t-113 -47q-68 0 -115 47t-47 115q0 66 47 114t115 48q66 0 113.5 -48t47.5 -114z" />
<glyph unicode="&#xf1;" horiz-adv-x="1163" d="M1040 0h-311v647q0 131 -94 131q-82 0 -142.5 -86t-60.5 -198v-494h-311v1018h291q0 -100 -13 -160h2q111 182 338 182q301 0 301 -321v-719zM930 1243q-37 -33 -100.5 -60.5t-118.5 -27.5q-88 0 -175.5 50t-148.5 50q-76 0 -141 -65l-56 207q102 92 220 92 q80 0 168 -51.5t149 -51.5q84 0 147 64z" />
<glyph unicode="&#xf2;" horiz-adv-x="1142" d="M1083 530q0 -246 -151.5 -399.5t-384.5 -153.5q-231 0 -360.5 123t-129.5 385q0 248 151.5 401.5t387 153.5t361.5 -130t126 -380zM760 512q0 262 -185 262q-82 0 -138 -64.5t-56 -189.5q0 -272 188 -272q86 0 138.5 69.5t52.5 194.5zM803 1317l-103 -182l-421 190 l124 217z" />
<glyph unicode="&#xf3;" horiz-adv-x="1142" d="M1083 530q0 -246 -151.5 -399.5t-384.5 -153.5q-231 0 -360.5 123t-129.5 385q0 248 151.5 401.5t387 153.5t361.5 -130t126 -380zM760 512q0 262 -185 262q-82 0 -138 -64.5t-56 -189.5q0 -272 188 -272q86 0 138.5 69.5t52.5 194.5zM901 1325l-420 -188l-100 180 l399 223z" />
<glyph unicode="&#xf4;" horiz-adv-x="1142" d="M1083 530q0 -246 -151.5 -399.5t-384.5 -153.5q-231 0 -360.5 123t-129.5 385q0 248 151.5 401.5t387 153.5t361.5 -130t126 -380zM760 512q0 262 -185 262q-82 0 -138 -64.5t-56 -189.5q0 -272 188 -272q86 0 138.5 69.5t52.5 194.5zM914 1335l-88 -184l-242 123 l-240 -123l-86 182l326 172z" />
<glyph unicode="&#xf5;" horiz-adv-x="1142" d="M1083 530q0 -246 -151.5 -399.5t-384.5 -153.5q-231 0 -360.5 123t-129.5 385q0 248 151.5 401.5t387 153.5t361.5 -130t126 -380zM760 512q0 262 -185 262q-82 0 -138 -64.5t-56 -189.5q0 -272 188 -272q86 0 138.5 69.5t52.5 194.5zM957 1243q-37 -33 -100.5 -60.5 t-118.5 -27.5q-88 0 -175.5 50t-148.5 50q-76 0 -141 -65l-56 207q102 92 220 92q80 0 168 -51.5t149 -51.5q84 0 147 64z" />
<glyph unicode="&#xf6;" horiz-adv-x="1142" d="M1083 530q0 -246 -151.5 -399.5t-384.5 -153.5q-231 0 -360.5 123t-129.5 385q0 248 151.5 401.5t387 153.5t361.5 -130t126 -380zM760 512q0 262 -185 262q-82 0 -138 -64.5t-56 -189.5q0 -272 188 -272q86 0 138.5 69.5t52.5 194.5zM961 1321q0 -68 -47.5 -115 t-114.5 -47q-66 0 -114 47t-48 115q0 66 48 114t114 48q68 0 115 -48t47 -114zM532 1321q0 -68 -47 -115t-114 -47q-66 0 -114 47t-48 115q0 66 48 114t114 48q68 0 114.5 -48t46.5 -114z" />
<glyph unicode="&#xf7;" horiz-adv-x="1261" d="M815 938q0 -76 -54 -130t-130 -54t-130.5 54t-54.5 130t54.5 130t130.5 54t130 -54t54 -130zM1161 397h-1061v262h1061v-262zM815 117q0 -76 -54 -130.5t-130 -54.5t-130.5 54.5t-54.5 130.5t54.5 130t130.5 54t130 -54t54 -130z" />
<glyph unicode="&#xf8;" horiz-adv-x="1130" d="M1069 528q0 -248 -147.5 -401.5t-378.5 -153.5q-39 0 -92 9l-80 -203l-172 53l77 201q-221 121 -221 461q0 252 147.5 401t381.5 149q6 0 86 -6l71 189l174 -51l-73 -185q227 -117 227 -463zM782 518q0 127 -51 193l-184 -478q37 -4 59 -2q78 12 127 85t49 202zM571 788 q-16 2 -51 -2q-76 -14 -126 -83.5t-50 -192.5t49 -184z" />
<glyph unicode="&#xf9;" horiz-adv-x="1159" d="M1040 0h-290q0 100 12 160h-4q-106 -182 -336 -183q-160 0 -231.5 88.5t-71.5 233.5v719h313v-647q0 -131 94 -131q82 0 141.5 86t59.5 198v494h313v-1018zM784 1317l-102 -182l-422 190l125 217z" />
<glyph unicode="&#xfa;" horiz-adv-x="1159" d="M1040 0h-290q0 100 12 160h-4q-106 -182 -336 -183q-160 0 -231.5 88.5t-71.5 233.5v719h313v-647q0 -131 94 -131q82 0 141.5 86t59.5 198v494h313v-1018zM893 1325l-420 -188l-100 180l399 223z" />
<glyph unicode="&#xfb;" horiz-adv-x="1159" d="M1040 0h-290q0 100 12 160h-4q-106 -182 -336 -183q-160 0 -231.5 88.5t-71.5 233.5v719h313v-647q0 -131 94 -131q82 0 141.5 86t59.5 198v494h313v-1018zM903 1335l-88 -184l-242 123l-240 -123l-86 182l326 172z" />
<glyph unicode="&#xfc;" horiz-adv-x="1159" d="M1040 0h-290q0 100 12 160h-4q-106 -182 -336 -183q-160 0 -231.5 88.5t-71.5 233.5v719h313v-647q0 -131 94 -131q82 0 141.5 86t59.5 198v494h313v-1018zM940 1321q0 -68 -47 -115t-115 -47q-66 0 -114 47t-48 115q0 66 48.5 114t113.5 48q68 0 115 -48t47 -114z M512 1321q0 -68 -47 -115t-115 -47q-66 0 -114 47t-48 115q0 66 48.5 114t113.5 48q68 0 115 -48t47 -114z" />
<glyph unicode="&#xfd;" horiz-adv-x="1056" d="M952 1352l-420 -188l-100 180l399 223zM1059 1018l-416 -1106q-88 -238 -190.5 -325t-282.5 -87q-70 0 -152 19l19 266q74 -25 145 -25q57 0 96 33t68 119l29 88l-369 1018h344l103 -297q39 -109 82 -297h2q37 154 96 328l92 266h334z" />
<glyph unicode="&#xff;" horiz-adv-x="1056" d="M1059 1018l-416 -1106q-88 -238 -190.5 -325t-282.5 -87q-70 0 -152 19l19 266q74 -25 145 -25q57 0 96 33t68 119l29 88l-369 1018h344l103 -297q39 -109 82 -297h2q37 154 96 328l92 266h334zM899 1321q0 -68 -47 -115t-114 -47q-66 0 -114 47t-48 115q0 66 48 114 t114 48q68 0 114.5 -48t46.5 -114zM471 1321q0 -68 -47 -115t-114 -47q-66 0 -114 47t-48 115q0 66 48 114t114 48q68 0 114.5 -48t46.5 -114z" />
<glyph unicode="&#x152;" horiz-adv-x="1662" d="M1565 0h-559q-59 0 -163 -9t-165 -9q-305 0 -463 185t-158 507q0 326 189.5 524.5t468.5 198.5q66 0 149.5 -7.5t126.5 -7.5h574v-268h-459v-274h436v-260h-436v-306h459v-274zM803 276v828q-41 8 -92 8q-139 0 -230.5 -112.5t-91.5 -301.5q0 -207 81 -319.5t239 -112.5 q53 0 94 10z" />
<glyph unicode="&#x153;" horiz-adv-x="1742" d="M1673 569q0 -76 -10 -137h-606q4 -213 252 -213q162 0 301 64l26 -236q-170 -70 -376 -70q-254 0 -381 140q-55 -61 -145.5 -100.5t-196.5 -39.5q-479 0 -480 521q0 246 147.5 394t377.5 148q219 0 333 -122q121 125 316 124q221 0 331.5 -131t110.5 -342zM1368 639 q2 84 -37 130t-108 46q-68 0 -113 -49t-51 -127h309zM754 512q0 139 -45 203.5t-148 64.5q-82 0 -140.5 -65.5t-58.5 -204.5q0 -137 45.5 -203.5t149.5 -66.5q90 0 143.5 71.5t53.5 200.5z" />
<glyph unicode="&#x178;" horiz-adv-x="1183" d="M1186 1382l-438 -899v-483h-320v481l-432 901h348l158 -352q55 -123 88 -221h4q27 80 106 250l150 323h336zM954 1634q0 -68 -47 -114.5t-114 -46.5q-66 0 -114 47t-48 114q0 66 48 114t114 48q68 0 114.5 -48t46.5 -114zM526 1634q0 -68 -47 -114.5t-114 -46.5 q-66 0 -114 47t-48 114q0 66 48 114t114 48q68 0 114.5 -48t46.5 -114z" />
<glyph unicode="&#x2c6;" horiz-adv-x="864" d="M760 1335l-88 -184l-242 123l-240 -123l-86 182l326 172z" />
<glyph unicode="&#x2dc;" horiz-adv-x="917" d="M842 1243q-37 -33 -100.5 -60.5t-118.5 -27.5q-88 0 -175.5 50t-148.5 50q-76 0 -141 -65l-56 207q102 92 220 92q80 0 168 -51.5t149 -51.5q84 0 147 64z" />
<glyph unicode="&#x3bc;" horiz-adv-x="1245" d="M1110 0h-293q0 88 6 141h-2q-29 -66 -91 -110.5t-155 -44.5q-80 0 -131 37l-2 -3q4 -82 4 -188v-317h-313v1503h313v-606q0 -98 37 -138.5t111 -40.5q88 0 146.5 81t58.5 210v494h311v-1018z" />
<glyph unicode="&#x2000;" horiz-adv-x="966" />
<glyph unicode="&#x2001;" horiz-adv-x="1935" />
<glyph unicode="&#x2002;" horiz-adv-x="966" />
<glyph unicode="&#x2003;" horiz-adv-x="1935" />
<glyph unicode="&#x2004;" horiz-adv-x="645" />
<glyph unicode="&#x2005;" horiz-adv-x="483" />
<glyph unicode="&#x2006;" horiz-adv-x="321" />
<glyph unicode="&#x2007;" horiz-adv-x="321" />
<glyph unicode="&#x2008;" horiz-adv-x="241" />
<glyph unicode="&#x2009;" horiz-adv-x="387" />
<glyph unicode="&#x200a;" horiz-adv-x="106" />
<glyph unicode="&#x2010;" horiz-adv-x="690" d="M602 399h-516v250h516v-250z" />
<glyph unicode="&#x2011;" horiz-adv-x="690" d="M602 399h-516v250h516v-250z" />
<glyph unicode="&#x2012;" horiz-adv-x="690" d="M602 399h-516v250h516v-250z" />
<glyph unicode="&#x2013;" horiz-adv-x="1024" d="M1024 455h-1024v274h1024v-274z" />
<glyph unicode="&#x2014;" horiz-adv-x="2048" d="M2048 455h-2048v274h2048v-274z" />
<glyph unicode="&#x2018;" horiz-adv-x="577" d="M381 1554l127 -112q-104 -113 -121.5 -188.5t41.5 -139.5q39 -55 40 -120.5t-50 -118t-133 -52.5q-117 0 -168 111q-70 147 35 346q73 143 229 274z" />
<glyph unicode="&#x2019;" horiz-adv-x="577" d="M195 803l-127 115q106 113 122.5 188.5t-40.5 138.5q-41 55 -42.5 121t51 118t132.5 52q117 0 170 -111q68 -145 -35 -344q-75 -145 -231 -278z" />
<glyph unicode="&#x201a;" horiz-adv-x="577" d="M195 -379l-127 113q106 113 122.5 189.5t-40.5 137.5q-41 55 -42.5 121t51 118t132.5 52q117 0 170 -110q68 -145 -37 -346q-73 -144 -229 -275z" />
<glyph unicode="&#x201c;" d="M995 1442q-106 -113 -123.5 -188.5t41.5 -139.5q41 -55 42 -120.5t-51 -118t-132 -52.5q-117 0 -170 111q-68 145 37 346q74 143 229 274zM508 1442q-104 -113 -121.5 -188.5t41.5 -139.5q39 -55 40 -120.5t-50 -118t-133 -52.5q-117 0 -168 111q-70 147 35 346 q74 143 229 274z" />
<glyph unicode="&#x201d;" d="M195 803l-127 115q106 113 122.5 188.5t-40.5 138.5q-41 55 -42.5 121t51 118t132.5 52q117 0 170 -111q68 -145 -35 -344q-75 -145 -231 -278zM680 803l-127 115q106 113 123.5 188.5t-41.5 138.5q-39 55 -40 121t50 118t133 52q115 0 168 -111q68 -145 -35 -344 q-75 -145 -231 -278z" />
<glyph unicode="&#x201e;" d="M195 -379l-127 113q106 113 122.5 189.5t-40.5 137.5q-41 55 -42.5 121t51 118t132.5 52q117 0 170 -110q68 -145 -37 -346q-73 -144 -229 -275zM680 -379l-127 113q106 115 123.5 190.5t-41.5 136.5q-39 55 -40 121t50 118t133 52q117 0 168 -110q68 -145 -37 -346 q-73 -144 -229 -275z" />
<glyph unicode="&#x2022;" horiz-adv-x="874" d="M434 948q139 0 239.5 -100t100.5 -240q0 -141 -100.5 -241.5t-239.5 -100.5q-141 0 -240.5 100.5t-99.5 241.5q0 139 99.5 239.5t240.5 100.5z" />
<glyph unicode="&#x2026;" horiz-adv-x="1560" d="M274.5 342q75.5 0 130 -53t54.5 -129t-54.5 -130.5t-130.5 -54.5q-78 0 -131 53.5t-53 131.5q0 76 54.5 129t130 53zM776 342q76 0 130.5 -53t54.5 -129q0 -78 -54.5 -131.5t-130.5 -53.5t-130 54.5t-54 130.5t54 129t130 53zM1280 342q76 0 130 -53t54 -129t-54 -130.5 t-130 -54.5t-130 53.5t-54 131.5q0 76 54 129t130 53z" />
<glyph unicode="&#x202f;" horiz-adv-x="387" />
<glyph unicode="&#x2039;" horiz-adv-x="638" d="M539 817l-177 -305l179 -301l-250 -113l-225 412l231 418z" />
<glyph unicode="&#x203a;" horiz-adv-x="638" d="M573 516l-231 -418l-242 111l176 305l-180 301l252 113z" />
<glyph unicode="&#x2044;" horiz-adv-x="915" d="M1055 1456l-852 -1728l-262 114l854 1729z" />
<glyph unicode="&#x205f;" horiz-adv-x="483" />
<glyph unicode="&#x2122;" horiz-adv-x="1398" d="M1348 807h-228l-30 213l-11 88l-14 -84l-51 -217h-195l-51 223l-14 78l-4 -74l-31 -227h-205l94 575h252l55 -208l15 -78l12 73l51 213h256zM510 1194h-125v-387h-215v387h-131v188h471v-188z" />
<glyph unicode="&#xe000;" horiz-adv-x="1020" d="M0 1020h1020v-1020h-1020v1020z" />
<glyph unicode="&#xfb01;" horiz-adv-x="1226" d="M1106 0h-313v778h-308v-778h-311v778h-156v240h156v31q0 236 127 352.5t393 116.5q154 0 336 -39l-51 -258q-135 39 -252 39q-127 0 -184.5 -48.5t-57.5 -148.5v-45h621v-1018z" />
<glyph unicode="&#xfb02;" horiz-adv-x="1226" d="M1106 0h-313v1251q-66 10 -121 11q-186 0 -187 -166v-78h191v-240h-191v-778h-311v778h-156v240h156v86q0 190 127 302t397 112q168 0 408 -39v-1479z" />
<glyph unicode="&#xfb03;" horiz-adv-x="2017" d="M1931 1308.5q0 -75.5 -56.5 -130t-136.5 -54.5q-78 0 -134 54.5t-56 130t56.5 130t133.5 54.5q80 0 136.5 -54.5t56.5 -130zM1894 0h-311v1018h311v-1018zM1487 1497l-21 -254q-55 18 -112 19q-72 0 -105 -37t-33 -117v-90h209v-240h-209v-778h-311v778h-156v240h156v88 q0 207 99.5 307t318.5 100q92 0 164 -16zM756 1497l-21 -254q-55 18 -112 19q-72 0 -105 -37t-33 -117v-90h209v-240h-209v-778h-311v778h-156v240h156v88q0 207 99.5 307t318.5 100q92 0 164 -16z" />
<glyph unicode="&#xfb04;" horiz-adv-x="2017" d="M1894 0h-311v1495h311v-1495zM1487 1497l-21 -254q-55 18 -112 19q-72 0 -105 -37t-33 -117v-90h209v-240h-209v-778h-311v778h-156v240h156v88q0 207 99.5 307t318.5 100q92 0 164 -16zM756 1497l-21 -254q-55 18 -112 19q-72 0 -105 -37t-33 -117v-90h209v-240h-209 v-778h-311v778h-156v240h156v88q0 207 99.5 307t318.5 100q92 0 164 -16z" />
</font>
</defs>
</svg>
