<?xml version="1.0" standalone="no"?>
<!DOCTYPE svg PUBLIC "-//W3C//DTD SVG 1.1//EN" "http://www.w3.org/Graphics/SVG/1.1/DTD/svg11.dtd" >
<svg xmlns="http://www.w3.org/2000/svg">
<metadata>
This is a custom SVG webfont generated by Font Squirrel.
Copyright   : c Luc as  de Groot 1994
</metadata>
<defs>
<font id="webfontvVl1TbWM" horiz-adv-x="1062" >
<font-face units-per-em="2048" ascent="1638" descent="-410" />
<missing-glyph horiz-adv-x="446" />
<glyph unicode=" "  horiz-adv-x="446" />
<glyph unicode="&#x09;" horiz-adv-x="446" />
<glyph unicode="&#xa0;" horiz-adv-x="446" />
<glyph unicode="!" horiz-adv-x="612" d="M383 1434l-25 -1119h-104l-25 1119h154zM305 178q41 0 69.5 -27.5t28.5 -68.5t-28.5 -69.5t-69.5 -28.5t-68.5 28.5t-27.5 69.5t28.5 68.5t67.5 27.5z" />
<glyph unicode="&#x22;" horiz-adv-x="692" d="M264 1501l-26 -436h-95l-24 436h145zM573 1501l-24 -436h-94l-25 436h143z" />
<glyph unicode="#" horiz-adv-x="1376" d="M1255 412h-323l-43 -412h-109l43 412h-334l-43 -412h-108l45 412h-320v90h328l45 430h-315v90h325l39 360h109l-39 -360h334l37 360h108l-37 -360h314v-90h-324l-45 -430h313v-90zM834 502l45 430h-334l-45 -430h334z" />
<glyph unicode="$" horiz-adv-x="995" d="M870 354q0 -141 -91 -240.5t-255 -123.5v-279h-100v273q-143 2 -260 32l8 127q115 -47 272 -47q133 0 214 57.5t81 178.5q0 86 -62.5 142t-150.5 91l-177 74t-151.5 113.5t-62.5 187.5q0 131 91 222t243 108v223h102v-217q115 -2 220 -25l-9 -121q-121 37 -233 37 q-150 0 -218.5 -60t-68.5 -149q0 -82 62.5 -139t151.5 -92t179 -75t152.5 -114.5t62.5 -183.5z" />
<glyph unicode="%" horiz-adv-x="1613" d="M723 1090q0 -160 -96.5 -253.5t-231.5 -93.5q-133 0 -216 77t-83 239t95.5 253t226.5 91q139 0 222 -74.5t83 -238.5zM600 1077q0 227 -190 228q-82 0 -135.5 -63.5t-53.5 -166.5q0 -233 185 -233q88 0 141 63t53 172zM1315 1360l-963 -1403l-90 66l961 1402zM1487 326 q0 -160 -96.5 -253t-231.5 -93q-133 0 -216 76.5t-83 238.5t95.5 253t226.5 91q137 0 221 -74.5t84 -238.5zM1364 313q0 227 -193 228q-82 0 -135 -63.5t-53 -166.5q0 -233 184 -233q90 0 143.5 63t53.5 172z" />
<glyph unicode="&#x26;" horiz-adv-x="1626" d="M1491 66l-82 -103q-170 119 -297 227q-229 -209 -549 -208q-203 0 -319.5 109.5t-116.5 285.5q0 137 76 241.5t227 223.5q-115 133 -158 216t-43 165q0 125 88.5 207.5t243.5 82.5q143 0 222 -72.5t79 -187.5q0 -106 -60.5 -203.5t-201.5 -205.5q236 -262 510 -486v-2 q170 227 150 551h131q12 -365 -191 -622q174 -139 291 -219zM733 1235q0 78 -46 127t-140 49q-86 0 -138.5 -50t-52.5 -134q0 -109 174 -307q104 84 153.5 156.5t49.5 158.5zM1026 262q-311 260 -524 504q-131 -102 -187.5 -188t-56.5 -183q0 -129 91 -217t241 -88 q248 0 436 172z" />
<glyph unicode="'" horiz-adv-x="382" d="M264 1501l-26 -436h-95l-24 436h145z" />
<glyph unicode="(" horiz-adv-x="616" d="M575 -395h-122q-283 453 -283 975q0 528 285 989h118q-279 -449 -278 -977q-1 -545 280 -987z" />
<glyph unicode=")" horiz-adv-x="616" d="M461 582q0 -246 -60.5 -481.5t-222.5 -495.5h-123q281 442 281 987q0 528 -279 977h121q283 -463 283 -987z" />
<glyph unicode="*" horiz-adv-x="749" d="M645 1102l-51 -90l-193 131l17 -234h-103l17 234l-195 -131l-49 88l213 102l-213 101l51 90l195 -131l-17 233h103l-17 -233l193 131l49 -88l-211 -101z" />
<glyph unicode="+" horiz-adv-x="1148" d="M1090 473h-457v-473h-121v473h-453v109h453v471h121v-471h457v-109z" />
<glyph unicode="," horiz-adv-x="425" d="M109 -289l-60 51q59 63 87 122t26 95.5t-21 63.5q-33 45 -9 91t75 46q63 0 90 -60.5t-18 -174t-170 -234.5z" />
<glyph unicode="-" horiz-adv-x="669" d="M569 457h-469v104h469v-104z" />
<glyph unicode="." horiz-adv-x="425" d="M213 182q41 0 69.5 -28.5t28.5 -69.5t-28.5 -70.5t-69.5 -29.5t-69.5 29.5t-28.5 70.5t28.5 69.5t69.5 28.5z" />
<glyph unicode="/" horiz-adv-x="849" d="M756 1382l-527 -1382h-120l528 1382h119z" />
<glyph unicode="0" horiz-adv-x="1263" d="M1145 545q0 -252 -154.5 -406.5t-382.5 -154.5q-223 0 -356 137t-133 399q0 246 154.5 397.5t373.5 151.5q236 0 367 -141t131 -383zM1012 528.5q0 192.5 -96.5 313.5t-278.5 121q-166 0 -276.5 -119t-110.5 -309q0 -197 94 -321t281 -124q160 0 273.5 123t113.5 315.5z " />
<glyph unicode="1" horiz-adv-x="686" d="M471 0h-133v928l-248 -107l-27 117l299 115h109v-1053z" />
<glyph unicode="2" horiz-adv-x="989" d="M874 0h-751v102l317 271q127 109 185.5 186.5t58.5 169.5q0 104 -64.5 169t-181.5 65q-139 0 -268 -82l-18 114q143 74 309 74q172 0 267 -88t95 -229q0 -111 -62.5 -207t-201.5 -213l-262 -219l-4 -2q117 8 581 8v-119z" />
<glyph unicode="3" horiz-adv-x="948" d="M819 49q0 -203 -146.5 -333t-398.5 -130q-90 0 -168 19l17 121q88 -27 172 -27q184 0 284.5 91t100.5 235q0 170 -133 245.5t-367 53.5v104q217 0 343 76t126 225q0 109 -68.5 171.5t-185.5 62.5q-127 0 -248 -66l-12 115q137 57 281 57q184 0 277 -91t93 -230 q0 -121 -71.5 -213.5t-192.5 -137.5v-2q133 -18 215 -113.5t82 -232.5z" />
<glyph unicode="4" horiz-adv-x="1099" d="M1071 0h-268v-406h-127v406h-623l-22 109l600 944h172v-934h268v-119zM676 119v805h-2l-516 -809q139 4 518 4z" />
<glyph unicode="5" horiz-adv-x="962" d="M846 66q0 -207 -160 -343.5t-410 -136.5q-74 0 -139 8l15 125q61 -16 137 -16q201 0 309.5 94t108.5 246q0 150 -112 246t-310 96q-18 0 -51 -1t-54 -1v670h621v-127h-496v-426q258 0 399.5 -122t141.5 -312z" />
<glyph unicode="6" horiz-adv-x="1193" d="M1079 467q0 -211 -133 -347t-346 -136q-211 0 -327.5 156.5t-116.5 430.5q0 432 196.5 654.5t513.5 222.5q37 0 78 -4v-115q-41 8 -96 8q-236 0 -369 -145t-176 -401l-16 -91l2 -2q109 199 368 199q195 0 308.5 -117.5t113.5 -312.5zM938 442q0 156 -83 248t-224 92 q-154 0 -239 -95t-85 -226q0 -154 81 -262.5t235 -108.5q141 0 228 100t87 252z" />
<glyph unicode="7" horiz-adv-x="940" d="M874 942q-285 -625 -456 -1348h-150q184 719 465 1336q-55 -4 -678 -4v127h819v-111z" />
<glyph unicode="8" horiz-adv-x="1120" d="M983 352q0 -172 -128 -270t-314 -98q-197 0 -301.5 95t-104.5 247q0 131 81 222t224 183h-2q-143 82 -212.5 170t-69.5 203q0 152 114.5 250t300.5 98q176 0 279.5 -89t103.5 -233q0 -109 -67.5 -197.5t-220.5 -182.5q72 -41 117.5 -73t97 -81t77 -110.5t25.5 -133.5z M819 1116q0 100 -69.5 166t-190.5 66q-123 0 -194.5 -67t-71.5 -167q0 -92 65.5 -161.5t202.5 -145.5h2q141 88 198.5 155.5t57.5 153.5zM846 328q0 109 -74 185.5t-229 160.5h-2q-131 -80 -200 -158t-69 -174q0 -113 78 -182.5t211 -69.5q121 0 203 63.5t82 174.5z" />
<glyph unicode="9" horiz-adv-x="1193" d="M1038 477q0 -438 -197.5 -664.5t-527.5 -226.5q-66 0 -114 8v125q61 -16 125 -16q238 0 369.5 128t185.5 382q10 43 18 121h-2q-53 -84 -148.5 -133t-209.5 -49q-197 0 -309.5 116.5t-112.5 317.5q0 209 130 346t341 137q207 0 329.5 -147.5t122.5 -444.5zM887 567 q0 178 -84 286t-236 108q-139 0 -226 -100.5t-87 -250.5q0 -162 81 -251t228 -89q141 0 232.5 89t91.5 208z" />
<glyph unicode=":" horiz-adv-x="501" d="M250 795q41 0 69.5 -29t28.5 -70t-28.5 -69.5t-69.5 -28.5t-69.5 28.5t-28.5 69.5t28.5 70t69.5 29zM250 182q41 0 69.5 -28.5t28.5 -69.5t-28.5 -70.5t-69.5 -29.5t-69.5 29.5t-28.5 70.5q0 39 28.5 68.5t69.5 29.5z" />
<glyph unicode=";" horiz-adv-x="501" d="M348 696q0 -41 -28.5 -69.5t-69.5 -28.5t-69.5 28.5t-28.5 69.5t28.5 70t69.5 29t69.5 -29t28.5 -70zM248 180q63 0 90 -60.5t-17.5 -174t-170.5 -234.5l-58 51q59 63 86 122t25 95.5t-21 63.5q-31 45 -8 91t74 46z" />
<glyph unicode="&#x3c;" horiz-adv-x="1019" d="M131 512l645 578l82 -82l-561 -494l561 -477l-82 -88z" />
<glyph unicode="=" horiz-adv-x="1220" d="M1061 627h-901v108h901v-108zM1061 305h-901v111h901v-111z" />
<glyph unicode="&#x3e;" horiz-adv-x="1019" d="M889 528l-645 -577l-82 82l561 493l-561 478l82 88z" />
<glyph unicode="?" horiz-adv-x="851" d="M711 1063q0 -70 -32 -133.5t-75 -105.5t-91 -95t-81 -104.5t-42 -132t26 -177.5h-125q-39 131 -27 213t61.5 156t102.5 122t96 112.5t43 130.5q0 109 -111.5 185.5t-281.5 92.5l16 117q227 -16 374 -125t147 -256zM459 82q0 -41 -29 -69.5t-70 -28.5t-68.5 28.5 t-27.5 69.5t27.5 68.5t68.5 27.5t70 -27.5t29 -68.5z" />
<glyph unicode="@" horiz-adv-x="1738" d="M1569 803q0 -221 -102.5 -335t-274.5 -114q-113 0 -161 62.5t-32 146.5h-4q-27 -78 -103.5 -143.5t-170.5 -65.5q-178 0 -178 228q0 201 107.5 339t291.5 138q90 0 225 -21l-65 -368q-39 -215 119 -215q229 0 229 342q0 215 -135 363.5t-395 148.5q-266 0 -448.5 -187.5 t-182.5 -472.5q0 -256 152.5 -419.5t412.5 -163.5q154 0 285 43v-111q-137 -37 -299 -37q-303 0 -486.5 189.5t-183.5 488.5q0 330 223 551t533 221q303 0 473 -175t170 -433zM1036 950q-49 12 -116 13q-86 0 -145.5 -61.5t-83 -138.5t-23.5 -157q0 -147 84 -147 q86 0 157.5 111.5t108.5 291.5z" />
<glyph unicode="A" horiz-adv-x="1245" d="M1212 0h-151l-125 352h-637l-129 -352h-137l520 1382h141zM897 459l-217 585q-27 68 -62 199h-2q-29 -100 -63 -194l-217 -590h561z" />
<glyph unicode="B" horiz-adv-x="1153" d="M1032 406q0 -49 -11 -98.5t-45 -108t-88 -102.5t-150.5 -73.5t-223.5 -29.5q-4 0 -317 6v1382q35 0 154.5 2t211.5 2q219 0 327.5 -86t108.5 -237q0 -115 -74.5 -206t-195.5 -126v-2q154 -23 228.5 -112.5t74.5 -210.5zM864 1040q0 115 -71.5 178.5t-253.5 63.5 q-84 0 -211 -4v-510q45 -2 139 -2q193 0 295 71.5t102 202.5zM897 399q0 266 -430 267q-102 0 -139 -2v-551q82 -12 198 -13q188 0 279.5 82t91.5 217z" />
<glyph unicode="C" horiz-adv-x="1218" d="M1116 61q-180 -78 -391 -77q-305 0 -462 178t-157 500q0 330 164 531.5t502 201.5q158 0 326 -43l-15 -123q-168 55 -340 55q-250 0 -372.5 -168t-122.5 -432q0 -283 128 -434.5t388 -151.5q182 0 338 80z" />
<glyph unicode="D" horiz-adv-x="1404" d="M1298 702q0 -346 -213 -527t-565 -181q-68 0 -173 4q-70 3 -114 3q-22 0 -36 -1v1382q49 0 182 3.5t205 3.5q346 0 530 -171.5t184 -515.5zM1161 694q0 588 -594 588q-61 0 -239 -6v-1159q106 -14 211 -15q289 0 455.5 147.5t166.5 444.5z" />
<glyph unicode="E" horiz-adv-x="1040" d="M879 0h-682v1382h682v-106h-551v-510h524v-104h-524v-553h551v-109z" />
<glyph unicode="F" horiz-adv-x="964" d="M877 1276h-549v-512h520v-107h-520v-657h-131v1382h680v-106z" />
<glyph unicode="G" horiz-adv-x="1406" d="M1198 1341l-20 -124q-186 74 -369 73q-240 0 -405.5 -155.5t-165.5 -446.5q0 -281 153.5 -437.5t407.5 -156.5q152 0 293 45v551h131v-631q-207 -76 -445 -75q-309 0 -494.5 181t-185.5 500.5t198 526.5t529 207q189 -1 373 -58z" />
<glyph unicode="H" horiz-adv-x="1445" d="M1249 0h-131v664h-790v-664h-131v1382h131v-610h790v610h131v-1382z" />
<glyph unicode="I" horiz-adv-x="524" d="M328 0h-131v1382h131v-1382z" />
<glyph unicode="J" horiz-adv-x="665" d="M471 342q0 -178 -78 -266t-250 -88q-63 0 -141 16v121q76 -27 152 -27q96 0 140 54.5t44 201.5v1028h133v-1040z" />
<glyph unicode="K" horiz-adv-x="1177" d="M1137 0h-187l-622 700v-700h-131v1382h131v-669l622 669h166l-639 -669z" />
<glyph unicode="L" horiz-adv-x="870" d="M856 0h-659v1382h131v-1273h528v-109z" />
<glyph unicode="M" horiz-adv-x="1832" d="M1708 0h-139l-129 895q-35 248 -43 350h-4q-20 -84 -66 -217l-348 -1028h-158l-329 965q-76 229 -86 280h-3q-4 -80 -36 -362l-105 -883h-137l192 1382h172l336 -983q61 -178 78 -264h4q18 84 74 246l344 1001h180z" />
<glyph unicode="N" horiz-adv-x="1462" d="M1266 0h-179l-612 967q-100 154 -162 278q14 -383 15 -837v-408h-131v1382h178l604 -950q84 -133 170 -289q-14 455 -14 871v368h131v-1382z" />
<glyph unicode="O" horiz-adv-x="1445" d="M1348 705q0 -336 -184.5 -528.5t-458.5 -192.5q-299 0 -453 186t-154 508q0 336 183.5 528.5t457.5 192.5q285 0 447 -182t162 -512zM1206 682q0 289 -128 447.5t-355 158.5q-203 0 -343 -157.5t-140 -425.5q0 -279 122.5 -444t358.5 -165q203 0 344 158t141 428z" />
<glyph unicode="P" d="M983 1001q0 -199 -151.5 -323.5t-376.5 -124.5q-66 0 -127 6v-559h-131v1382q141 6 315 7q223 0 347 -107t124 -281zM846 979q0 301 -359 301q-113 0 -159 -4v-604q68 -10 137 -10q176 2 278.5 88t102.5 229z" />
<glyph unicode="Q" horiz-adv-x="1443" d="M1348 705q0 -336 -184.5 -528.5t-458.5 -192.5q-299 0 -453 186t-154 508q0 336 183.5 528.5t457.5 192.5q285 0 447 -182t162 -512zM1442 -354q-58 -8 -114 -8q-82 0 -161 16q-133 27 -253 54q-75 17 -147 18q-43 0 -85 -7v121q49 6 98 6q79 0 158 -16l252 -53 q77 -16 155 -17q48 0 97 7v-121zM1206 682q0 289 -128 447.5t-355 158.5q-203 0 -343 -157.5t-140 -425.5q0 -279 122.5 -444t358.5 -165q203 0 344 158t141 428z" />
<glyph unicode="R" horiz-adv-x="1114" d="M1038 0h-174l-530 653h-6v-653h-131v1382q127 6 309 7q446 0 446 -340q0 -184 -132 -285.5t-339 -106.5q76 -84 125 -143zM815 1026q0 139 -86 198.5t-260 59.5q-74 0 -141 -6v-520q49 -4 133 -4q166 0 260 74.5t94 197.5z" />
<glyph unicode="S" horiz-adv-x="1032" d="M909 393q0 -184 -133 -296.5t-360 -112.5q-162 0 -279 34l8 132q145 -51 283 -52q152 0 249 67.5t97 209.5q0 94 -67.5 155.5t-164 98.5t-192.5 78t-163.5 119.5t-67.5 197.5q0 166 126 270.5t343 104.5q111 0 248 -25l-9 -123q-123 39 -249 39q-156 0 -241 -67.5 t-85 -184.5q0 -92 67.5 -152.5t165 -96t193.5 -76.5t163.5 -121t67.5 -199z" />
<glyph unicode="T" horiz-adv-x="1064" d="M1026 1274h-428v-1274h-131v1274h-428v108h987v-108z" />
<glyph unicode="U" horiz-adv-x="1435" d="M1239 522q0 -264 -135 -401t-404 -137q-123 0 -215 27.5t-146 70.5t-87 107.5t-44 127t-11 138.5v927h131v-913q0 -84 16 -147.5t57 -117.5t119 -84t193 -30q205 0 301 96.5t96 323.5v872h129v-860z" />
<glyph unicode="V" horiz-adv-x="1249" d="M1212 1382l-526 -1382h-141l-512 1382h151l336 -946q63 -168 98 -299h3q35 125 104 312l350 933h137z" />
<glyph unicode="W" horiz-adv-x="1951" d="M1866 1382l-371 -1382h-166l-305 1049q-20 70 -53 206h-2q-10 -70 -49 -208l-295 -1047h-166l-375 1382h141l264 -997q33 -115 60 -256h2q29 147 57 244l287 1009h164l301 -1026q35 -117 55 -227h2q16 98 45 197l275 1056h129z" />
<glyph unicode="X" horiz-adv-x="1183" d="M1139 0h-164l-391 616l-387 -616h-152l463 715l-434 667h153l359 -563l354 563h150l-428 -655z" />
<glyph unicode="Y" d="M1034 1382l-442 -878v-504h-131v504l-432 878h145l246 -514q59 -121 110 -250h2q29 76 123 271l240 493h139z" />
<glyph unicode="Z" horiz-adv-x="1105" d="M1016 0h-920v92l637 985l131 193q-160 -4 -340 -4h-405v116h889v-94l-672 -1034l-92 -139q49 4 377 4h395v-119z" />
<glyph unicode="[" horiz-adv-x="651" d="M569 -399h-372v1970h372v-96h-252v-1774h252v-100z" />
<glyph unicode="\" horiz-adv-x="831" d="M735 0h-119l-524 1382h113z" />
<glyph unicode="]" horiz-adv-x="651" d="M453 -399h-373v100h254v1774h-254v96h373v-1970z" />
<glyph unicode="^" horiz-adv-x="1095" d="M950 764l-100 -53l-313 569l-301 -569l-93 51l340 620h111z" />
<glyph unicode="_" horiz-adv-x="1024" d="M1024 -516h-1024v100h1024v-100z" />
<glyph unicode="`" horiz-adv-x="749" d="M539 1266l-66 -72l-260 209l80 90z" />
<glyph unicode="a" d="M868 0h-131q0 152 13 223l-5 2q-39 -104 -135 -172.5t-225 -68.5q-123 0 -199.5 62.5t-76.5 178.5q0 160 163.5 258.5t462.5 98.5v90q0 131 -55 194.5t-186 63.5q-174 0 -312 -90l-14 116q166 78 350 78q190 0 268 -86t78 -241v-392q0 -131 4 -315zM735 469v14 q-274 0 -384.5 -68.5t-110.5 -162.5q0 -76 48 -119t128 -43q139 0 229 116t90 263z" />
<glyph unicode="b" horiz-adv-x="1142" d="M1044 555q0 -272 -140 -419.5t-378 -147.5q-176 0 -329 37v1470h129v-534q0 -109 -19 -185l4 -2q43 123 138.5 191.5t218.5 68.5q182 0 279 -121.5t97 -357.5zM909 543q0 387 -262 387q-102 0 -179 -74t-109.5 -170t-32.5 -194v-371q86 -31 213 -31q174 0 272 111t98 342 z" />
<glyph unicode="c" horiz-adv-x="907" d="M840 47q-152 -59 -310 -59q-436 0 -436 485q0 260 127 408.5t369 148.5q131 0 246 -35l-15 -114q-119 49 -246 49q-168 0 -256 -116t-88 -314q0 -401 326 -402q152 0 270 62z" />
<glyph unicode="d" horiz-adv-x="1138" d="M942 0h-131q0 139 18 233l-4 3q-41 -117 -136 -184.5t-218 -67.5q-186 0 -281.5 126t-95.5 353q0 272 140.5 419.5t377.5 147.5q90 0 201 -12v477h129v-1495zM813 526v375q-106 27 -213 27q-174 0 -271.5 -110.5t-97.5 -342.5q0 -387 261 -387q102 0 179 74t109.5 170 t32.5 194z" />
<glyph unicode="e" horiz-adv-x="1030" d="M926 625q0 -39 -4 -68h-691q-1 -21 0 -40q0 -211 80 -313q88 -112 271 -112q164 0 295 66l12 -115q-147 -59 -330 -59q-465 0 -465 522q0 233 119 380.5t322 147.5q197 0 294 -115.5t97 -293.5zM788 657q0 7 1 14q0 116 -68 188q-72 77 -195 77q-113 0 -188.5 -75 t-97.5 -204h548z" />
<glyph unicode="f" horiz-adv-x="708" d="M793 1487l-13 -111q-74 23 -166 23q-125 0 -182 -75t-57 -232v-74h313v-103h-313v-915h-129v915h-234v103h234v69q0 209 99 313.5t280 104.5q84 0 168 -18z" />
<glyph unicode="g" horiz-adv-x="1138" d="M1042 -168q0 -160 -149.5 -265.5t-378.5 -105.5q-195 0 -308.5 78t-113.5 221q0 182 180 277q-102 49 -102 147q0 109 111 160q-152 90 -152 299q0 166 120 278.5t318 112.5q61 0 148 -16h346v-103h-193q106 -80 107 -243q0 -170 -115 -277.5t-328 -107.5q-80 0 -149 18 q-80 -33 -80 -98q0 -92 189 -92h208q164 0 253 -75t89 -208zM844 657q0 131 -75 204t-210 73q-139 0 -219 -77t-80 -200q0 -131 76 -200.5t215 -69.5q135 0 214 70.5t79 199.5zM911 -184q0 184 -245 184h-287q-158 -82 -158 -217q0 -102 88 -157.5t228 -55.5q174 0 274 67.5 t100 178.5z" />
<glyph unicode="h" horiz-adv-x="1185" d="M989 0h-129v662q0 135 -46 202.5t-161 67.5q-143 0 -235 -126t-92 -319v-487h-129v1495h129v-512q0 -135 -17 -203l4 -2q45 121 141.5 189.5t227.5 68.5q307 0 307 -327v-709z" />
<glyph unicode="i" horiz-adv-x="522" d="M354 1304.5q0 -38.5 -26.5 -65.5t-65.5 -27t-65.5 27t-26.5 65.5t26.5 65.5t65.5 27t65.5 -27t26.5 -65.5zM326 0h-129v1018h129v-1018z" />
<glyph unicode="j" horiz-adv-x="538" d="M371 1304.5q0 -38.5 -27 -65.5t-65.5 -27t-65.5 27t-27 65.5t27 65.5t65.5 27t65.5 -27t27 -65.5zM342 -139q0 -209 -70.5 -299t-248.5 -90q-80 0 -138 18l15 117q68 -25 133 -25q109 0 144.5 54.5t35.5 216.5v1165h129v-1157z" />
<glyph unicode="k" horiz-adv-x="968" d="M918 0h-173l-419 541v-541h-129v1495h129v-940l401 463h156l-414 -463z" />
<glyph unicode="l" horiz-adv-x="522" d="M326 0h-129v1495h129v-1495z" />
<glyph unicode="m" horiz-adv-x="1818" d="M1622 0h-129v662q0 133 -43 201.5t-154 68.5q-133 0 -228 -123t-95 -326v-483h-129v664q0 127 -41 197.5t-156 70.5q-135 0 -228 -127t-93 -322v-483h-129v1018h131q0 -137 -19 -236l4 -2q43 119 140.5 187.5t224.5 68.5q84 0 145.5 -27.5t89 -71.5t39 -81t11.5 -72 q35 94 125 173t233 79q301 0 301 -329v-707z" />
<glyph unicode="n" horiz-adv-x="1185" d="M989 0h-129v662q0 135 -46 202.5t-161 67.5q-143 0 -235 -126t-92 -319v-487h-129v1018h131q0 -141 -19 -236l4 -2q43 119 139.5 187.5t229.5 68.5q307 0 307 -327v-709z" />
<glyph unicode="o" horiz-adv-x="1105" d="M1012 524q0 -229 -131 -384.5t-349 -155.5q-209 0 -325.5 131t-116.5 391q0 223 128 375.5t349 152.5q197 0 321 -122t124 -388zM879 518q0 195 -83 303.5t-243 108.5q-137 0 -232.5 -106.5t-95.5 -307.5q0 -203 86 -314.5t244 -111.5q137 0 230.5 108.5t93.5 319.5z" />
<glyph unicode="p" horiz-adv-x="1142" d="M1044 555q0 -272 -139 -418.5t-377 -146.5q-115 0 -202 12v-516h-129v1532h131q0 -154 -19 -234l4 -2q43 117 137.5 184.5t217.5 67.5q182 0 279 -121.5t97 -357.5zM909 543q0 387 -262 387q-102 0 -179 -74t-109.5 -170t-32.5 -194v-371q86 -31 213 -31q174 0 272 111 t98 342z" />
<glyph unicode="q" horiz-adv-x="1142" d="M946 -514h-129v577q0 100 14 170l-4 3q-41 -115 -136 -183.5t-216 -68.5q-180 0 -278.5 121.5t-98.5 357.5q0 272 140.5 419.5t384.5 147.5q158 0 323 -26v-1518zM817 526v377q-104 27 -213 27q-174 0 -271 -111.5t-97 -343.5q0 -387 260 -387q150 0 235.5 140t85.5 298z " />
<glyph unicode="r" horiz-adv-x="724" d="M674 1034l-6 -125q-29 5 -56 5q-129 0 -200 -108q-86 -130 -86 -400v-406h-129v1018h131q0 -135 -27 -266l4 -2q35 133 125 218q74 70 191 70q26 -1 53 -4z" />
<glyph unicode="s" horiz-adv-x="882" d="M764 299q0 -135 -113.5 -225t-304.5 -90q-129 0 -217 20l4 123q117 -33 229 -33q121 0 195 50.5t74 136.5q0 72 -53.5 111.5t-129 59t-150.5 44t-128 86t-53 161.5q0 129 102.5 210t286.5 81q100 0 203 -22l-7 -115q-115 35 -215 35q-117 0 -178 -46t-61 -128 q0 -72 53 -113t129 -61.5t151.5 -45t129 -83t53.5 -156.5z" />
<glyph unicode="t" horiz-adv-x="755" d="M676 4q-96 -18 -187 -18q-145 0 -199 67.5t-54 227.5v634h-234v103h231v344l129 35v-379h314v-103h-314v-571q0 -145 33 -194.5t129 -49.5q84 0 152 19v-115z" />
<glyph unicode="u" horiz-adv-x="1185" d="M989 0h-131q0 139 19 236l-5 2q-43 -119 -139 -187.5t-229 -68.5q-307 0 -307 327v709h129v-662q0 -135 46 -202.5t160 -67.5q143 0 235.5 126t92.5 318v488h129v-1018z" />
<glyph unicode="v" horiz-adv-x="964" d="M942 1018l-395 -1018h-135l-387 1018h147l254 -711q31 -84 55 -170h2q31 100 56 164l260 717h143z" />
<glyph unicode="w" horiz-adv-x="1619" d="M1577 1018l-334 -1018h-153l-242 705q-33 96 -55 186h-2q-18 -72 -76 -256l-201 -635h-156l-317 1018h147l189 -656q12 -47 35.5 -126.5t31.5 -110.5h2q25 102 68 237l211 656h156l213 -653q45 -135 73 -242h2q8 33 70 237l199 658h139z" />
<glyph unicode="x" horiz-adv-x="1048" d="M991 0h-174l-299 426l-299 -426h-164l391 508l-370 510h164l288 -416l297 416h150l-375 -502z" />
<glyph unicode="y" horiz-adv-x="950" d="M926 1018l-426 -1129q-92 -242 -178 -329.5t-248 -87.5q-59 0 -125 10l14 121q61 -18 125 -19q98 0 156.5 59.5t124.5 229.5l49 127l-393 1018h151l230 -627q35 -92 77 -235h2q18 70 103 309l196 553h142z" />
<glyph unicode="z" horiz-adv-x="911" d="M801 0h-701v90l545 817q-139 -4 -305 -4h-229v115h680v-88l-541 -815q131 4 311 4h240v-119z" />
<glyph unicode="{" horiz-adv-x="667" d="M602 -399h-33q-152 0 -217 90t-65 270v416q0 117 -48.5 166t-177.5 57v107q133 8 179.5 54t46.5 167v284q0 358 282 359h33v-96q-111 0 -153.5 -56.5t-42.5 -197.5v-283q0 -244 -191 -283v-2q190 -31 191 -284v-416q0 -141 43 -196.5t153 -55.5v-100z" />
<glyph unicode="|" horiz-adv-x="575" d="M338 -512h-102v2048h102v-2048z" />
<glyph unicode="}" horiz-adv-x="659" d="M621 600q-127 -8 -175.5 -57t-48.5 -166v-416q0 -180 -65.5 -270t-216.5 -90h-33v100q111 0 154 55.5t43 196.5v416q0 254 190 284v2q-190 27 -190 273v293q0 141 -43 197.5t-154 56.5v96h33q283 0 282 -359v-274q0 -129 45 -176t179 -55v-107z" />
<glyph unicode="~" horiz-adv-x="1196" d="M1079 551q-129 -119 -266 -119q-113 0 -245 70.5t-206 70.5q-92 0 -200 -90l-45 92q125 106 256 107q111 0 238.5 -69.5t215.5 -69.5q96 0 203 98z" />
<glyph unicode="&#xa1;" horiz-adv-x="612" d="M403 940q0 -41 -28.5 -68.5t-69.5 -27.5t-69.5 27.5t-28.5 68.5t28.5 68.5t69.5 27.5t69.5 -27.5t28.5 -68.5zM381 -414h-152l23 1121h104z" />
<glyph unicode="&#xa2;" horiz-adv-x="935" d="M850 145q-106 -49 -242 -61v-223h-104v223q-197 16 -304.5 139t-107.5 344q0 199 111.5 333t300.5 157v186h104v-182q127 -4 236 -47l-10 -117q-109 57 -252 57q-166 0 -261.5 -102t-95.5 -281q0 -168 84 -273t271 -105q145 0 260 69z" />
<glyph unicode="&#xa3;" horiz-adv-x="1019" d="M885 0h-760v94q135 106 196.5 203.5t61.5 224.5q0 20 -14 183h-244v100h233q-25 217 -24 276q0 195 87 281t261 86q80 0 158 -16l-9 -109q-82 20 -157 20q-106 0 -159.5 -64.5t-53.5 -176.5q0 -45 26 -297h318v-100h-309q12 -98 12 -166q0 -139 -52.5 -235.5 t-170.5 -197.5q86 8 176 9h424v-115z" />
<glyph unicode="&#xa4;" horiz-adv-x="1138" d="M942 -111q0 -55 -10 -106t-44 -110.5t-87 -102.5t-147.5 -71.5t-217.5 -28.5q-147 0 -286 36l10 136q152 -55 293 -56q180 0 271 80t91 271v100q0 127 12 196l-4 3q-41 -115 -136 -183.5t-216 -68.5q-180 0 -278.5 121.5t-98.5 357.5q0 272 140.5 419.5t386.5 147.5 q158 0 321 -26v-1115zM813 526v377q-96 25 -213 25q-174 0 -271.5 -110.5t-97.5 -342.5q0 -387 261 -387q102 0 179 74t109.5 170t32.5 194z" />
<glyph unicode="&#xa5;" horiz-adv-x="1198" d="M1106 1382l-410 -813h320v-96h-352v-158h352v-96h-352v-219h-132v219h-350v96h350v158h-350v96h320l-402 813h146l246 -512q70 -147 108 -256h2q45 117 123 279l244 489h137z" />
<glyph unicode="&#xa7;" horiz-adv-x="987" d="M813 426q0 -162 -127 -268q61 -98 62 -195q0 -125 -86.5 -217t-249.5 -92q-68 0 -146 16l15 121q70 -25 143 -24q96 0 142 51t46 139q0 63 -46 142t-111 154l-132 155q-67 80 -113 171t-46 175q0 172 131 274q-57 84 -57 182q0 133 82.5 220.5t238.5 87.5q76 0 133 -15 l-12 -110q-66 18 -131 18q-178 0 -178 -190q0 -61 45 -138t110 -153l131 -155q66 -79 111 -172t45 -177zM690 414q0 76 -44 151.5t-144.5 194.5t-143.5 178q-70 -53 -69 -170q0 -29 7 -59.5t26.5 -67.5t36 -63.5t54.5 -74.5l58 -75q20 -27 74 -89l78 -93q29 23 48 71t19 97z " />
<glyph unicode="&#xa8;" horiz-adv-x="1118" d="M819 1348q0 -37 -25.5 -62.5t-62.5 -25.5t-62.5 25.5t-25.5 62.5q0 39 25.5 63.5t62.5 24.5t62.5 -24.5t25.5 -63.5zM442 1348q0 -37 -25.5 -62.5t-62.5 -25.5q-39 0 -63.5 25.5t-24.5 62.5q0 39 24.5 63.5t63.5 24.5q37 0 62.5 -24.5t25.5 -63.5z" />
<glyph unicode="&#xa9;" horiz-adv-x="1540" d="M766 1362q283 0 480.5 -195.5t197.5 -476t-198.5 -479.5t-479.5 -199q-289 0 -484.5 194.5t-195.5 479.5q0 281 198.5 478.5t481.5 197.5zM766 1262q-238 0 -403.5 -167t-165.5 -404.5t166.5 -407.5t402 -170t402.5 168t167 405q0 236 -166.5 406t-402.5 170zM965 356 q-88 -31 -197 -30q-168 0 -245 95t-77 255q0 162 86 269.5t269 107.5q80 0 157 -25l-8 -100q-76 33 -159 33q-225 0 -226 -277q0 -262 217 -262q92 0 172 31z" />
<glyph unicode="&#xaa;" horiz-adv-x="772" d="M625 729h-119q0 70 10 115l-4 2q-18 -49 -78.5 -89t-128.5 -40q-96 0 -144 43t-48 119q0 106 103 172.5t294 64.5v43q0 141 -143 141q-109 0 -209 -53l-8 107q102 43 233 43q129 0 184.5 -62.5t55.5 -158.5v-265q0 -159 2 -182zM510 1016v18q-281 0 -281 -137 q0 -39 26 -61.5t71 -22.5q88 0 136 71t48 132z" />
<glyph unicode="&#xab;" horiz-adv-x="1007" d="M465 788l-205 -286l201 -281l-96 -65l-236 346l242 350zM838 786l-222 -284l220 -279l-97 -67l-254 346l260 350z" />
<glyph unicode="&#xac;" horiz-adv-x="1040" d="M936 154h-111v331h-745v109h856v-440z" />
<glyph unicode="&#xad;" horiz-adv-x="669" d="M569 457h-469v104h469v-104z" />
<glyph unicode="&#xae;" horiz-adv-x="1148" d="M756 852h-103l-131 209h-6v-209h-82v473h144q158 0 157 -119q0 -59 -33.5 -95t-91.5 -42q16 -18 47 -68zM649 1196q0 35 -18.5 49.5t-61.5 14.5h-53v-146h33q53 0 76.5 24.5t23.5 57.5zM573 1425q-137 0 -235 -98t-98 -237.5t98 -242t235 -102.5q139 0 236.5 98.5 t97.5 237.5q0 141 -97.5 242.5t-236.5 101.5zM573 1516q182 0 307.5 -124t125.5 -307q0 -174 -128 -302t-305 -128q-182 0 -306 124t-124 306q0 178 126 304.5t304 126.5z" />
<glyph unicode="&#xaf;" horiz-adv-x="847" d="M651 1288h-458v98h458v-98z" />
<glyph unicode="&#xb0;" horiz-adv-x="751" d="M623 1262q0 -106 -77 -174t-179 -68q-111 0 -176.5 64.5t-65.5 172.5q0 111 75.5 178.5t176.5 67.5q119 0 182.5 -68.5t63.5 -172.5zM514 1260q0 61 -32.5 108t-108.5 47q-59 0 -99.5 -43t-40.5 -110q0 -72 38 -113t99.5 -41t102.5 43t41 109z" />
<glyph unicode="&#xb1;" horiz-adv-x="1155" d="M1061 569h-422v-430h-123v430h-424v109h424v428h123v-428h422v-109zM1053 -102h-951v110h951v-110z" />
<glyph unicode="&#xb2;" horiz-adv-x="989" d="M874 0h-751v102l317 271q127 109 185.5 186.5t58.5 169.5q0 104 -64.5 169t-181.5 65q-139 0 -268 -82l-18 114q143 74 309 74q172 0 267 -88t95 -229q0 -111 -62.5 -207t-201.5 -213l-262 -219l-4 -2q117 8 581 8v-119z" />
<glyph unicode="&#xb3;" horiz-adv-x="948" d="M819 49q0 -203 -146.5 -333t-398.5 -130q-90 0 -168 19l17 121q88 -27 172 -27q184 0 284.5 91t100.5 235q0 170 -133 245.5t-367 53.5v104q217 0 343 76t126 225q0 109 -68.5 171.5t-185.5 62.5q-127 0 -248 -66l-12 115q137 57 281 57q184 0 277 -91t93 -230 q0 -121 -71.5 -213.5t-192.5 -137.5v-2q133 -18 215 -113.5t82 -232.5z" />
<glyph unicode="&#xb4;" horiz-adv-x="788" d="M539 1403l-260 -209l-64 72l244 227z" />
<glyph unicode="&#xb5;" horiz-adv-x="1271" d="M1075 0h-131q0 135 19 242l-5 2q-35 -104 -125 -182t-262 -78q-86 0 -153.5 28.5t-93.5 69.5l-5 -2q6 -37 7 -236v-358h-127v1532h127v-658q0 -274 278 -274q162 0 252 127t90 317v488h129v-1018z" />
<glyph unicode="&#xb6;" horiz-adv-x="1153" d="M737 -100v1482h277v-96h-152v-1483h-280v97h155zM586 1382v-850q-209 -2 -321.5 121t-112.5 310q0 180 120.5 299.5t313.5 119.5z" />
<glyph unicode="&#xb7;" horiz-adv-x="428" d="M215 696q43 0 73.5 -30.5t30.5 -73.5q0 -45 -30.5 -75t-73.5 -30q-45 0 -74.5 30t-29.5 75q0 43 29.5 73.5t74.5 30.5z" />
<glyph unicode="&#xb8;" horiz-adv-x="819" d="M573 -104q96 -211 -165 -381l-56 57q186 141 90 324h131z" />
<glyph unicode="&#xb9;" horiz-adv-x="686" d="M471 0h-133v928l-248 -107l-27 117l299 115h109v-1053z" />
<glyph unicode="&#xba;" horiz-adv-x="849" d="M729 1069q0 -156 -90 -253t-236 -97q-293 0 -292 342q0 145 88 241.5t227 96.5q55 0 104.5 -14.5t96.5 -48t74.5 -102.5t27.5 -165zM600 1069q0 94 -42 159.5t-136 65.5q-78 0 -131 -58t-53 -175q0 -238 176 -238q86 0 136 61.5t50 184.5z" />
<glyph unicode="&#xbb;" horiz-adv-x="1007" d="M543 219l205 287l-203 280l96 66l238 -346l-244 -350zM168 221l221 285l-217 278l94 68l254 -346l-260 -350z" />
<glyph unicode="&#xbc;" horiz-adv-x="2617" d="M2589 0h-268v-406h-127v406h-623l-22 109l600 944h172v-934h268v-119zM2194 119v805h-2l-516 -809q139 4 518 4zM1671 1485l-895 -1725l-100 54l895 1724zM471 0h-133v928l-248 -107l-27 117l299 115h109v-1053z" />
<glyph unicode="&#xbd;" horiz-adv-x="2506" d="M2392 0h-751v102l317 271q127 109 185.5 186.5t58.5 169.5q0 104 -64.5 169t-181.5 65q-139 0 -268 -82l-18 114q143 74 309 74q172 0 267 -88t95 -229q0 -111 -62.5 -207t-201.5 -213l-262 -219l-4 -2q117 8 581 8v-119zM1671 1485l-895 -1725l-100 54l895 1724zM471 0 h-133v928l-248 -107l-27 117l299 115h109v-1053z" />
<glyph unicode="&#xbe;" horiz-adv-x="2879" d="M2851 0h-268v-406h-127v406h-623l-22 109l600 944h172v-934h268v-119zM2456 119v805h-2l-516 -809q139 4 518 4zM1933 1485l-895 -1725l-100 54l895 1724zM819 49q0 -203 -146.5 -333t-398.5 -130q-90 0 -168 19l17 121q88 -27 172 -27q184 0 284.5 91t100.5 235 q0 170 -133 245.5t-367 53.5v104q217 0 343 76t126 225q0 109 -68.5 171.5t-185.5 62.5q-127 0 -248 -66l-12 115q137 57 281 57q184 0 277 -91t93 -230q0 -121 -71.5 -213.5t-192.5 -137.5v-2q133 -18 215 -113.5t82 -232.5z" />
<glyph unicode="&#xbf;" horiz-adv-x="851" d="M588 940q0 -41 -29 -68.5t-69.5 -27.5t-69.5 27.5t-29 68.5t29 68.5t69.5 27.5t69.5 -27.5t29 -68.5zM676 -305l-17 -119q-225 18 -371.5 126t-146.5 257q0 70 31 133.5t75 105.5t92 95t81 104.5t41 132t-27 177.5h127q39 -131 25.5 -213t-62.5 -156t-102 -122 t-96 -112.5t-43 -130.5q0 -109 111.5 -186.5t281.5 -91.5z" />
<glyph unicode="&#xc0;" horiz-adv-x="1245" d="M1212 0h-151l-125 352h-637l-129 -352h-137l520 1382h141zM897 459l-217 585q-27 68 -62 199h-2q-29 -100 -63 -194l-217 -590h561zM719 1575l-66 -72l-260 209l80 90z" />
<glyph unicode="&#xc1;" horiz-adv-x="1245" d="M1212 0h-151l-125 352h-637l-129 -352h-137l520 1382h141zM897 459l-217 585q-27 68 -62 199h-2q-29 -100 -63 -194l-217 -590h561zM828 1712l-260 -209l-64 72l244 227z" />
<glyph unicode="&#xc2;" horiz-adv-x="1245" d="M1212 0h-151l-125 352h-637l-129 -352h-137l520 1382h141zM897 459l-217 585q-27 68 -62 199h-2q-29 -100 -63 -194l-217 -590h561zM899 1589l-70 -78l-207 146l-194 -146l-62 72l260 199z" />
<glyph unicode="&#xc3;" horiz-adv-x="1245" d="M1212 0h-151l-125 352h-637l-129 -352h-137l520 1382h141zM897 459l-217 585q-27 68 -62 199h-2q-29 -100 -63 -194l-217 -590h561zM958 1632q-76 -80 -184 -80q-74 0 -158 48.5t-135 48.5q-74 0 -137 -68l-39 88q80 80 189 80q70 0 155.5 -48t132.5 -48q72 0 140 67z " />
<glyph unicode="&#xc4;" horiz-adv-x="1245" d="M1212 0h-151l-125 352h-637l-129 -352h-137l520 1382h141zM897 459l-217 585q-27 68 -62 199h-2q-29 -100 -63 -194l-217 -590h561zM899 1618q0 -37 -25.5 -62.5t-62.5 -25.5t-62.5 25.5t-25.5 62.5q0 39 25.5 63.5t62.5 24.5t62.5 -24.5t25.5 -63.5zM522 1618 q0 -37 -25.5 -62.5t-62.5 -25.5q-39 0 -63.5 25.5t-24.5 62.5q0 39 24.5 63.5t63.5 24.5q37 0 62.5 -24.5t25.5 -63.5z" />
<glyph unicode="&#xc5;" horiz-adv-x="1245" d="M1212 0h-151l-125 352h-637l-129 -352h-137l520 1382h141zM897 459l-217 585q-27 68 -62 199h-2q-29 -100 -63 -194l-217 -590h561zM838 1573q0 -84 -62.5 -145.5t-148.5 -61.5q-90 0 -151.5 58.5t-61.5 148.5q0 86 63.5 146.5t149.5 60.5q90 0 150.5 -59.5t60.5 -147.5z M743 1573q0 51 -33.5 86t-82.5 35q-51 0 -85 -35t-34 -86q0 -49 35 -85t84 -36t82.5 36t33.5 85z" />
<glyph unicode="&#xc6;" horiz-adv-x="1591" d="M1432 0h-693v354h-497l-195 -354h-141l770 1382h731v-106h-537v-510h519v-104h-519v-553h562v-109zM739 461v811h-4l-141 -275l-299 -536h444z" />
<glyph unicode="&#xc7;" horiz-adv-x="1218" d="M1116 61q-180 -78 -391 -77q-305 0 -462 178t-157 500q0 330 164 531.5t502 201.5q158 0 326 -43l-15 -123q-168 55 -340 55q-250 0 -372.5 -168t-122.5 -432q0 -283 128 -434.5t388 -151.5q182 0 338 80zM766 -104q96 -211 -165 -381l-56 57q186 141 90 324h131z" />
<glyph unicode="&#xc8;" horiz-adv-x="1040" d="M879 0h-682v1382h682v-106h-551v-510h524v-104h-524v-553h551v-109zM643 1575l-65 -72l-261 209l80 90z" />
<glyph unicode="&#xc9;" horiz-adv-x="1040" d="M879 0h-682v1382h682v-106h-551v-510h524v-104h-524v-553h551v-109zM748 1712l-260 -209l-64 72l244 227z" />
<glyph unicode="&#xca;" horiz-adv-x="1040" d="M879 0h-682v1382h682v-106h-551v-510h524v-104h-524v-553h551v-109zM799 1589l-70 -78l-207 146l-194 -146l-62 72l260 199z" />
<glyph unicode="&#xcb;" horiz-adv-x="1040" d="M879 0h-682v1382h682v-106h-551v-510h524v-104h-524v-553h551v-109zM801 1618q0 -37 -25.5 -62.5t-62.5 -25.5t-62.5 25.5t-25.5 62.5q0 39 25.5 63.5t62.5 24.5t62.5 -24.5t25.5 -63.5zM424 1618q0 -37 -25.5 -62.5t-62.5 -25.5q-39 0 -63.5 25.5t-24.5 62.5 q0 39 24.5 63.5t63.5 24.5q37 0 62.5 -24.5t25.5 -63.5z" />
<glyph unicode="&#xcc;" horiz-adv-x="524" d="M328 0h-131v1382h131v-1382zM377 1575l-66 -72l-260 209l80 88z" />
<glyph unicode="&#xcd;" horiz-adv-x="524" d="M328 0h-131v1382h131v-1382zM467 1712l-262 -209l-64 72l244 225z" />
<glyph unicode="&#xce;" horiz-adv-x="524" d="M328 0h-131v1382h131v-1382zM535 1589l-68 -78l-207 146l-194 -146l-62 72l260 199z" />
<glyph unicode="&#xcf;" horiz-adv-x="524" d="M328 0h-131v1382h131v-1382zM537 1620q0 -37 -25 -62.5t-63 -25.5q-37 0 -63 25.5t-26 62.5t26 62.5t63 25.5q39 0 63.5 -25.5t24.5 -62.5zM160 1620q0 -37 -25.5 -62.5t-62.5 -25.5t-62.5 25.5t-25.5 62.5t25.5 62.5t62.5 25.5t62.5 -25.5t25.5 -62.5z" />
<glyph unicode="&#xd1;" horiz-adv-x="1462" d="M1266 0h-179l-612 967q-100 154 -162 278q14 -383 15 -837v-408h-131v1382h178l604 -950q84 -133 170 -289q-14 455 -14 871v368h131v-1382zM1050 1632q-76 -80 -184 -80q-74 0 -157.5 48t-135.5 48q-74 0 -137 -67l-39 88q80 80 189 80q70 0 155.5 -48.5t132.5 -48.5 q72 0 140 68z" />
<glyph unicode="&#xd2;" horiz-adv-x="1445" d="M1348 705q0 -336 -184.5 -528.5t-458.5 -192.5q-299 0 -453 186t-154 508q0 336 183.5 528.5t457.5 192.5q285 0 447 -182t162 -512zM1206 682q0 289 -128 447.5t-355 158.5q-203 0 -343 -157.5t-140 -425.5q0 -279 122.5 -444t358.5 -165q203 0 344 158t141 428z M828 1575l-66 -72l-260 209l80 90z" />
<glyph unicode="&#xd3;" horiz-adv-x="1445" d="M1348 705q0 -336 -184.5 -528.5t-458.5 -192.5q-299 0 -453 186t-154 508q0 336 183.5 528.5t457.5 192.5q285 0 447 -182t162 -512zM1206 682q0 289 -128 447.5t-355 158.5q-203 0 -343 -157.5t-140 -425.5q0 -279 122.5 -444t358.5 -165q203 0 344 158t141 428z M963 1712l-260 -209l-64 72l244 227z" />
<glyph unicode="&#xd4;" horiz-adv-x="1445" d="M1348 705q0 -336 -184.5 -528.5t-458.5 -192.5q-299 0 -453 186t-154 508q0 336 183.5 528.5t457.5 192.5q285 0 447 -182t162 -512zM1206 682q0 289 -128 447.5t-355 158.5q-203 0 -343 -157.5t-140 -425.5q0 -279 122.5 -444t358.5 -165q203 0 344 158t141 428z M1001 1589l-69 -78l-207 146l-195 -146l-61 72l260 199z" />
<glyph unicode="&#xd5;" horiz-adv-x="1445" d="M1348 705q0 -336 -184.5 -528.5t-458.5 -192.5q-299 0 -453 186t-154 508q0 336 183.5 528.5t457.5 192.5q285 0 447 -182t162 -512zM1206 682q0 289 -128 447.5t-355 158.5q-203 0 -343 -157.5t-140 -425.5q0 -279 122.5 -444t358.5 -165q203 0 344 158t141 428z M1050 1632q-76 -80 -184 -80q-74 0 -157.5 48t-135.5 48q-74 0 -137 -67l-39 88q80 80 189 80q70 0 155.5 -48.5t132.5 -48.5q72 0 140 68z" />
<glyph unicode="&#xd6;" horiz-adv-x="1445" d="M1348 705q0 -336 -184.5 -528.5t-458.5 -192.5q-299 0 -453 186t-154 508q0 336 183.5 528.5t457.5 192.5q285 0 447 -182t162 -512zM1206 682q0 289 -128 447.5t-355 158.5q-203 0 -343 -157.5t-140 -425.5q0 -279 122.5 -444t358.5 -165q203 0 344 158t141 428z M991 1618q0 -37 -25.5 -62.5t-62.5 -25.5t-62.5 25.5t-25.5 62.5q0 39 25.5 63.5t62.5 24.5t62.5 -24.5t25.5 -63.5zM614 1618q0 -37 -25.5 -62.5t-62.5 -25.5q-39 0 -63.5 25.5t-24.5 62.5q0 39 24.5 63.5t63.5 24.5q37 0 62.5 -24.5t25.5 -63.5z" />
<glyph unicode="&#xd8;" horiz-adv-x="1445" d="M1343 696q0 -338 -181 -525t-468 -187q-109 0 -184 22l-80 -215l-102 35l80 215q-160 78 -237 245t-77 396q0 334 182.5 525.5t456.5 191.5q94 0 174 -19l74 203l102 -37l-73 -198q160 -70 246.5 -236t86.5 -416zM1204 678q0 197 -61.5 339t-179.5 208l-412 -1106 q66 -23 162 -23q217 2 354 156t137 426zM866 1268q-84 20 -155 18q-203 -2 -340.5 -158.5t-137.5 -429.5q0 -397 220 -534z" />
<glyph unicode="&#xd9;" horiz-adv-x="1435" d="M1239 522q0 -264 -135 -401t-404 -137q-123 0 -215 27.5t-146 70.5t-87 107.5t-44 127t-11 138.5v927h131v-913q0 -84 16 -147.5t57 -117.5t119 -84t193 -30q205 0 301 96.5t96 323.5v872h129v-860zM832 1575l-66 -72l-260 209l80 90z" />
<glyph unicode="&#xda;" horiz-adv-x="1435" d="M1239 522q0 -264 -135 -401t-404 -137q-123 0 -215 27.5t-146 70.5t-87 107.5t-44 127t-11 138.5v927h131v-913q0 -84 16 -147.5t57 -117.5t119 -84t193 -30q205 0 301 96.5t96 323.5v872h129v-860zM926 1712l-260 -209l-64 72l244 227z" />
<glyph unicode="&#xdb;" horiz-adv-x="1435" d="M1239 522q0 -264 -135 -401t-404 -137q-123 0 -215 27.5t-146 70.5t-87 107.5t-44 127t-11 138.5v927h131v-913q0 -84 16 -147.5t57 -117.5t119 -84t193 -30q205 0 301 96.5t96 323.5v872h129v-860zM983 1589l-70 -78l-206 146l-195 -146l-61 72l260 199z" />
<glyph unicode="&#xdc;" horiz-adv-x="1435" d="M1239 522q0 -264 -135 -401t-404 -137q-123 0 -215 27.5t-146 70.5t-87 107.5t-44 127t-11 138.5v927h131v-913q0 -84 16 -147.5t57 -117.5t119 -84t193 -30q205 0 301 96.5t96 323.5v872h129v-860zM973 1618q0 -37 -25.5 -62.5t-62.5 -25.5t-62.5 25.5t-25.5 62.5 q0 39 25.5 63.5t62.5 24.5t62.5 -24.5t25.5 -63.5zM596 1618q0 -37 -25.5 -62.5t-62.5 -25.5q-39 0 -63.5 25.5t-24.5 62.5q0 39 24.5 63.5t63.5 24.5q37 0 62.5 -24.5t25.5 -63.5z" />
<glyph unicode="&#xdd;" d="M793 1731l-260 -209l-64 72l244 227zM1034 1382l-442 -878v-504h-131v504l-432 878h145l246 -514q59 -121 110 -250h2q29 76 123 271l240 493h139z" />
<glyph unicode="&#xdf;" horiz-adv-x="1191" d="M1096 295q0 -135 -107.5 -223t-290.5 -88q-111 0 -192 16l6 123q96 -31 195 -31q127 0 192.5 52.5t65.5 129.5q0 68 -44 117t-107.5 82t-127 70t-107.5 101.5t-44 154.5q0 68 32.5 120t78.5 85l92 62q46 30 79 73t33 98q0 84 -61.5 128t-161.5 44q-301 0 -301 -367v-1042 h-129v1032q0 248 121.5 363.5t320.5 115.5q162 0 251 -72.5t89 -185.5q0 -80 -33 -136t-78 -88t-91 -58.5t-78.5 -66.5t-32.5 -95q0 -63 44 -111.5t107.5 -81t127 -69.5t107.5 -100.5t44 -151.5z" />
<glyph unicode="&#xe0;" d="M868 0h-131q0 152 13 223l-5 2q-39 -104 -135 -172.5t-225 -68.5q-123 0 -199.5 62.5t-76.5 178.5q0 160 163.5 258.5t462.5 98.5v90q0 131 -55 194.5t-186 63.5q-174 0 -312 -90l-14 116q166 78 350 78q190 0 268 -86t78 -241v-392q0 -131 4 -315zM735 469v14 q-274 0 -384.5 -68.5t-110.5 -162.5q0 -76 48 -119t128 -43q139 0 229 116t90 263zM631 1266l-66 -72l-260 209l80 90z" />
<glyph unicode="&#xe1;" d="M868 0h-131q0 152 13 223l-5 2q-39 -104 -135 -172.5t-225 -68.5q-123 0 -199.5 62.5t-76.5 178.5q0 160 163.5 258.5t462.5 98.5v90q0 131 -55 194.5t-186 63.5q-174 0 -312 -90l-14 116q166 78 350 78q190 0 268 -86t78 -241v-392q0 -131 4 -315zM735 469v14 q-274 0 -384.5 -68.5t-110.5 -162.5q0 -76 48 -119t128 -43q139 0 229 116t90 263zM748 1403l-260 -209l-64 72l244 227z" />
<glyph unicode="&#xe2;" d="M868 0h-131q0 152 13 223l-5 2q-39 -104 -135 -172.5t-225 -68.5q-123 0 -199.5 62.5t-76.5 178.5q0 160 163.5 258.5t462.5 98.5v90q0 131 -55 194.5t-186 63.5q-174 0 -312 -90l-14 116q166 78 350 78q190 0 268 -86t78 -241v-392q0 -131 4 -315zM735 469v14 q-274 0 -384.5 -68.5t-110.5 -162.5q0 -76 48 -119t128 -43q139 0 229 116t90 263zM789 1280l-70 -78l-207 146l-194 -146l-62 72l260 199z" />
<glyph unicode="&#xe3;" d="M868 0h-131q0 152 13 223l-5 2q-39 -104 -135 -172.5t-225 -68.5q-123 0 -199.5 62.5t-76.5 178.5q0 160 163.5 258.5t462.5 98.5v90q0 131 -55 194.5t-186 63.5q-174 0 -312 -90l-14 116q166 78 350 78q190 0 268 -86t78 -241v-392q0 -131 4 -315zM735 469v14 q-274 0 -384.5 -68.5t-110.5 -162.5q0 -76 48 -119t128 -43q139 0 229 116t90 263zM833 1323q-76 -80 -184 -80q-74 0 -157.5 48t-135.5 48q-74 0 -137 -67l-39 88q80 80 189 80q70 0 155.5 -48.5t132.5 -48.5q72 0 140 68z" />
<glyph unicode="&#xe4;" d="M868 0h-131q0 152 13 223l-5 2q-39 -104 -135 -172.5t-225 -68.5q-123 0 -199.5 62.5t-76.5 178.5q0 160 163.5 258.5t462.5 98.5v90q0 131 -55 194.5t-186 63.5q-174 0 -312 -90l-14 116q166 78 350 78q190 0 268 -86t78 -241v-392q0 -131 4 -315zM735 469v14 q-274 0 -384.5 -68.5t-110.5 -162.5q0 -76 48 -119t128 -43q139 0 229 116t90 263zM791 1348q0 -37 -26 -62.5t-62.5 -25.5t-62.5 25.5t-26 62.5q0 39 26 63.5t62.5 24.5t62.5 -24.5t26 -63.5zM414 1348q0 -37 -26 -62.5t-62 -25.5q-39 0 -63.5 25.5t-24.5 62.5 q0 39 24.5 63.5t63.5 24.5q37 0 62.5 -24.5t25.5 -63.5z" />
<glyph unicode="&#xe5;" d="M868 0h-131q0 152 13 223l-5 2q-39 -104 -135 -172.5t-225 -68.5q-123 0 -199.5 62.5t-76.5 178.5q0 160 163.5 258.5t462.5 98.5v90q0 131 -55 194.5t-186 63.5q-174 0 -312 -90l-14 116q166 78 350 78q190 0 268 -86t78 -241v-392q0 -131 4 -315zM735 469v14 q-274 0 -384.5 -68.5t-110.5 -162.5q0 -76 48 -119t128 -43q139 0 229 116t90 263zM737 1350q0 -84 -62.5 -145.5t-148.5 -61.5q-90 0 -151.5 58.5t-61.5 148.5q0 86 63.5 146t149.5 60q90 0 150.5 -59t60.5 -147zM643 1350q0 51 -34 85.5t-83 34.5q-51 0 -84.5 -34.5 t-33.5 -85.5q0 -49 34.5 -85t83.5 -36t83 36t34 85z" />
<glyph unicode="&#xe6;" horiz-adv-x="1660" d="M1556 625q0 -39 -2 -68h-692q-8 -242 80 -353.5t268 -111.5q166 0 297 66l13 -115q-145 -59 -328 -59q-170 0 -273.5 69.5t-138.5 179.5h-2q-47 -102 -151.5 -175.5t-243.5 -73.5q-123 0 -198.5 62.5t-75.5 178.5q0 160 163.5 258.5t462.5 98.5v90q0 127 -56 192.5 t-185 65.5q-174 0 -312 -90l-14 116q170 80 350 80q240 0 309 -182h2q47 80 135.5 130t200.5 50q197 0 294 -115.5t97 -293.5zM1419 657q4 125 -67.5 202t-194.5 77q-111 0 -187.5 -75t-99.5 -204h549zM735 469v14q-274 0 -384.5 -68.5t-110.5 -162.5q0 -76 48 -119t128 -43 q139 0 229 116t90 263z" />
<glyph unicode="&#xe7;" horiz-adv-x="907" d="M840 47q-152 -59 -310 -59q-436 0 -436 485q0 260 127 408.5t369 148.5q131 0 246 -35l-15 -114q-119 49 -246 49q-168 0 -256 -116t-88 -314q0 -401 326 -402q152 0 270 62zM579 -104q96 -211 -165 -381l-56 57q186 141 90 324h131z" />
<glyph unicode="&#xe8;" horiz-adv-x="1030" d="M926 625q0 -39 -4 -68h-691q-8 -242 80 -353.5t271 -111.5q164 0 295 66l12 -115q-147 -59 -330 -59q-465 0 -465 522q0 233 119 380.5t322 147.5q197 0 294 -115.5t97 -293.5zM788 657q4 125 -67.5 202t-194.5 77q-113 0 -188.5 -75t-97.5 -204h548zM633 1266l-66 -72 l-260 209l80 90z" />
<glyph unicode="&#xe9;" horiz-adv-x="1030" d="M926 625q0 -39 -4 -68h-691q-1 -21 0 -40q0 -211 80 -313q88 -112 271 -112q164 0 295 66l12 -115q-147 -59 -330 -59q-465 0 -465 522q0 233 119 380.5t322 147.5q197 0 294 -115.5t97 -293.5zM788 657q0 7 1 14q0 116 -68 188q-72 77 -195 77q-113 0 -188.5 -75 t-97.5 -204h548zM754 1403l-260 -209l-64 72l244 227z" />
<glyph unicode="&#xea;" horiz-adv-x="1030" d="M926 625q0 -39 -4 -68h-691q-1 -21 0 -40q0 -211 80 -313q88 -112 271 -112q164 0 295 66l12 -115q-147 -59 -330 -59q-465 0 -465 522q0 233 119 380.5t322 147.5q197 0 294 -115.5t97 -293.5zM788 657q0 7 1 14q0 116 -68 188q-72 77 -195 77q-113 0 -188.5 -75 t-97.5 -204h548zM807 1280l-70 -78l-207 146l-194 -146l-62 72l260 199z" />
<glyph unicode="&#xeb;" horiz-adv-x="1030" d="M926 625q0 -39 -4 -68h-691q-8 -242 80 -353.5t271 -111.5q164 0 295 66l12 -115q-147 -59 -330 -59q-465 0 -465 522q0 233 119 380.5t322 147.5q197 0 294 -115.5t97 -293.5zM788 657q4 125 -67.5 202t-194.5 77q-113 0 -188.5 -75t-97.5 -204h548zM809 1348 q0 -37 -25.5 -62.5t-62.5 -25.5t-62.5 25.5t-25.5 62.5q0 39 25.5 63.5t62.5 24.5t62.5 -24.5t25.5 -63.5zM432 1348q0 -37 -25.5 -62.5t-62.5 -25.5q-39 0 -63.5 25.5t-24.5 62.5q0 39 24.5 63.5t63.5 24.5q37 0 62.5 -24.5t25.5 -63.5z" />
<glyph unicode="&#xec;" horiz-adv-x="522" d="M326 0h-129v1018h129v-1018zM385 1266l-66 -72l-260 209l80 90z" />
<glyph unicode="&#xed;" horiz-adv-x="522" d="M326 0h-129v1018h129v-1018zM459 1403l-262 -209l-64 72l246 227z" />
<glyph unicode="&#xee;" horiz-adv-x="522" d="M326 0h-129v1018h129v-1018zM530 1280l-67 -78l-207 146l-195 -146l-63 72l262 199z" />
<glyph unicode="&#xef;" horiz-adv-x="522" d="M326 0h-129v1018h129v-1018zM539 1348q0 -37 -25 -62.5t-63 -25.5q-37 0 -63 25.5t-26 62.5q0 39 26 63.5t63 24.5q39 0 63.5 -24.5t24.5 -63.5zM162 1348q0 -37 -25.5 -62.5t-62.5 -25.5t-62.5 25.5t-25.5 62.5q0 39 25.5 63.5t62.5 24.5t62.5 -24.5t25.5 -63.5z" />
<glyph unicode="&#xf1;" horiz-adv-x="1185" d="M989 0h-129v662q0 135 -46 202.5t-161 67.5q-143 0 -235 -126t-92 -319v-487h-129v1018h131q0 -141 -19 -236l4 -2q43 119 139.5 187.5t229.5 68.5q307 0 307 -327v-709zM917 1323q-76 -80 -184 -80q-74 0 -157.5 48t-135.5 48q-74 0 -137 -67l-39 88q80 80 189 80 q70 0 155.5 -48.5t132.5 -48.5q72 0 140 68z" />
<glyph unicode="&#xf2;" horiz-adv-x="1105" d="M1012 524q0 -229 -131 -384.5t-349 -155.5q-209 0 -325.5 131t-116.5 391q0 223 128 375.5t349 152.5q197 0 321 -122t124 -388zM879 518q0 195 -83 303.5t-243 108.5q-137 0 -232.5 -106.5t-95.5 -307.5q0 -203 86 -314.5t244 -111.5q137 0 230.5 108.5t93.5 319.5z M672 1266l-66 -72l-260 209l80 90z" />
<glyph unicode="&#xf3;" horiz-adv-x="1105" d="M1012 524q0 -229 -131 -384.5t-349 -155.5q-209 0 -325.5 131t-116.5 391q0 223 128 375.5t349 152.5q197 0 321 -122t124 -388zM879 518q0 195 -83 303.5t-243 108.5q-137 0 -232.5 -106.5t-95.5 -307.5q0 -203 86 -314.5t244 -111.5q137 0 230.5 108.5t93.5 319.5z M785 1403l-260 -209l-64 72l244 227z" />
<glyph unicode="&#xf4;" horiz-adv-x="1105" d="M1012 524q0 -229 -131 -384.5t-349 -155.5q-209 0 -325.5 131t-116.5 391q0 223 128 375.5t349 152.5q197 0 321 -122t124 -388zM879 518q0 195 -83 303.5t-243 108.5q-137 0 -232.5 -106.5t-95.5 -307.5q0 -203 86 -314.5t244 -111.5q137 0 230.5 108.5t93.5 319.5z M819 1280l-70 -78l-207 146l-194 -146l-62 72l260 199z" />
<glyph unicode="&#xf5;" horiz-adv-x="1105" d="M1012 524q0 -229 -131 -384.5t-349 -155.5q-209 0 -325.5 131t-116.5 391q0 223 128 375.5t349 152.5q197 0 321 -122t124 -388zM879 518q0 195 -83 303.5t-243 108.5q-137 0 -232.5 -106.5t-95.5 -307.5q0 -203 86 -314.5t244 -111.5q137 0 230.5 108.5t93.5 319.5z M878 1323q-76 -80 -184 -80q-74 0 -157.5 48t-135.5 48q-74 0 -137 -67l-39 88q80 80 189 80q70 0 155.5 -48.5t132.5 -48.5q72 0 140 68z" />
<glyph unicode="&#xf6;" horiz-adv-x="1105" d="M1012 524q0 -229 -131 -384.5t-349 -155.5q-209 0 -325.5 131t-116.5 391q0 223 128 375.5t349 152.5q197 0 321 -122t124 -388zM879 518q0 195 -83 303.5t-243 108.5q-137 0 -232.5 -106.5t-95.5 -307.5q0 -203 86 -314.5t244 -111.5q137 0 230.5 108.5t93.5 319.5z M823 1348q0 -37 -25.5 -62.5t-62.5 -25.5t-62.5 25.5t-25.5 62.5q0 39 25.5 63.5t62.5 24.5t62.5 -24.5t25.5 -63.5zM446 1348q0 -37 -25.5 -62.5t-62.5 -25.5q-39 0 -63.5 25.5t-24.5 62.5q0 39 24.5 63.5t63.5 24.5q37 0 62.5 -24.5t25.5 -63.5z" />
<glyph unicode="&#xf7;" horiz-adv-x="1177" d="M686 940q0 -41 -28.5 -69.5t-69.5 -28.5t-68.5 28.5t-27.5 69.5t28.5 69.5t67.5 28.5q41 0 69.5 -28.5t28.5 -69.5zM1083 473h-991v111h991v-111zM686 113q0 -41 -28.5 -69t-69.5 -28q-39 0 -67.5 29t-28.5 68q0 41 27.5 69.5t68.5 28.5t69.5 -28.5t28.5 -69.5z" />
<glyph unicode="&#xf8;" horiz-adv-x="1103" d="M1001 524q0 -231 -130 -385.5t-345 -154.5q-84 0 -145 20l-82 -215l-96 33l84 219q-205 127 -205 465q0 225 127 376.5t348 151.5q61 0 105 -8l73 193l96 -35l-71 -189q241 -113 241 -471zM872 518q0 274 -155 367l-295 -774q51 -23 129 -23q137 2 229 109.5t92 320.5z M623 924q-53 8 -88 8q-131 -2 -228.5 -103.5t-97.5 -312.5q0 -250 125 -352z" />
<glyph unicode="&#xf9;" horiz-adv-x="1185" d="M989 0h-131q0 139 19 236l-5 2q-43 -119 -139 -187.5t-229 -68.5q-307 0 -307 327v709h129v-662q0 -135 46 -202.5t160 -67.5q143 0 235.5 126t92.5 318v488h129v-1018zM711 1266l-66 -72l-260 209l80 90z" />
<glyph unicode="&#xfa;" horiz-adv-x="1185" d="M989 0h-131q0 139 19 236l-5 2q-43 -119 -139 -187.5t-229 -68.5q-307 0 -307 327v709h129v-662q0 -135 46 -202.5t160 -67.5q143 0 235.5 126t92.5 318v488h129v-1018zM807 1403l-260 -209l-64 72l244 227z" />
<glyph unicode="&#xfb;" horiz-adv-x="1185" d="M989 0h-131q0 139 19 236l-5 2q-43 -119 -139 -187.5t-229 -68.5q-307 0 -307 327v709h129v-662q0 -135 46 -202.5t160 -67.5q143 0 235.5 126t92.5 318v488h129v-1018zM858 1280l-70 -78l-207 146l-194 -146l-62 72l260 199z" />
<glyph unicode="&#xfc;" horiz-adv-x="1185" d="M989 0h-131q0 139 19 236l-5 2q-43 -119 -139 -187.5t-229 -68.5q-307 0 -307 327v709h129v-662q0 -135 46 -202.5t160 -67.5q143 0 235.5 126t92.5 318v488h129v-1018zM862 1348q0 -37 -25.5 -62.5t-62.5 -25.5t-62.5 25.5t-25.5 62.5q0 39 25.5 63.5t62.5 24.5 t62.5 -24.5t25.5 -63.5zM485 1348q0 -37 -25.5 -62.5t-62.5 -25.5q-39 0 -63.5 25.5t-24.5 62.5q0 39 24.5 63.5t63.5 24.5q37 0 62.5 -24.5t25.5 -63.5z" />
<glyph unicode="&#xfd;" horiz-adv-x="950" d="M736 1366l-260 -209l-64 72l244 227zM926 1018l-426 -1129q-92 -242 -178 -329.5t-248 -87.5q-59 0 -125 10l14 121q61 -18 125 -19q98 0 156.5 59.5t124.5 229.5l49 127l-393 1018h151l230 -627q35 -92 77 -235h2q18 70 103 309l196 553h142z" />
<glyph unicode="&#xff;" horiz-adv-x="950" d="M926 1018l-426 -1129q-92 -242 -178 -329.5t-248 -87.5q-59 0 -125 10l14 121q61 -18 125 -19q98 0 156.5 59.5t124.5 229.5l49 127l-393 1018h151l230 -627q35 -92 77 -235h2q18 70 103 309l196 553h142zM747 1348q0 -37 -25.5 -62.5t-62.5 -25.5t-62.5 25.5t-25.5 62.5 q0 39 25.5 63.5t62.5 24.5t62.5 -24.5t25.5 -63.5zM370 1348q0 -37 -25.5 -62.5t-62.5 -25.5q-39 0 -63.5 25.5t-24.5 62.5q0 39 24.5 63.5t63.5 24.5q37 0 62.5 -24.5t25.5 -63.5z" />
<glyph unicode="&#x152;" horiz-adv-x="1722" d="M1561 0h-564q-55 0 -153.5 -5t-145.5 -5q-303 0 -451.5 188.5t-148.5 503.5q0 326 182.5 517.5t456.5 191.5q47 0 135.5 -4.5t124.5 -4.5h564v-106h-551v-510h524v-104h-524v-553h551v-109zM881 117v1155q-78 12 -156 12q-205 0 -346 -158.5t-141 -427.5 q0 -125 25.5 -228t80.5 -188t152.5 -132.5t232.5 -47.5q93 1 152 15z" />
<glyph unicode="&#x153;" horiz-adv-x="1804" d="M1700 625q0 -10 -4 -68h-692q-8 -242 79.5 -353.5t270.5 -111.5q166 0 301 66l8 -115q-147 -59 -330 -59q-311 0 -407 235q-125 -236 -391 -235q-227 0 -336 145t-109 377q0 225 128 376.5t349 151.5q127 0 227.5 -55t149.5 -166q117 221 365 221q197 0 294 -115.5 t97 -293.5zM1561 657q4 125 -67 202t-194 77q-113 0 -189.5 -76t-98.5 -203h549zM879 518q0 199 -83 306.5t-247 107.5q-133 0 -230.5 -101.5t-97.5 -314.5q0 -190 82 -309t252 -119q137 0 230.5 108.5t93.5 321.5z" />
<glyph unicode="&#x178;" d="M1034 1382l-442 -878v-504h-131v504l-432 878h145l246 -514q59 -121 110 -250h2q29 76 123 271l240 493h139zM801 1618q0 -37 -25.5 -62.5t-62.5 -25.5t-62.5 25.5t-25.5 62.5q0 39 25.5 63.5t62.5 24.5t62.5 -24.5t25.5 -63.5zM424 1618q0 -37 -25.5 -62.5t-62.5 -25.5 q-39 0 -63.5 25.5t-24.5 62.5q0 39 24.5 63.5t63.5 24.5q37 0 62.5 -24.5t25.5 -63.5z" />
<glyph unicode="&#x2c6;" horiz-adv-x="897" d="M715 1280l-70 -78l-207 146l-194 -146l-62 72l260 199z" />
<glyph unicode="&#x2dc;" horiz-adv-x="1056" d="M874 1323q-76 -80 -184 -80q-74 0 -157.5 48t-135.5 48q-74 0 -137 -67l-39 88q80 80 189 80q70 0 155.5 -48.5t132.5 -48.5q72 0 140 68z" />
<glyph unicode="&#x3bc;" horiz-adv-x="1271" d="M1075 0h-131q0 135 19 242l-5 2q-35 -104 -125 -182t-262 -78q-86 0 -153.5 28.5t-93.5 69.5l-5 -2q6 -37 7 -236v-358h-127v1532h127v-658q0 -274 278 -274q162 0 252 127t90 317v488h129v-1018z" />
<glyph unicode="&#x2000;" horiz-adv-x="909" />
<glyph unicode="&#x2001;" horiz-adv-x="1820" />
<glyph unicode="&#x2002;" horiz-adv-x="909" />
<glyph unicode="&#x2003;" horiz-adv-x="1820" />
<glyph unicode="&#x2004;" horiz-adv-x="606" />
<glyph unicode="&#x2005;" horiz-adv-x="454" />
<glyph unicode="&#x2006;" horiz-adv-x="303" />
<glyph unicode="&#x2007;" horiz-adv-x="303" />
<glyph unicode="&#x2008;" horiz-adv-x="227" />
<glyph unicode="&#x2009;" horiz-adv-x="362" />
<glyph unicode="&#x200a;" horiz-adv-x="100" />
<glyph unicode="&#x2010;" horiz-adv-x="669" d="M569 457h-469v104h469v-104z" />
<glyph unicode="&#x2011;" horiz-adv-x="669" d="M569 457h-469v104h469v-104z" />
<glyph unicode="&#x2012;" horiz-adv-x="669" d="M569 457h-469v104h469v-104z" />
<glyph unicode="&#x2013;" horiz-adv-x="1024" d="M1024 537h-1024v110h1024v-110z" />
<glyph unicode="&#x2014;" horiz-adv-x="2048" d="M2048 537h-2048v110h2048v-110z" />
<glyph unicode="&#x2018;" horiz-adv-x="464" d="M317 1528l58 -53q-59 -63 -86 -121t-25 -94.5t21 -63.5q31 -45 8 -92t-74 -47q-63 0 -90 61.5t17 175t171 234.5z" />
<glyph unicode="&#x2019;" horiz-adv-x="464" d="M145 1047l-59 51q59 63 86 121.5t26 96.5t-22 62q-33 45 -9.5 91.5t77.5 46.5q63 0 89.5 -61.5t-18.5 -175t-170 -232.5z" />
<glyph unicode="&#x201a;" horiz-adv-x="464" d="M145 -289l-59 51q59 63 86 122t26 96.5t-22 62.5q-33 45 -9.5 91t77.5 46q63 0 89.5 -60.5t-18.5 -174t-170 -234.5z" />
<glyph unicode="&#x201c;" horiz-adv-x="813" d="M723 1475q-59 -63 -86 -121t-26 -94.5t20 -63.5q33 -45 10 -92t-76 -47q-63 0 -89.5 61.5t18.5 175t170 234.5zM375 1475q-59 -63 -86 -121t-25 -94.5t21 -63.5q31 -45 8 -92t-74 -47q-63 0 -90 61.5t17 175t171 234.5z" />
<glyph unicode="&#x201d;" horiz-adv-x="813" d="M145 1047l-59 51q59 63 86 121.5t26 96.5t-22 62q-33 45 -9.5 91.5t77.5 46.5q63 0 89.5 -61.5t-18.5 -175t-170 -232.5zM492 1047l-58 51q59 63 86 121.5t25 95.5t-21 63q-33 45 -9 91.5t75 46.5q63 0 90 -61.5t-17 -174t-171 -233.5z" />
<glyph unicode="&#x201e;" horiz-adv-x="813" d="M145 -289l-59 51q59 63 86 122t26 96.5t-22 62.5q-33 45 -9.5 91t77.5 46q63 0 89.5 -60.5t-18.5 -174t-170 -234.5zM492 -289l-58 51q59 63 86 122t25 95.5t-21 63.5q-33 45 -9 91t75 46q63 0 90 -60.5t-17 -174t-171 -234.5z" />
<glyph unicode="&#x2022;" horiz-adv-x="884" d="M426 801q86 0 147.5 -60.5t61.5 -146.5t-61.5 -146.5t-147.5 -60.5t-146.5 60.5t-60.5 146.5t60.5 146.5t146.5 60.5z" />
<glyph unicode="&#x2026;" horiz-adv-x="1275" d="M211 180q41 0 69.5 -28.5t28.5 -69.5t-28.5 -69.5t-69.5 -28.5q-39 0 -67.5 28.5t-28.5 69.5t27.5 69.5t68.5 28.5zM625 180q41 0 69.5 -28.5t28.5 -69.5t-28.5 -69.5t-69.5 -28.5q-39 0 -68 28.5t-29 69.5t28 69.5t69 28.5zM1038 180q41 0 70 -28.5t29 -69.5t-29 -69.5 t-70 -28.5q-39 0 -68.5 28.5t-29.5 69.5t28.5 69.5t69.5 28.5z" />
<glyph unicode="&#x202f;" horiz-adv-x="362" />
<glyph unicode="&#x2039;" horiz-adv-x="643" d="M473 788l-213 -286l211 -281l-96 -65l-246 346l252 350z" />
<glyph unicode="&#x203a;" horiz-adv-x="643" d="M514 506l-254 -350l-92 63l215 287l-211 280l94 66z" />
<glyph unicode="&#x2044;" horiz-adv-x="831" d="M985 1485l-895 -1725l-100 54l895 1724z" />
<glyph unicode="&#x205f;" horiz-adv-x="454" />
<glyph unicode="&#x2122;" horiz-adv-x="1443" d="M1317 807h-107l-51 340l-14 119l-29 -101l-110 -358h-119l-109 362l-24 97l-6 -76l-58 -383h-98l86 575h145l107 -360l24 -102l19 92l117 370h141zM541 1300h-160v-493h-109v493h-159v82h428v-82z" />
<glyph unicode="&#xe000;" horiz-adv-x="1020" d="M0 1020h1020v-1020h-1020v1020z" />
<glyph unicode="&#xfb01;" horiz-adv-x="1200" d="M1004 0h-127v915h-502v-915h-129v915h-234v103h234v51q0 211 113.5 323.5t340.5 112.5q127 0 265 -37l-27 -110q-127 41 -246 41q-317 0 -317 -307v-74h629v-1018z" />
<glyph unicode="&#xfb02;" horiz-adv-x="1200" d="M1004 0h-127v1384q-92 16 -201 17q-156 0 -228.5 -64.5t-72.5 -208.5v-110h311v-103h-311v-915h-129v915h-234v103h234v131q0 170 111.5 263t332.5 93q131 0 314 -26v-1479z" />
<glyph unicode="&#xfb03;" horiz-adv-x="1939" d="M1771 1304.5q0 -38.5 -26.5 -65.5t-65.5 -27t-65.5 27t-26.5 65.5t26.5 65.5t65.5 27t65.5 -27t26.5 -65.5zM1743 0h-129v1018h129v-1018zM1502 1487l-13 -111q-74 23 -166 23q-125 0 -182 -75t-57 -232v-74h313v-103h-313v-915h-129v915h-234v103h234v69q0 209 99 313.5 t280 104.5q84 0 168 -18zM793 1487l-13 -111q-74 23 -166 23q-125 0 -182 -75t-57 -232v-74h313v-103h-313v-915h-129v915h-234v103h234v69q0 209 99 313.5t280 104.5q84 0 168 -18z" />
<glyph unicode="&#xfb04;" horiz-adv-x="1939" d="M1743 0h-129v1495h129v-1495zM1502 1487l-13 -111q-74 23 -166 23q-125 0 -182 -75t-57 -232v-74h313v-103h-313v-915h-129v915h-234v103h234v69q0 209 99 313.5t280 104.5q84 0 168 -18zM793 1487l-13 -111q-74 23 -166 23q-125 0 -182 -75t-57 -232v-74h313v-103h-313 v-915h-129v915h-234v103h234v69q0 209 99 313.5t280 104.5q84 0 168 -18z" />
</font>
</defs>
</svg>
